<svg xmlns="http://www.w3.org/2000/svg" width="586.778" height="410.375">
  <g data-name="Layer 6" transform="translate(-88.024 -148.962)">
    <rect data-name="Rectangle 61" width="17.858" height="84.823" rx="8.929" transform="translate(283.288 150.284)" fill="#4b9bbe"/>
    <path data-name="Line 67" fill="none" stroke="#d74090" stroke-linecap="round" stroke-linejoin="round" stroke-width="7.937" d="M233.699 486.978l-27.135 58.792"/>
    <path data-name="Line 68" fill="none" stroke="#4b9bbe" stroke-linecap="round" stroke-linejoin="round" stroke-width="10.05" d="M104 478.933V492.5"/>
    <path data-name="Path 23" d="M167.176 502.807c0 20.4-40.7 38.332-40.7 47.485" fill="none" stroke="#f2921a" stroke-linecap="round" stroke-linejoin="round" stroke-width="18.09"/>
    <path data-name="Path 24" d="M126.842 502.807a20.35 20.35 0 0120.35-20.351h0a20.35 20.35 0 0120.351 20.351" fill="none" stroke="#d74090" stroke-linecap="round" stroke-linejoin="round" stroke-width="18.09"/>
    <rect data-name="Rectangle 62" width="40.702" height="67.837" rx="20.351" transform="translate(202.041 482.456)" stroke-width="18.09" stroke="#f2921a" stroke-linecap="round" stroke-linejoin="round" fill="none"/>
    <path data-name="Path 25" d="M222.392 482.456h0a20.35 20.35 0 0120.351 20.351v27.134a20.35 20.35 0 01-20.351 20.351" fill="none" stroke="#4c6a71" stroke-linecap="round" stroke-linejoin="round" stroke-width="18.09"/>
    <rect data-name="Rectangle 63" width="58.792" height="18.09" rx="9.045" transform="translate(117.429 541.247)" fill="#4c6a71"/>
    <path data-name="Path 26" d="M242.743 529.941a20.35 20.35 0 01-20.351 20.351" fill="none" stroke="#4b9bbe" stroke-linecap="round" stroke-linejoin="round" stroke-width="18.09"/>
    <path data-name="Rectangle 64" d="M126.472 541.248h7.615a9.045 9.045 0 019.042 9.045 9.043 9.043 0 01-9.043 9.043h-7.612a9.045 9.045 0 01-9.045-9.045 9.043 9.043 0 019.043-9.043z" fill="#4b9bbe"/>
    <g data-name="Group 44" fill="none" stroke-linecap="round" stroke-linejoin="round" stroke-width="17.858">
      <path data-name="Path 27" d="M357.522 185.751v-6.7a20.089 20.089 0 0120.089-20.09h0a20 20 0 0112.628 4.464" stroke="#f3931a"/>
      <path data-name="Path 28" d="M370.915 224.788a20.1 20.1 0 01-13.393-18.947v-20.09" stroke="#4c6a71"/>
    </g>
    <path data-name="Path 30" d="M137.132 195.424h0v11.161a20.09 20.09 0 01-20.09 20.09h0a20.09 20.09 0 01-20.089-20.09v-11.161" fill="none" stroke="#f3931a" stroke-linecap="round" stroke-linejoin="round" stroke-width="17.858"/>
    <rect data-name="Rectangle 65" width="17.858" height="62.502" rx="8.929" transform="translate(168.383 150.78)" fill="#4b9bbe"/>
    <path data-name="Path 31" d="M96.953 173.1v33.483a20.09 20.09 0 0020.089 20.09h0" fill="none" stroke="#f3931a" stroke-linecap="round" stroke-linejoin="round" stroke-width="17.858"/>
    <path data-name="Line 69" fill="none" stroke="#d74090" stroke-linecap="round" stroke-linejoin="round" stroke-width="17.858" d="M96.953 159.709v8.433"/>
    <path data-name="Path 32" d="M163.919 225.532a20.1 20.1 0 0013.393-18.947" fill="none" stroke="#4a6971" stroke-linecap="round" stroke-linejoin="round" stroke-width="17.858"/>
    <path data-name="Path 33" d="M137.132 173.1v33.483a20.091 20.091 0 0020.09 20.09h0a20.07 20.07 0 006.7-1.143" fill="none" stroke="#4a6971" stroke-linecap="round" stroke-linejoin="round" stroke-width="17.858"/>
    <path data-name="Line 70" fill="none" stroke="#f3931a" stroke-linecap="round" stroke-linejoin="round" stroke-width="17.858" d="M137.132 159.709v8.433"/>
    <g data-name="Group 45">
      <rect data-name="Rectangle 66" width="32.363" height="17.858" rx="8.929" transform="translate(228.492 150.284)" fill="#4b9bbe"/>
      <rect data-name="Rectangle 67" width="32.363" height="17.858" rx="8.929" transform="translate(228.492 217.25)" fill="#4c6a71"/>
      <path data-name="Path 34" d="M235.124 226.179a20.093 20.093 0 01-20.093-20.094v-26.779a20.093 20.093 0 0120.093-20.093" fill="none" stroke="#f3931a" stroke-linecap="round" stroke-linejoin="round" stroke-width="17.858"/>
      <rect data-name="Rectangle 68" width="31.251" height="13.393" rx="6.697" transform="translate(218.879 185.999)" fill="#d74090"/>
    </g>
    <g data-name="Group 46">
      <rect data-name="Rectangle 69" width="32.363" height="17.858" rx="8.929" transform="translate(642.438 150.284)" fill="#4b9bbe"/>
      <rect data-name="Rectangle 70" width="32.363" height="17.858" rx="8.929" transform="translate(642.438 217.25)" fill="#4c6a71"/>
      <path data-name="Path 35" d="M649.071 226.179a20.093 20.093 0 01-20.093-20.094v-26.779a20.093 20.093 0 0120.093-20.093" fill="none" stroke="#f3931a" stroke-linecap="round" stroke-linejoin="round" stroke-width="17.858"/>
      <rect data-name="Rectangle 71" width="31.251" height="13.393" rx="6.697" transform="translate(632.826 185.999)" fill="#d74090"/>
    </g>
    <g data-name="Group 47">
      <rect data-name="Rectangle 72" width="32.363" height="17.858" rx="8.929" transform="translate(244.341 371.693)" fill="#4b9bbe"/>
      <rect data-name="Rectangle 73" width="32.363" height="17.858" rx="8.929" transform="translate(244.341 438.659)" fill="#4c6a71"/>
      <path data-name="Path 36" d="M250.974 447.587a20.093 20.093 0 01-20.093-20.093v-26.779a20.093 20.093 0 0120.093-20.094" fill="none" stroke="#f3931a" stroke-linecap="round" stroke-linejoin="round" stroke-width="17.858"/>
      <rect data-name="Rectangle 74" width="31.251" height="13.393" rx="6.697" transform="translate(234.729 407.408)" fill="#d74090"/>
    </g>
    <path data-name="Path 37" d="M548.581 190.464h0V179.3a20.089 20.089 0 0120.09-20.09h0a20.089 20.089 0 0120.089 20.09v11.161" fill="none" stroke="#d74090" stroke-linecap="round" stroke-linejoin="round" stroke-width="17.858"/>
    <rect data-name="Rectangle 75" width="17.858" height="62.501" rx="8.929" transform="rotate(180 258.719 117.554)" fill="#4b9bbe"/>
    <path data-name="Path 38" d="M588.76 219.069V179.3a20.089 20.089 0 00-20.089-20.089h0" fill="none" stroke="#d74090" stroke-linecap="round" stroke-linejoin="round" stroke-width="17.858"/>
    <path data-name="Path 39" d="M521.795 160.356a20.11 20.11 0 00-13.252 16.55v10.921" fill="none" stroke="#4a6971" stroke-linecap="round" stroke-linejoin="round" stroke-width="17.858"/>
    <path data-name="Path 40" d="M548.581 216.214V179.3a20.089 20.089 0 00-20.09-20.089h0a20.06 20.06 0 00-6.7 1.143" fill="none" stroke="#4a6971" stroke-linecap="round" stroke-linejoin="round" stroke-width="17.858"/>
    <path data-name="Line 71" fill="none" stroke="#f3931a" stroke-linecap="round" stroke-linejoin="round" stroke-width="17.858" d="M548.581 226.219v-8.437"/>
    <path data-name="Line 72" fill="none" stroke="#f3931a" stroke-linecap="round" stroke-linejoin="round" stroke-width="17.858" d="M588.639 226.219v-8.437"/>
    <path data-name="Line 73" fill="none" stroke="#d74090" stroke-linecap="round" stroke-linejoin="round" stroke-width="17.858" d="M327.51 226.177l-35.293.001"/>
    <rect data-name="Rectangle 76" width="17.858" height="26.397" rx="8.929" transform="translate(283.288 150.284)" fill="#f3931a"/>
    <rect data-name="Rectangle 77" width="17.858" height="30.365" rx="8.929" transform="translate(283.288 204.613)" fill="#4c6a71"/>
    <g data-name="Group 48" fill="none" stroke-linecap="round" stroke-linejoin="round" stroke-width="17.858">
      <path data-name="Path 41" d="M428.519 185.751v-6.7a20.09 20.09 0 0120.09-20.09h0a20 20 0 0112.628 4.464" stroke="#d74090"/>
      <path data-name="Path 42" d="M441.912 224.788a20.1 20.1 0 01-13.393-18.947V180.6" stroke="#4c6a71"/>
    </g>
    <path data-name="Path 43" d="M468.7 196.664v9.177a20.091 20.091 0 01-20.09 20.09h0a20.07 20.07 0 01-6.7-1.143" fill="none" stroke="#f2921a" stroke-linecap="round" stroke-linejoin="round" stroke-width="17.858"/>
    <path data-name="Path 44" d="M393.114 218.62a20.049 20.049 0 01-15.5 7.311h0a20.059 20.059 0 01-6.7-1.143" fill="none" stroke="#d74090" stroke-linecap="round" stroke-linejoin="round" stroke-width="17.858"/>
    <rect data-name="Rectangle 78" width="18.09" height="32.649" rx="9.045" transform="translate(348.513 171.37)" fill="#4b9bbe"/>
    <rect data-name="Rectangle 79" width="18.09" height="85.926" rx="9.045" transform="translate(382.706 371.141)" fill="#4c6a71"/>
    <rect data-name="Rectangle 80" width="18.09" height="85.926" rx="9.045" transform="translate(539.801 371.141)" fill="#4c6a71"/>
    <rect data-name="Rectangle 81" width="18.09" height="30.992" rx="9.045" transform="translate(539.801 371.141)" fill="#d74090"/>
    <path data-name="Path 48" d="M586.35 448.023l-15.863-15.864a22.79 22.79 0 010-32.23l19.061-19.061" fill="none" stroke="#f3931a" stroke-linecap="round" stroke-linejoin="round" stroke-width="18.09"/>
    <path data-name="Path 49" d="M405.318 417.135h7.89a18.474 18.474 0 0018.475-18.474h0a18.474 18.474 0 00-18.475-18.475h-21.457" fill="none" stroke="#f3931a" stroke-linecap="round" stroke-linejoin="round" stroke-width="18.09"/>
    <path data-name="Line 74" fill="none" stroke="#d74090" stroke-linecap="round" stroke-linejoin="round" stroke-width="18.09" d="M405.318 417.135l27.135 30.887"/>
    <g data-name="Group 51">
      <g data-name="Group 50">
        <g data-name="Group 49" fill="none" stroke-linecap="round" stroke-linejoin="round" stroke-width="17.858">
          <path data-name="Path 50" d="M621.1 407.25v-6.7a20.09 20.09 0 0120.09-20.09h0a20 20 0 0112.628 4.464" stroke="#d74090"/>
          <path data-name="Path 51" d="M634.5 446.287a20.1 20.1 0 01-13.4-18.947v-20.09" stroke="#4c6a71"/>
        </g>
      </g>
      <path data-name="Path 52" d="M661.283 418.163v9.177a20.091 20.091 0 01-20.09 20.09h0a20.07 20.07 0 01-6.7-1.143" fill="none" stroke="#f2921a" stroke-linecap="round" stroke-linejoin="round" stroke-width="17.858"/>
    </g>
    <path data-name="Path 53" d="M301.834 426.7v-46.514a9.046 9.046 0 019.045-9.045 9.045 9.045 0 019.045 9.045v50.623a9.045 9.045 0 01-9.045 9.045v-9.921c-4.995 0-9.045 1.759-9.045-3.233z" fill="#f3931a"/>
    <path data-name="Path 54" d="M342.536 430.809v-50.623a9.046 9.046 0 019.045-9.045 9.045 9.045 0 019.045 9.045v47.672c0 4.995-4.049 12-9.045 12v-9.921c-4.995-.004-9.045 5.863-9.045.872z" fill="#4c6a71"/>
    <path data-name="Path 55" d="M351.581 427.672a20.351 20.351 0 01-20.351 20.351h0a20.352 20.352 0 01-20.351-20.351" fill="none" stroke="#d74090" stroke-linecap="round" stroke-linejoin="round" stroke-width="18.09"/>
    <rect data-name="Rectangle 82" width="29.029" height="18.09" rx="9.045" transform="rotate(-90 371.435 28.735)" fill="#4b9bbe"/>
    <path data-name="Path 56" d="M459.482 426.7v-46.514a9.045 9.045 0 019.045-9.045 9.045 9.045 0 019.044 9.045v50.623a9.045 9.045 0 01-9.044 9.045v-9.921c-4.996 0-9.045 1.759-9.045-3.233z" fill="#f3931a"/>
    <path data-name="Path 57" d="M500.184 430.809v-50.623a9.045 9.045 0 019.045-9.045 9.045 9.045 0 019.044 9.045v47.672c0 4.995-4.049 12-9.044 12v-9.921c-4.996-.004-9.045 5.863-9.045.872z" fill="#4c6a71"/>
    <path data-name="Path 58" d="M509.229 427.672a20.352 20.352 0 01-20.351 20.351h0a20.351 20.351 0 01-20.351-20.351" fill="none" stroke="#d74090" stroke-linecap="round" stroke-linejoin="round" stroke-width="18.09"/>
    <rect data-name="Rectangle 83" width="29.029" height="18.09" rx="9.045" transform="rotate(-90 450.258 -50.088)" fill="#4b9bbe"/>
    <rect data-name="Rectangle 84" width="18.09" height="25.705" rx="9.045" transform="translate(382.706 431.363)" fill="#4b9bbe"/>
    <rect data-name="Rectangle 85" width="29.029" height="18.09" rx="9.045" transform="rotate(-90 498.747 -41.054)" fill="#4b9bbe"/>
    <rect data-name="Rectangle 86" width="17.858" height="84.824" rx="8.929" transform="translate(169.143 260.872)" fill="#4c6a71"/>
    <rect data-name="Rectangle 87" width="17.858" height="39.294" rx="8.929" transform="translate(169.143 262.51)" fill="#d74090"/>
    <path data-name="Line 75" fill="none" stroke="#f3931a" stroke-linecap="round" stroke-linejoin="round" stroke-width="17.858" d="M155.254 269.801h45.636"/>
    <g data-name="Group 53" fill="none" stroke-linecap="round" stroke-linejoin="round" stroke-width="17.858">
      <g data-name="Group 52">
        <path data-name="Path 65" d="M228.792 296.339v-6.7a20.089 20.089 0 0120.09-20.09h0a20.007 20.007 0 0112.628 4.464" stroke="#d74090"/>
        <path data-name="Path 66" d="M242.185 335.376a20.1 20.1 0 01-13.393-18.947v-20.09" stroke="#4c6a71"/>
      </g>
      <path data-name="Path 67" d="M261.51 274.017a20.053 20.053 0 017.461 15.626v16.617" stroke="#4b9bbe"/>
    </g>
    <path data-name="Path 68" d="M268.971 307.252v9.177a20.09 20.09 0 01-20.089 20.09h0a20.07 20.07 0 01-6.7-1.143" fill="none" stroke="#f2921a" stroke-linecap="round" stroke-linejoin="round" stroke-width="17.858"/>
    <rect data-name="Rectangle 88" width="17.858" height="28.581" rx="8.929" transform="translate(169.143 317.085)" fill="#4b9bbe"/>
    <path data-name="Path 70" d="M461.237 163.429a20.05 20.05 0 017.462 15.626v16.617" fill="none" stroke="#4b9bbe" stroke-linecap="round" stroke-linejoin="round" stroke-width="17.858"/>
    <path data-name="Path 71" d="M653.821 384.928a20.051 20.051 0 017.462 15.626v16.617" fill="none" stroke="#4b9bbe" stroke-linecap="round" stroke-linejoin="round" stroke-width="17.858"/>
  </g>
</svg>