<?xml version="1.0" standalone="no"?>
<!DOCTYPE svg PUBLIC "-//W3C//DTD SVG 20010904//EN"
 "http://www.w3.org/TR/2001/REC-SVG-20010904/DTD/svg10.dtd">
<svg version="1.0" xmlns="http://www.w3.org/2000/svg"
 width="700.000000pt" height="700.000000pt" viewBox="0 0 700.000000 700.000000"
 preserveAspectRatio="xMidYMid meet">
<metadata>
Created by potrace 1.11, written by Peter Selinger 2001-2013
</metadata>
<g transform="translate(0.000000,700.000000) scale(0.100000,-0.100000)"
fill="#000000" stroke="none">
<path d="M3230 6989 c-703 -57 -1372 -321 -1915 -756 -144 -115 -373 -339
-494 -483 -290 -346 -498 -718 -641 -1149 -261 -786 -234 -1646 75 -2411 455
-1124 1475 -1942 2665 -2139 227 -38 322 -45 580 -45 258 0 353 7 580 45 983
162 1855 747 2392 1604 136 216 266 496 348 745 372 1129 153 2356 -587 3285
-181 227 -459 491 -700 663 -662 474 -1498 706 -2303 641z m2105 -2609 c190
-236 345 -432 345 -435 0 -3 -981 -5 -2180 -5 -1199 0 -2180 2 -2180 5 0 3
155 199 345 435 l346 430 1489 0 1489 0 346 -430z m-743 -1972 l-1092 -1093
-1092 1093 -1093 1092 2185 0 2185 0 -1093 -1092z"/>
</g>
</svg>
