<svg enable-background="new 0 0 750 150" viewBox="0 0 750 150" xmlns="http://www.w3.org/2000/svg"><g fill="#13425e"><path d="m352.5 71.7c0 11.8-.1 23.5.1 35.3.1 4.5-1.6 7.1-5.7 9-16.5 7.3-32.9 15-49.5 22.1-2.5 1.1-6.4.9-9-.2-17.1-7.4-34-15.2-51-22.8-3.5-1.6-4-4.7-4-8 0-7.6 0-15.2 0-22.8 0-15.6 0-31.3 0-46.9 0-7.3.9-8.5 7.6-10.7 15.2-5 30.3-10.1 45.7-14.6 4-1.2 8.9-1.2 12.9 0 15.2 4.5 30.2 9.8 45.2 14.8 6.3 2.1 7.5 3.7 7.6 10.6.1 11.2.1 22.7.1 34.2zm-104.8-26.8c0 19.6 0 38.5.1 57.3 0 1 1.1 2.4 2.1 2.9 7.6 3.6 15.2 7.1 22.9 10.6 4.5 2 9 4 13.8 6.1 0-19.7 0-38.8-.1-57.8 0-.8-.8-2.1-1.5-2.5-12.1-5.5-24.3-10.9-37.3-16.6zm91.3-.3c-12.3 5.7-23.8 11.1-35.3 16.3-2.2 1-2.9 2.2-2.9 4.6.1 16.6.1 33.2.1 49.8v5.3s-.1.3.1.4 24.9-10.9 36.6-16.2c.7-.3 1.4-1.7 1.4-2.6.1-18.9.1-37.8 0-57.6zm-78.4-9.6c0 .1 21.8 10 32.4 14.7.6.3 1.6.2 2.3-.1 10.1-4.6 20.1-9.3 31.3-14.4-9.2-3-17.3-5.8-25.4-8.3-3-.9-6.4-2.7-9.1-1.9-10.4 2.6-31.5 9.8-31.5 10z"/><path d="m171.1 63.2c-7.2 0-14.2 0-21.4 0v7.3h18.1v11.2c-5.9 0-11.8 0-18.1 0v8.2h22.3v10.8c-12.1 0-24.3 0-36.9 0 0-16 0-32.1 0-48.5h36z"/><path d="m102.7 86v14.7c-4.9 0-9.5 0-14.3 0 0-14.6 0-48.5 0-48.5s15.9-1.9 29.8 1.3c8.1 1.4 11.5 8.3 10.8 17.6-.7 7.8-5.9 13.2-13.8 14.1-3.9.4-7.9.5-12.5.8zm.1-11.4c2.5 0 3.9 0 5.9-.1 2.2 0 4.1-.3 5.5-2.6.9-1.5.8-4.7-.2-6.1-1.5-3.7-11.2-2.4-11.2-2.4s0 7.1 0 11.2z"/><path d="m191.9 75.6c-4.6-7.6-9.2-15.2-14.2-23.4-.1-.1 16.1 0 16.1 0s4.9 9.2 6.6 12.5c1.7-3.2 6.8-12.5 6.8-12.5h16s-10 15.7-15 23.5c4.9 8.1 15 25 15 25h-15.7s-5.6-9.4-7.7-13.4c-1.5 2.8-4 7.5-4 7.5l-3 5.9s-16.5.1-16.4 0c5.3-8.7 10.4-16.9 15.5-25.1z"/><path d="m49.1 100.5s-9 0-13.8 0c5.4-16.5 10.7-32.6 16.1-48.9 4.3 0 14-.1 14.6-.1 0 0 .8 1.9.9 2.4 5.1 15 15 45.9 15 46.5-4.6 0-14 0-14 0l-1.4-5.8-15.1-.3zm10-32.7c-.3 0-.6 0-1 0-1.4 5.4-2.7 10.7-4.1 16.3h9.4c-1.5-5.8-2.9-11.1-4.3-16.3z"/><path d="m364 52h15v17h16.4v-17h15.1v48.7h-15.1v-19.7h-16.4v19.7h-15z"/><path d="m418.7 76.4c0-7.9 2.2-14.1 6.6-18.6 4.4-4.4 10.6-6.6 18.5-6.6 8.1 0 14.3 2.2 18.7 6.5s6.6 10.4 6.6 18.3c0 5.7-1 10.4-2.9 14s-4.7 6.5-8.3 8.5-8.1 3-13.5 3c-5.5 0-10-.9-13.6-2.6s-6.5-4.5-8.7-8.3c-2.3-3.8-3.4-8.5-3.4-14.2zm15.1 0c0 4.9.9 8.4 2.7 10.6 1.8 2.1 4.3 3.2 7.5 3.2s5.7-1.1 7.5-3.2 2.7-5.9 2.7-11.3c0-4.6-.9-7.9-2.8-10-1.8-2.1-4.4-3.2-7.5-3.2-3 0-5.5 1.1-7.3 3.2-1.9 2.2-2.8 5.8-2.8 10.7z"/><path d="m474.6 84.6 14.3-.9c.3 2.3.9 4.1 1.9 5.3 1.5 2 3.8 3 6.6 3 2.1 0 3.8-.5 5-1.5s1.7-2.2 1.7-3.5-.6-2.4-1.7-3.4-3.7-1.9-7.7-2.8c-6.6-1.5-11.3-3.5-14.1-5.9-2.8-2.5-4.2-5.6-4.2-9.4 0-2.5.7-4.9 2.2-7.1 1.4-2.2 3.6-4 6.5-5.2 2.9-1.3 6.9-1.9 12-1.9 6.2 0 11 1.2 14.2 3.5 3.3 2.3 5.2 6 5.8 11l-14.1.7c-.4-2.2-1.2-3.8-2.4-4.8s-2.9-1.5-5-1.5c-1.7 0-3.1.4-4 1.1s-1.3 1.6-1.3 2.7c0 .8.4 1.5 1.1 2.1s2.4 1.2 5 1.8c6.6 1.4 11.3 2.9 14.1 4.3 2.8 1.5 4.9 3.2 6.2 5.4 1.3 2.1 1.9 4.5 1.9 7.2 0 3.1-.9 6-2.6 8.6s-4.1 4.6-7.2 6-7 2-11.7 2c-8.3 0-14-1.6-17.2-4.8s-4.8-7.1-5.3-12z"/><path d="m523 52h45.7v12h-15.3v36.7h-15v-36.7h-15.4z"/><path d="m576.1 52h15.1v48.7h-15.1z"/><path d="m602 52h14l18.3 26.9v-26.9h14.2v48.7h-14.2l-18.1-26.7v26.7h-14.2z"/><path d="m683.1 83.1v-10.2h23.2v20.8c-4.4 3-8.4 5.1-11.8 6.2s-7.5 1.6-12.2 1.6c-5.8 0-10.5-1-14.1-3s-6.5-4.9-8.5-8.8-3-8.4-3-13.4c0-5.3 1.1-9.9 3.3-13.9 2.2-3.9 5.4-6.9 9.6-8.9 3.3-1.6 7.7-2.4 13.3-2.4 5.4 0 9.4.5 12.1 1.5s4.9 2.5 6.6 4.5c1.8 2 3.1 4.6 4 7.8l-14.5 2.6c-.6-1.8-1.6-3.2-3-4.2s-3.2-1.5-5.5-1.5c-3.3 0-5.9 1.1-7.9 3.4s-2.9 5.9-2.9 10.9c0 5.3 1 9 3 11.3s4.7 3.4 8.3 3.4c1.7 0 3.3-.2 4.8-.7s3.3-1.3 5.2-2.5v-4.6h-10z"/></g></svg>