<?xml version="1.0" encoding="UTF-8" standalone="no"?>
<svg width="1140px" height="384px" viewBox="0 0 1140 384" version="1.1" xmlns="http://www.w3.org/2000/svg" xmlns:xlink="http://www.w3.org/1999/xlink">
    <!-- Generator: Sketch 3.8.2 (29753) - http://www.bohemiancoding.com/sketch -->
    <title>Horizontal Logo</title>
    <desc>Created with Sketch.</desc>
    <defs></defs>
    <g id="Page-1" stroke="none" stroke-width="1" fill="none" fill-rule="evenodd">
        <g id="Horizontal-Logo">
            <g id="large-brown" transform="translate(50.000000, 50.000000)">
                <g id="logo">
                    <g id="logo-mark">
                        <path d="M284.869487,141.814748 C284.869487,63.4924781 221.109579,0 142.455118,0 C63.8006559,0 0.0407478688,63.4924781 0.0407478688,141.814748 C0.0407478688,220.141596 63.8006559,283.636364 142.455118,283.636364 C221.109579,283.636364 284.869487,220.141596 284.869487,141.814748" id="Fill-8" fill="#FF9933"></path>
                        <path d="M201.7676,75.1706612 C192.391062,75.1706612 183.754778,78.4175052 176.906872,83.8500296 C170.778846,69.3625437 156.483135,59.192116 139.855741,59.192116 C125.743395,59.192116 113.340197,66.5320198 106.154989,77.5939155 C101.050187,75.2317517 95.3726506,73.9307515 89.3985603,73.9307515 C67.2136095,73.9307515 49.1645674,92.0814014 49.1645674,114.381676 C49.1645674,131.912372 60.3000545,146.834278 75.8385751,152.459125 L68.284373,213.796194 C68.0738423,215.680947 68.6239386,217.574751 69.8441108,218.997932 C71.0484367,220.418851 72.8073864,221.237915 74.6319854,221.237915 L184.157729,221.237915 C187.367756,221.237915 190.100127,218.74452 190.518924,215.456949 L197.830903,155.862089 C199.137098,155.984269 200.429711,156.079299 201.7676,156.079299 C223.968397,156.079299 242.015175,137.917336 242.015175,115.614798 C242.015175,93.3054729 223.968397,75.1706612 201.7676,75.1706612" id="Fill-9" fill="#FFFFFF"></path>
                        <path d="M205.301346,71.0843892 C195.322645,71.0843892 186.14532,74.5439185 178.865034,80.3226221 C172.352166,64.9233047 157.171321,54.0989829 139.48901,54.0989829 C124.502849,54.0989829 111.309595,61.9027216 103.678425,73.6660262 C98.2521667,71.1658432 92.2260097,69.7652882 85.8851885,69.7652882 C62.2944363,69.7652882 43.1089814,89.0585557 43.1089814,112.754861 C43.1089814,131.373871 54.9620837,147.250598 71.4672343,153.221624 L63.4308491,218.411916 C63.1818343,220.398487 63.8021074,222.428048 65.0720827,223.966622 C66.3760145,225.450893 68.2368338,226.342361 70.1768851,226.342361 L186.568645,226.342361 C190.000521,226.342361 192.895883,223.695109 193.314681,220.181277 L201.11337,156.841798 C202.503325,156.966242 203.89328,157.074847 205.301346,157.074847 C228.86946,157.074847 248.057179,137.768004 248.057179,114.069436 C248.057179,90.3640812 228.86946,71.0843892 205.301346,71.0843892 L205.301346,71.0843892 Z M205.301346,142.987843 C204.46375,142.987843 203.660112,142.93354 202.836099,142.852086 L203.795938,135.220306 C204.262275,131.373871 201.618191,127.821574 197.90108,127.337376 C194.165858,126.869016 190.770203,129.577359 190.278965,133.430582 C190.278965,133.430582 187.453779,156.312348 184.843652,177.61255 L96.1106398,177.61255 C92.341462,177.61255 89.2966906,180.764364 89.2966906,184.665102 C89.2966906,188.531901 92.341462,191.690503 96.1106398,191.690503 L183.114131,191.690503 C181.909805,201.338268 180.954494,209.214411 180.57418,212.264408 L77.9121889,212.264408 C79.202538,201.779477 84.5767292,158.16995 86.5982762,141.648378 C86.3673716,141.648378 86.1160931,141.661954 85.8851885,141.661954 C69.8101543,141.661954 56.7187696,128.679103 56.7187696,112.754861 C56.7187696,96.7989414 69.8101543,83.836454 85.8851885,83.836454 C95.0376126,83.836454 103.212088,88.0494321 108.565905,94.5928975 C109.288048,95.5997585 110.275052,95.5997585 110.472,94.2173044 C111.916285,79.6008498 124.387397,68.1588357 139.48901,68.1588357 C154.004306,68.1588357 166.092841,78.7297453 168.281907,92.5361859 C167.231517,94.375687 166.289789,96.3011674 165.52237,98.2764251 L177.678818,104.837991 C181.561184,93.4072904 192.492932,85.1578177 205.301346,85.1578177 C221.369588,85.1578177 234.447391,98.1180424 234.447391,114.069436 C234.447391,130.02083 221.369588,142.987843 205.301346,142.987843 L205.301346,142.987843 Z" id="Fill-10" fill="#330000"></path>
                    </g>
                </g>
                <g id="Cookpad" transform="translate(310.597303, 60.000000)" fill="#330000">
                    <path d="M577.82963,30.9004272 C568.082517,30.9004272 556.084673,32.7132061 545.103288,36.4692292 C542.795836,37.2588866 538.575717,39.0464881 538.575717,39.0464881 L543.930276,58.6139718 L544.908164,58.3095532 C544.908164,58.3095532 548.558794,57.1582554 550.673391,56.5288183 C550.800449,56.4853299 563.55383,52.0769811 574.714456,52.0769811 C582.299326,52.0769811 587.930689,53.6311186 591.447455,56.6959052 C594.653384,59.4768729 596.36639,64.313239 596.543362,71.0791159 L577.083168,71.0791159 C562.805099,71.0791159 551.574137,74.1118584 543.701119,80.0903668 C536.218349,85.7644564 532.422511,93.6793422 532.422511,103.615293 C532.422511,112.734121 535.678355,120.232434 542.09702,125.897368 C547.884936,130.978642 555.297371,133.603967 564.754068,133.924408 C565.21692,133.938141 565.695654,133.947297 566.188001,133.947297 C572.25272,133.947297 580.227838,133.521568 588.119006,130.216451 C590.499063,129.218507 593.516675,127.856634 596.559245,125.924834 L596.559245,133.885497 L618.463024,133.885497 L618.463024,69.8683077 C618.463024,59.2640087 615.159533,50.2916685 608.65465,43.2122175 C601.337508,35.0432679 590.966452,30.9004272 577.82963,30.9004272 L577.82963,30.9004272 Z M596.56832,91.9214959 L596.56832,100.548218 C594.015829,103.679382 589.875121,106.876922 585.412231,109.158918 C580.488759,111.678955 576.218725,112.942407 571.572056,113.246826 C559.710345,114.04335 552.858324,110.067596 552.858324,102.642527 C552.858324,98.7308613 556.731304,95.4760991 560.57252,93.9837609 C565.182886,92.1709819 572.261796,91.9214959 579.224992,91.9214959 L596.56832,91.9214959 L596.56832,91.9214959 Z" id="Fill-1"></path>
                    <path d="M474.232515,30.7310514 C465.100268,30.7310514 456.927758,32.5896076 449.910108,36.2586538 L449.910108,30.7310514 L426.474835,30.7310514 L426.474835,163.583486 L449.910108,163.583486 L449.910108,128.332717 C456.927758,132.004052 465.102537,133.862609 474.232515,133.862609 C489.057385,133.862609 501.150521,129.049131 510.180669,119.552642 C519.158631,109.978331 523.712276,97.4422318 523.712276,82.2922523 C523.712276,67.1560059 519.158631,54.6244849 510.169324,45.0387296 C501.161866,35.5445288 489.073267,30.7310514 474.232515,30.7310514 L474.232515,30.7310514 Z M456.065583,105.743935 C453.556201,103.429896 451.457485,100.301021 449.828429,96.4442878 C448.185759,92.6058658 447.353079,87.8175659 447.353079,82.214431 C447.353079,76.5906963 448.185759,71.7955298 449.828429,67.9639743 C454.425182,57.2566765 462.407106,52.0518037 474.232515,52.0518037 C481.372684,52.0518037 487.455554,54.306333 492.304154,58.7421481 C498.160136,64.2285511 501.127833,72.090793 501.127833,82.1114322 C501.127833,92.4937115 498.176018,100.465819 492.363145,105.787424 C489.781158,108.078575 486.861108,109.783777 483.684674,110.861831 C477.191136,113.093472 471.092383,113.093472 464.596576,110.861831 C461.456445,109.79751 458.58631,108.078575 456.065583,105.743935 L456.065583,105.743935 Z" id="Fill-2"></path>
                    <path d="M703.900014,0.863687313 L703.900014,36.2609427 C696.882364,32.5918964 688.707585,30.7310514 679.575339,30.7310514 C664.750469,30.7310514 652.659601,35.5445288 643.629454,45.0410184 C634.651491,54.6153294 630.097846,67.1514282 630.097846,82.3014077 C630.097846,97.4353652 634.65376,109.969175 643.640798,119.552642 C652.645988,129.049131 664.736856,133.862609 679.575339,133.862609 C688.709854,133.862609 696.882364,132.006341 703.900014,128.337295 L703.900014,133.862609 L727.335288,133.862609 L727.335288,0.863687313 L703.900014,0.863687313 L703.900014,0.863687313 Z M706.457043,82.3815179 C706.457043,88.0029637 705.624364,92.7958413 703.981694,96.6296857 C699.387209,107.336983 691.403016,112.541856 679.575339,112.541856 C672.435169,112.541856 666.352299,110.287327 661.505969,105.849223 C655.649986,100.367398 652.68229,92.5051558 652.68229,82.4822278 C652.68229,72.0999485 655.634104,64.13013 661.446978,58.8062363 C664.031233,56.517374 666.949015,54.8098827 670.125448,53.7341174 C673.372217,52.6171526 676.494198,52.0769811 679.668363,52.0769811 C682.844796,52.0769811 685.964508,52.6171526 689.213546,53.7341174 C692.355946,54.7984384 695.226081,56.517374 697.744539,58.8497247 C700.251653,61.1637644 702.350368,64.2903503 703.981694,68.1493722 C705.624364,71.9877942 706.457043,76.7760941 706.457043,82.3815179 L706.457043,82.3815179 Z" id="Fill-3"></path>
                    <polyline id="Fill-4" points="415.584205 48.9114846 401.099667 30.3282116 349.981774 70.8845626 349.981774 0.863687313 326.553307 0.863687313 326.553307 133.862609 349.981774 133.862609 349.981774 100.964791 362.412974 91.0997944 398.932886 134.272315 416.759485 118.923204 380.845365 76.4739643 415.584205 48.9114846"></polyline>
                    <path d="M152.582303,30.7310514 C137.031392,30.7310514 124.064736,35.6887271 115.09131,45.0639071 C105.895535,54.5329304 101.232984,67.0530071 101.232984,82.280808 C101.232984,97.5086088 105.890997,110.028686 115.070891,119.490842 C124.046585,128.852289 137.017778,133.800809 152.582303,133.800809 C168.146828,133.800809 181.115753,128.852289 190.08691,119.49542 C199.271341,110.028686 203.929354,97.5086088 203.929354,82.280808 C203.929354,67.0530071 199.266803,54.5329304 190.077834,45.0684848 C181.097602,35.6887271 168.133215,30.7310514 152.582303,30.7310514 L152.582303,30.7310514 Z M171.314187,105.705025 C168.641444,107.991598 165.623832,109.699089 162.338493,110.779432 C159.080379,111.868931 155.797308,112.425124 152.582303,112.436569 C149.369568,112.425124 146.086496,111.868931 142.821576,110.777144 C139.543043,109.699089 136.525431,107.991598 133.864034,105.71418 C127.867381,100.401731 124.82708,92.4433565 124.82708,82.0610772 C124.82708,71.8962397 127.799314,64.2651729 133.907142,58.7329927 C138.910025,54.2834444 145.194826,52.028915 152.582303,52.028915 C159.972049,52.028915 166.254581,54.2834444 171.252927,58.728415 C177.367562,64.2651729 180.339796,71.8985286 180.339796,82.0610772 C180.339796,92.4433565 177.299495,100.401731 171.314187,105.705025 L171.314187,105.705025 Z" id="Fill-5"></path>
                    <path d="M263.228833,30.7310514 C247.675652,30.7310514 234.711265,35.6887271 225.73784,45.0639071 C216.542064,54.5329304 211.879513,67.0530071 211.879513,82.280808 C211.879513,97.5086088 216.537526,110.030974 225.71742,119.490842 C234.693114,128.852289 247.664308,133.800809 263.228833,133.800809 C278.793358,133.800809 291.762283,128.852289 300.733439,119.49542 C309.91787,110.030974 314.575883,97.5086088 314.575883,82.280808 C314.575883,67.0530071 309.913332,54.5329304 300.724363,45.0684848 C291.744131,35.6887271 278.779744,30.7310514 263.228833,30.7310514 L263.228833,30.7310514 Z M281.960716,105.705025 C279.285705,107.993887 276.268093,109.701378 272.985022,110.779432 C269.681531,111.884953 266.489215,112.425124 263.228833,112.436569 C260.016097,112.425124 256.733026,111.868931 253.468106,110.777144 C250.189572,109.699089 247.17196,107.991598 244.510563,105.71418 C238.51391,100.401731 235.473609,92.4433565 235.473609,82.0610772 C235.473609,71.8985286 238.445843,64.2651729 244.553671,58.7329927 C249.556555,54.2834444 255.841355,52.028915 263.228833,52.028915 C270.618579,52.028915 276.901111,54.2834444 281.899456,58.728415 C288.011822,64.2651729 290.984056,71.8985286 290.984056,82.0610772 C290.984056,92.4433565 287.946024,100.401731 281.960716,105.705025 L281.960716,105.705025 Z" id="Fill-6"></path>
                    <path d="M24.617404,82.2579193 C24.617404,86.5220698 25.534032,93.1872368 28.1160188,97.9503592 C30.2033895,101.802514 33.2187326,105.119076 37.0826372,107.8062 C41.3980493,110.809188 46.9023551,112.395369 52.9943011,112.395369 C55.8258648,112.395369 58.6687729,112.05204 61.454959,111.372248 C68.9059649,109.55718 75.4199228,105.455539 81.3734671,98.8338601 L82.0609381,98.0670912 L97.3055508,113.088894 C97.3055508,113.088894 93.0377853,118.041992 88.1483463,121.681283 C78.4193837,128.927822 66.5780928,133.784787 52.288679,133.784787 C34.9317379,133.784787 19.3331797,126.066744 10.7000867,113.892285 C4.19066655,104.711658 1.23431436,93.4390116 1.23431436,82.2579193 C1.23431436,71.076827 4.19066655,59.8041802 10.7000867,50.6235536 C19.3331797,38.449095 34.9317379,30.7310514 52.288679,30.7310514 C66.5780928,30.7310514 78.4193837,35.5880172 88.1483463,42.8345552 C93.0377853,46.4761351 97.3055508,51.4269442 97.3055508,51.4269442 L82.0609381,66.4510363 L81.3734671,65.6819786 C75.4199228,59.0603 68.9059649,54.9609476 61.454959,53.1458798 C58.6687729,52.4660877 55.8258648,52.1204695 52.9943011,52.1204695 C46.9023551,52.1204695 41.3980493,53.70894 37.0826372,56.7096384 C33.2187326,59.3990516 30.2033895,62.7156131 28.1160188,66.5677683 C25.534032,71.3286019 24.617404,77.9960578 24.617404,82.2579193" id="Fill-7"></path>
                </g>
            </g>
        </g>
    </g>
</svg>