<svg xmlns="http://www.w3.org/2000/svg" viewBox="0 0 1039 284"><g fill="none"><path d="M284.87 141.815C284.87 63.492 221.11 0 142.454 0 63.801 0 .041 63.492.041 141.815c0 78.327 63.76 141.821 142.414 141.821 78.655 0 142.414-63.494 142.414-141.821" fill="#F93"/><path d="M201.768 75.17c-9.377 0-18.013 3.248-24.861 8.68-6.128-14.487-20.424-24.658-37.051-24.658-14.113 0-26.516 7.34-33.701 18.402-5.105-2.362-10.782-3.663-16.756-3.663-22.185 0-40.234 18.15-40.234 40.45 0 17.531 11.135 32.453 26.674 38.078l-7.555 61.337c-.21 1.885.34 3.779 1.56 5.202a6.3 6.3 0 004.788 2.24h109.526c3.21 0 5.942-2.493 6.36-5.781l7.313-59.595c1.306.122 2.599.217 3.937.217 22.2 0 40.247-18.162 40.247-40.464 0-22.31-18.047-40.444-40.247-40.444" fill="#FFF"/><path d="M205.301 71.084c-9.978 0-19.156 3.46-26.436 9.239-6.513-15.4-21.694-26.224-39.376-26.224-14.986 0-28.18 7.804-35.81 19.567a42.413 42.413 0 00-17.794-3.9c-23.59 0-42.776 19.293-42.776 42.989 0 18.619 11.853 34.496 28.358 40.467l-8.036 65.19c-.25 1.986.371 4.016 1.641 5.555 1.304 1.484 3.165 2.375 5.105 2.375h116.392c3.432 0 6.327-2.647 6.746-6.16l7.798-63.34c1.39.124 2.78.233 4.188.233 23.568 0 42.756-19.307 42.756-43.006 0-23.705-19.188-42.985-42.756-42.985zm0 71.904c-.837 0-1.64-.054-2.465-.136l.96-7.632c.466-3.846-2.178-7.398-5.895-7.883-3.735-.468-7.13 2.24-7.622 6.094 0 0-2.825 22.881-5.435 44.182H96.11c-3.77 0-6.814 3.151-6.814 7.052 0 3.867 3.044 7.026 6.814 7.026h87.003c-1.204 9.647-2.16 17.523-2.54 20.573H77.912c1.29-10.485 6.665-54.094 8.686-70.616-.23 0-.482.014-.713.014-16.075 0-29.166-12.983-29.166-28.907 0-15.956 13.091-28.919 29.166-28.919 9.153 0 17.327 4.213 22.68 10.757.723 1.007 1.71 1.007 1.907-.376 1.444-14.616 13.915-26.058 29.017-26.058 14.515 0 26.604 10.57 28.793 24.377a43.142 43.142 0 00-2.76 5.74l12.157 6.562c3.882-11.43 14.814-19.68 27.622-19.68 16.069 0 29.146 12.96 29.146 28.911 0 15.952-13.077 28.919-29.146 28.919zM888.427 90.9c-9.747 0-21.745 1.813-32.726 5.57-2.308.789-6.528 2.576-6.528 2.576l5.355 19.568.977-.304s3.651-1.152 5.766-1.781c.127-.044 12.88-4.452 24.04-4.452 7.586 0 13.217 1.554 16.734 4.619 3.206 2.78 4.919 7.617 5.096 14.383h-19.46c-14.279 0-25.51 3.033-33.383 9.011-7.482 5.674-11.278 13.59-11.278 23.525 0 9.12 3.256 16.617 9.674 22.282 5.788 5.082 13.2 7.707 22.657 8.027.463.014.942.023 1.434.023 6.065 0 14.04-.425 21.931-3.73 2.38-.998 5.398-2.36 8.44-4.292v7.96h21.904v-64.017c0-10.604-3.303-19.576-9.808-26.656-7.317-8.169-17.688-12.312-30.825-12.312zm18.739 61.021v8.627c-2.553 3.131-6.694 6.329-11.156 8.61-4.924 2.521-9.194 3.784-13.84 4.089-11.862.796-18.714-3.18-18.714-10.604 0-3.912 3.873-7.167 7.714-8.66 4.61-1.812 11.69-2.062 18.652-2.062h17.344zM784.83 90.731c-9.132 0-17.305 1.859-24.323 5.528V90.73h-23.435v132.852h23.435v-35.25c7.018 3.671 15.193 5.53 24.323 5.53 14.825 0 26.918-4.814 35.948-14.31 8.978-9.575 13.532-22.11 13.532-37.26 0-15.137-4.554-27.669-13.543-37.254-9.008-9.494-21.096-14.308-35.937-14.308zm-18.167 75.013c-2.51-2.314-4.608-5.443-6.237-9.3-1.643-3.838-2.476-8.626-2.476-14.23 0-5.623.833-10.418 2.476-14.25 4.596-10.707 12.578-15.912 24.404-15.912 7.14 0 13.223 2.254 18.071 6.69 5.856 5.487 8.824 13.349 8.824 23.37 0 10.382-2.952 18.354-8.765 23.675-2.582 2.292-5.502 3.997-8.678 5.075-6.494 2.231-12.592 2.231-19.088 0-3.14-1.064-6.01-2.783-8.531-5.118zm247.834-104.88V96.26c-7.017-3.67-15.192-5.53-24.324-5.53-14.825 0-26.916 4.814-35.946 14.31-8.978 9.574-13.532 22.11-13.532 37.26 0 15.134 4.556 27.668 13.543 37.252 9.005 9.496 21.096 14.31 35.935 14.31 9.134 0 17.307-1.857 24.324-5.526v5.526h23.436v-133h-23.436zm2.557 81.518c0 5.621-.832 10.414-2.475 14.248-4.594 10.707-12.579 15.912-24.406 15.912-7.14 0-13.223-2.255-18.07-6.693-5.856-5.482-8.823-13.344-8.823-23.367 0-10.382 2.951-18.352 8.764-23.676 2.585-2.289 5.502-3.996 8.679-5.072 3.247-1.117 6.369-1.657 9.543-1.657 3.176 0 6.296.54 9.545 1.657 3.142 1.064 6.012 2.783 8.53 5.116 2.508 2.314 4.607 5.44 6.238 9.3 1.643 3.838 2.475 8.626 2.475 14.232zm-290.872-33.471l-14.485-18.583-51.118 40.557V60.864h-23.428v132.999h23.428v-32.898l12.431-9.865 36.52 43.172 17.827-15.349-35.914-42.449 34.739-27.563M463.18 90.731c-15.551 0-28.518 4.958-37.491 14.333-9.196 9.469-13.859 21.989-13.859 37.217 0 15.228 4.658 27.748 13.838 37.21 8.976 9.361 21.947 14.31 37.512 14.31 15.564 0 28.533-4.949 37.504-14.306 9.185-9.466 13.843-21.986 13.843-37.214 0-15.228-4.663-27.748-13.852-37.213-8.98-9.38-21.944-14.337-37.495-14.337zm18.731 74.974a26.473 26.473 0 01-8.975 5.074c-3.258 1.09-6.541 1.646-9.756 1.658-3.213-.012-6.496-.568-9.761-1.66a26.436 26.436 0 01-8.958-5.063c-5.996-5.312-9.037-13.27-9.037-23.653 0-10.165 2.973-17.796 9.08-23.328 5.003-4.45 11.288-6.704 18.676-6.704 7.39 0 13.672 2.254 18.67 6.7 6.115 5.536 9.087 13.17 9.087 23.332 0 10.382-3.04 18.34-9.026 23.644zm91.915-74.974c-15.553 0-28.517 4.958-37.49 14.333-9.197 9.469-13.86 21.989-13.86 37.217 0 15.228 4.659 27.75 13.839 37.21 8.975 9.361 21.947 14.31 37.511 14.31 15.565 0 28.534-4.949 37.505-14.306 9.184-9.464 13.842-21.986 13.842-37.214 0-15.228-4.662-27.748-13.851-37.213-8.98-9.38-21.945-14.337-37.496-14.337zm18.732 74.974a26.437 26.437 0 01-8.976 5.074c-3.303 1.106-6.495 1.646-9.756 1.658-3.213-.012-6.496-.568-9.76-1.66a26.436 26.436 0 01-8.958-5.063c-5.997-5.312-9.037-13.27-9.037-23.653 0-10.162 2.972-17.796 9.08-23.328 5.003-4.45 11.288-6.704 18.675-6.704 7.39 0 13.672 2.254 18.67 6.7 6.113 5.536 9.085 13.17 9.085 23.332 0 10.382-3.038 18.34-9.023 23.644zm-257.343-23.447c0 4.264.916 10.93 3.498 15.692 2.088 3.853 5.103 7.17 8.967 9.856 4.315 3.003 9.82 4.59 15.912 4.59a35.7 35.7 0 008.46-1.024c7.451-1.815 13.965-5.916 19.919-12.538l.687-.767 15.245 15.022s-4.268 4.953-9.157 8.592c-9.73 7.247-21.57 12.104-35.86 12.104-17.357 0-32.956-7.718-41.589-19.893-6.509-9.18-9.465-20.453-9.465-31.634 0-11.181 2.956-22.454 9.465-31.634 8.633-12.175 24.232-19.893 41.589-19.893 14.29 0 26.13 4.857 35.86 12.104 4.89 3.641 9.157 8.592 9.157 8.592l-15.245 15.024-.687-.769c-5.954-6.622-12.468-10.721-19.919-12.536a35.716 35.716 0 00-8.46-1.026c-6.092 0-11.597 1.589-15.912 4.59-3.864 2.69-6.88 6.006-8.967 9.858-2.582 4.76-3.498 11.428-3.498 15.69" fill="#300"/></g></svg>