<svg fill="none" height="122" viewBox="0 0 294 122" width="294" xmlns="http://www.w3.org/2000/svg"><g clip-rule="evenodd" fill-rule="evenodd"><path d="m150.829 59.4577h-13.043v42.8433h13.043v-17.8741c-.009-1.9443.107-3.8872.35-5.8161.178-1.6064.697-3.1554 1.52-4.5419.813-1.2869 1.975-2.3112 3.348-2.9515 1.452-.7059 3.418-1.0588 5.898-1.0588.946-.003 1.891.0705 2.826.22.922.1548 1.832.3753 2.722.66v-12.0996c-.683-.1825-1.382-.3006-2.087-.3529-.757-.055-1.51-.0871-2.268-.0871-2.898 0-5.304.6615-7.218 1.9845-1.915 1.323-3.566 3.3091-4.955 5.9582h-.177zm36.295-23.8004h-13.034v66.6437h12v-5.6416h.177c.597.8498 1.281 1.6333 2.042 2.3374.897.836 1.89 1.5612 2.958 2.1592 1.17.663 2.408 1.194 3.693 1.585 1.383.42 2.82.629 4.264.619 2.92.04 5.818-.515 8.521-1.632 2.485-1.04 4.723-2.602 6.564-4.5828 1.861-2.0242 3.296-4.408 4.22-7.0076 1.011-2.8566 1.511-5.8718 1.479-8.9052.008-2.9199-.452-5.8218-1.361-8.5934-.844-2.6321-2.138-5.094-3.825-7.2735-1.637-2.1035-3.699-3.8314-6.048-5.069-2.501-1.2948-5.279-1.9465-8.089-1.8975-2.59-.0224-5.165.4103-7.608 1.2787-2.32.8321-4.336 2.353-5.785 4.3632h-.172zm1.697 53.0686c-1.815-1.9982-2.722-4.6137-2.722-7.8464 0-3.2326.907-5.8481 2.722-7.8464 1.815-1.9982 4.386-2.9974 7.713-2.9974s5.898.9992 7.713 2.9974c1.814 1.9983 2.722 4.6138 2.722 7.8464 0 3.2327-.908 5.8482-2.722 7.8464-1.815 1.9983-4.386 2.9974-7.713 2.9974s-5.895-.9991-7.704-2.9974zm79.332-18.6902h11.479v-10.578h-11.479v-12.677h-13.039v12.6954h-8.348v10.578h8.348v20.363c-.057 2.0619.345 4.1105 1.175 5.9948.739 1.5912 1.86 2.97 3.262 4.0101 1.461 1.055 3.112 1.814 4.859 2.232 1.994.485 4.038.722 6.089.706 1.54-.003 3.079-.092 4.609-.266 1.549-.168 3.072-.523 4.537-1.059v-10.9991c-.733.5914-1.627.9445-2.563 1.0128-.902.1287-1.811.2022-2.722.22-1.151.0479-2.299-.1472-3.371-.5729-.781-.3264-1.436-.8986-1.869-1.6316-.429-.7741-.697-1.6289-.785-2.5116-.122-1.0649-.179-2.1362-.173-3.2082zm-40.115-29.4882c-1.231 1.2494-1.995 2.891-2.162 4.6454s.273 3.5131 1.245 4.9768c.972 1.4636 2.416 2.5418 4.086 3.0509s3.464.4176 5.075-.2588 2.94-1.896 3.761-3.4511 1.084-3.3497.742-5.0781c-.341-1.7285-1.265-3.284-2.614-4.4018s-3.039-1.7289-4.784-1.729c-.996-.0123-1.984.1805-2.903.5666-.92.3861-1.752.9574-2.446 1.6791zm11.873 18.9102h-13.048v42.8433h13.048z" fill="#3a4045"/><path d="m129.628 54.5079c-1.051-8.0337-4.04-15.6837-8.702-22.2782-4.662-6.5944-10.856-11.9317-18.037-15.543-7.1816-3.6113-15.1308-5.3862-23.1498-5.1689-8.0189.2173-15.8625 2.4202-22.8418 6.4152-6.9793 3.9951-12.8809 9.6601-17.1865 16.4976-4.3057 6.8375-6.8837 14.6383-7.5077 22.7175-.624 8.0791.7252 16.1895 3.9289 23.6189 3.2038 7.4293 8.1642 13.9505 14.4457 18.9907 4.8091-2.1633 10.0673-4.6886 15.6522-7.521-5.6488-2.734-10.4484-6.9786-13.8782-12.2733-3.4298-5.2946-5.3586-11.4371-5.5773-17.7608-.2186-6.3237 1.2813-12.5871 4.337-18.1106s7.5505-10.096 12.9967-13.2215c5.4462-3.1256 11.6357-4.6846 17.8969-4.508s12.3549 2.0821 17.62 5.5097c5.2649 3.4276 9.4999 8.2465 12.2459 13.9336s3.898 12.0253 3.33 18.3268c5.172-3.3136 10.009-6.5402 14.427-9.6247zm.413 5.6099c-4.949 3.6986-10.435 7.5301-16.332 11.3938-2.635 8.3469-8.302 15.3757-15.8604 19.6711-7.5586 4.2953-16.4474 5.5383-24.8768 3.4785-6.465 3.1395-12.5989 5.8578-18.2156 8.1078 7.4706 4.799 16.0888 7.465 24.9387 7.712 8.8499.248 17.6009-1.932 25.3231-6.307 7.722-4.3743 14.126-10.7808 18.532-18.5382s6.649-16.5758 6.491-25.518z" fill="#3a4045"/><path d="m132.527 19.859c.664 0 1.312-.1986 1.863-.5708.551-.3721.981-.9011 1.235-1.52s.32-1.2999.191-1.9569c-.13-.657-.449-1.2605-.918-1.7342s-1.066-.7962-1.716-.9269c-.651-.1307-1.325-.0636-1.938.1927-.612.2564-1.136.6905-1.504 1.2475-.369.557-.565 1.2118-.565 1.8817-.001.4449.085.8856.254 1.2968.168.4112.415.7848.726 1.0995.312.3146.682.5641 1.089.7341s.843.2571 1.283.2565z" fill="#6c4df6"/><path d="m19.7132 77.4055c.8845 0 1.749-.2651 2.4842-.7618.7352-.4966 1.308-1.2025 1.6458-2.0282s.4255-1.7341.252-2.6102c-.1736-.8761-.6005-1.6805-1.2269-2.3113-.6263-.6308-1.4238-1.0596-2.2916-1.2323-.8678-.1726-1.7667-.0812-2.5831.2625-.8163.3438-1.5133.9246-2.0027 1.6688s-.7492 1.6184-.7465 2.5118c.0036 1.195.476 2.3397 1.3137 3.1833.8377.8437 1.9723 1.3174 3.1551 1.3174z" fill="#6c4df6"/><path d="m95.1843 50.8139c4.8277-2.695 9.5277-5.2524 14.0647-7.6127.168.275.349.6004.54.967-4.497 2.3741-9.197 4.9407-14.024 7.6402zm62.6997-24.048c-2.155-3.772-15.221.2337-33.714 8.9647.173.2887.345.5867.509.8891 17.716-8.5201 30.079-12.622 31.649-9.3221 2.468 4.3173-25.86 25.5008-63.2443 47.3121-37.3839 21.8114-69.7138 35.9913-72.1818 31.6743-1.4065-2.566 5.5486-9.5604 11.7959-15.1244-8.9967 7.3331-13.7151 12.9844-12.1634 15.6974 3.5206 6.164 37.5971-5.958 75.5301-28.0674 37.9325-22.1093 65.3585-45.8593 61.8195-52.0237z" fill="#6c4df6"/></g><path d="m90.7427 54.3979c-.7994-1.3857-1.0982-3.0086-.8455-4.592s1.0413-3.0292 2.2312-4.091c1.1899-1.0617 2.7076-1.6736 4.2942-1.7313s3.1439.4423 4.4064 1.4148c1.262.9725 2.152 2.3572 2.517 3.9181.365 1.561.182 3.2014-.516 4.6416-.699 1.4402-1.871 2.5911-3.3152 3.2563-1.4446.6653-3.0729.8037-4.6073.3917-.8737-.2204-1.6937-.6186-2.4099-1.1702-.7161-.5517-1.3133-1.2451-1.7549-2.038z" fill="#c832be"/></svg>