<svg viewBox="0 0 2987 476" xmlns="http://www.w3.org/2000/svg" fill-rule="evenodd" clip-rule="evenodd" stroke-linejoin="round" stroke-miterlimit="2"><g fill-rule="nonzero"><path d="M2489.85 347.917c11.822 0 21.409-9.584 21.409-21.409v-69.375l51.153-100.685c6.963-13.703-2.993-29.931-18.362-29.931a20.6 20.6 0 00-18.75 12.069l-35.134 77.187-35.719-77.278a20.637 20.637 0 00-18.735-11.978c-15.396 0-25.371 16.256-18.396 29.985l51.125 100.631v69.375c0 11.825 9.587 21.409 21.409 21.409M2735.97 126.53c-11.906 0-21.553 9.65-21.553 21.553v178.291c0 11.906 9.647 21.556 21.553 21.556s21.556-9.65 21.556-21.556V148.083c0-11.903-9.65-21.553-21.556-21.553M2616.43 301.897h-.203c-12.71 0-23.01 10.303-23.01 23.009s10.3 23.009 23.01 23.009h.203c12.706 0 23.006-10.303 23.006-23.009s-10.3-23.009-23.006-23.009M2866.08 175.035c6.509-7.15 16.128-11.819 27.919-11.819 11.772 0 21.406 4.669 27.606 11.819 8.056 9.338 10.85 19.894 10.85 62.178 0 42.3-2.794 52.56-10.85 61.878-6.2 7.153-15.834 12.135-27.606 12.135-11.791 0-21.41-4.982-27.919-12.135-8.059-9.318-10.541-19.578-10.541-61.878 0-42.284 2.482-52.84 10.541-62.178m27.919 174.744c25.434 0 44.031-8.388 58.928-23.313 22.019-22.078 22.641-46.953 22.641-89.253 0-42.284-.622-67.144-22.641-89.237-14.897-14.913-33.494-23.313-58.928-23.313-25.438 0-44.363 8.4-59.241 23.313-22.034 22.093-22.347 46.953-22.347 89.237 0 42.3.313 67.175 22.347 89.253 14.878 14.925 33.803 23.313 59.241 23.313M1707.17 191.832l26.981 80.525h-54.903l27.922-80.525zm-40.022 116.906h78.481l8.259 24.856a20.917 20.917 0 0019.853 14.319c14.519 0 24.622-14.431 19.654-28.072l-64.629-177.453a24.128 24.128 0 00-22.675-15.869 24.131 24.131 0 00-22.681 15.897l-64.353 177.35c-4.966 13.688 5.172 28.147 19.728 28.147a20.992 20.992 0 0019.872-14.222l8.491-24.953zM1413.75 218.883l35.913 70.959a23.675 23.675 0 0042.281-.059l35.634-70.9v107.484c0 11.903 9.654 21.556 21.557 21.556 11.906 0 21.556-9.653 21.556-21.556V152.595c0-14.397-11.675-26.072-26.072-26.072a26.076 26.076 0 00-23.512 14.804l-50.285 104.912-50.587-104.962a26.07 26.07 0 00-23.488-14.754h-.037c-14.4 0-26.072 11.675-26.072 26.072v173.772c0 11.903 9.65 21.556 21.556 21.556 11.903 0 21.556-9.653 21.556-21.556V218.883zM2367.47 309.361h-80.906V148.089c0-11.906-9.653-21.559-21.556-21.559-11.906 0-21.556 9.653-21.556 21.559v179.797c0 11.063 8.968 20.028 20.031 20.028h103.987c10.647 0 19.278-8.631 19.278-19.275 0-10.647-8.631-19.278-19.278-19.278M1223.92 253.703l26.359 4.044c11.163 1.562 15.503 3.422 19.844 7.465 4.653 4.669 6.825 10.882 6.825 18.347 0 17.722-13.647 27.669-39.381 27.669-15.119 0-29.544-2.628-41.7-9.841-7.238-4.296-16.303-3.846-22.25 2.113l-.028.028c-9.638 9.663-8.185 26.331 3.681 33.072 17.034 9.675 36.528 13.178 59.984 13.178 46.516 0 81.885-24.25 81.885-67.156 0-19.894-5.282-35.756-17.05-46.641-9.619-9.322-22.035-14.615-42.194-17.409l-26.356-4.044c-9.307-1.237-15.816-4.359-20.175-8.403-4.654-4.356-6.197-9.944-6.197-15.847 0-15.241 10.865-27.981 33.803-27.981 10.937 0 23.262 1.044 34.5 7.206 6.981 3.825 15.49 3.353 21.15-2.247 10.015-9.919 7.05-26.64-5.606-32.85-13.822-6.781-29.654-9.74-48.794-9.74-47.766 0-76.919 27.668-76.919 67.171 0 18.644 5.266 33.263 15.819 43.519 9.919 9.635 23.265 15.55 42.8 18.347M1884.89 165.086h40.628c18.912 0 31.322 12.116 31.322 29.231 0 17.097-12.41 29.229-31.322 29.229h-40.628v-58.46zm0 94.531h31.012l37.091 75.944a22.027 22.027 0 0019.787 12.356c16.5 0 27.141-17.475 19.569-32.131l-32.712-63.322c21.409-7.775 40.315-27.059 40.315-58.147 0-37.006-26.668-67.8-71.637-67.8l-66.51.001c-11.059-.001-20.028 8.968-20.028 20.028v179.812c0 11.909 9.653 21.559 21.56 21.559 11.903 0 21.553-9.65 21.553-21.559v-66.741zM2118.29 347.917c11.906 0 21.553-9.65 21.553-21.553V165.086h38.413c10.653 0 19.284-8.634 19.284-19.284 0-10.65-8.631-19.285-19.284-19.285h-119.922c-10.647 0-19.281 8.635-19.281 19.285s8.634 19.284 19.281 19.284h38.4v161.278c0 11.903 9.65 21.553 21.556 21.553M319.818 411.067L10.815 350.336V237.695h309.003v173.372z" fill="#24275e"/><path d="M647.549 237.691H319.815V0l327.734 64.425v173.266z" fill="#fae34a"/><path d="M647.549 475.49l-327.734-64.425V237.693h327.734V475.49z" fill="#34a7c9"/><path d="M647.549 64.418l309.007 60.688v112.631H647.549V64.418z" fill="#f16179"/></g></svg>