<svg viewBox="0 0 1300 300" xmlns="http://www.w3.org/2000/svg" fill-rule="evenodd" clip-rule="evenodd" stroke-linejoin="round" stroke-miterlimit="2"><path d="M454.546 0s-90.909 0-90.909 90.909v118.182c0 .079-.003.157-.003.236-.036 2.367-.633 22.456-10.355 43.125-12.052 23.095-33.442 38.457-57.825 38.457a57.677 57.677 0 01-18.769-3.141c41.487-24.798 41.497-78.677 41.497-78.677V90.909C318.182 0 409.091 0 409.091 0h-45.454s-90.909 0-90.909 90.909v118.182c0 .079-.003.157-.003.236-.036 2.367-.632 22.456-10.355 43.125-3.42 6.553-7.591 12.484-12.37 17.617-4.778-5.133-8.949-11.063-12.369-17.615-9.723-20.671-10.319-40.76-10.356-43.127l-.002-.236V90.909C227.273 0 136.363 0 136.363 0H90.909s90.909 0 90.909 90.909v118.182s.01 53.879 41.498 78.677a57.683 57.683 0 01-18.77 3.141c-24.383 0-45.771-15.361-57.824-38.455-9.723-20.671-10.32-40.76-10.356-43.127 0-.079-.003-.157-.003-.236V90.909C136.363 0 45.454 0 45.454 0H0s90.909 0 90.909 90.909v118.182s0 90.909 90.909 90.909h136.364c90.909 0 90.909-90.909 90.909-90.909V90.909C409.091 0 500 0 500 0h-45.454z" fill="#f68000" fill-rule="nonzero"/><path d="M510.262 108.2l22.026 62.574 23.662-60.457c.875-2.231 4.041-2.202 4.874.044l22.401 60.413 24.403-62.574h10.263l-32.519 81.529c-.886 2.221-4.046 2.177-4.87-.068l-22.182-60.436-23.763 60.425c-.879 2.234-4.054 2.195-4.876-.061L500 108.2h10.262zM658.949 150c0 19.147 15.143 34.416 33.915 34.416 18.773 0 33.916-15.269 33.916-34.416s-15.143-34.418-33.916-34.418c-18.772 0-33.915 15.271-33.915 34.418m-9.512 0c0-24.906 19.399-43.177 43.427-43.177 24.029 0 43.427 18.272 43.427 43.177 0 24.779-19.273 43.176-43.427 43.176-24.153 0-43.427-18.397-43.427-43.176M785.996 150c0 19.147 15.144 34.416 33.916 34.416s33.915-15.269 33.915-34.416-15.143-34.418-33.915-34.418-33.916 15.271-33.916 34.418m-9.511 0c0-24.906 19.398-43.177 43.427-43.177 24.028 0 43.427 18.272 43.427 43.177 0 24.779-19.274 43.176-43.427 43.176-24.154 0-43.427-18.397-43.427-43.176M917.86 108.2v74.714h23.027v8.761h-32.289V108.2h9.262zM979.58 191.674l12.538-79.523c.403-2.555 3.879-3.028 4.949-.673l28.443 62.55 28.993-62.652c1.088-2.351 4.567-1.849 4.945.714l11.74 79.584h-9.511l-7.884-58.07-26.025 56.408c-.935 2.026-3.817 2.018-4.742-.012l-25.675-56.396-8.26 58.07h-9.511zM1148.2 125.971l-27.908 65.704h-10.263l36.003-81.973c.917-2.089 3.887-2.075 4.784.023l35.053 81.95h-10.262l-27.407-65.704zM1225.66 191.674v-80.468c0-2.353 2.869-3.503 4.493-1.801l60.584 63.496v-64.702h9.261v80.72c0 2.352-2.87 3.502-4.494 1.799l-60.583-63.496v64.452h-9.261z" fill="#221922" fill-rule="nonzero"/></svg>