<?xml version="1.0" encoding="UTF-8" standalone="no"?><!DOCTYPE svg PUBLIC "-//W3C//DTD SVG 1.1//EN" "http://www.w3.org/Graphics/SVG/1.1/DTD/svg11.dtd"><svg width="100%" height="100%" viewBox="0 0 1300 300" version="1.1" xmlns="http://www.w3.org/2000/svg" xmlns:xlink="http://www.w3.org/1999/xlink" xml:space="preserve" xmlns:serif="http://www.serif.com/" style="fill-rule:evenodd;clip-rule:evenodd;stroke-linejoin:round;stroke-miterlimit:2;"><path d="M454.546,0c0,0 -90.909,0 -90.909,90.909l0,118.182c0,0.079 -0.003,0.157 -0.003,0.236c-0.036,2.367 -0.633,22.456 -10.355,43.125c-12.052,23.095 -33.442,38.457 -57.825,38.457c-6.51,0 -12.806,-1.096 -18.769,-3.141c41.487,-24.798 41.497,-78.677 41.497,-78.677l0,-118.182c0,-90.909 90.909,-90.909 90.909,-90.909l-45.454,0c0,0 -90.909,0 -90.909,90.909l0,118.182c0,0.079 -0.003,0.157 -0.003,0.236c-0.036,2.367 -0.632,22.456 -10.355,43.125c-3.42,6.553 -7.591,12.484 -12.37,17.617c-4.778,-5.133 -8.949,-11.063 -12.369,-17.615c-9.723,-20.671 -10.319,-40.76 -10.356,-43.127c0,-0.079 -0.002,-0.157 -0.002,-0.236l0,-118.182c0,-90.909 -90.91,-90.909 -90.91,-90.909l-45.454,0c0,0 90.909,0 90.909,90.909l0,118.182c0,0 0.01,53.879 41.498,78.677c-5.963,2.045 -12.26,3.141 -18.77,3.141c-24.383,0 -45.771,-15.361 -57.824,-38.455c-9.723,-20.671 -10.32,-40.76 -10.356,-43.127c0,-0.079 -0.003,-0.157 -0.003,-0.236l0,-118.182c0,-90.909 -90.909,-90.909 -90.909,-90.909l-45.454,0c0,0 90.909,0 90.909,90.909l0,118.182c0,0 0,90.909 90.909,90.909l136.364,0c90.909,0 90.909,-90.909 90.909,-90.909l0,-118.182c0,-90.909 90.909,-90.909 90.909,-90.909l-45.454,0Z" style="fill:#f68000;fill-rule:nonzero;"/><path d="M510.262,108.2l22.026,62.574l23.662,-60.457c0.875,-2.231 4.041,-2.202 4.874,0.044l22.401,60.413l24.403,-62.574l10.263,0l-32.519,81.529c-0.886,2.221 -4.046,2.177 -4.87,-0.068l-22.182,-60.436l-23.763,60.425c-0.879,2.234 -4.054,2.195 -4.876,-0.061l-29.681,-81.389l10.262,0Z" style="fill:#221922;fill-rule:nonzero;"/><path d="M658.949,150c0,19.147 15.143,34.416 33.915,34.416c18.773,0 33.916,-15.269 33.916,-34.416c0,-19.147 -15.143,-34.418 -33.916,-34.418c-18.772,0 -33.915,15.271 -33.915,34.418m-9.512,0c0,-24.906 19.399,-43.177 43.427,-43.177c24.029,0 43.427,18.272 43.427,43.177c0,24.779 -19.273,43.176 -43.427,43.176c-24.153,0 -43.427,-18.397 -43.427,-43.176" style="fill:#221922;fill-rule:nonzero;"/><path d="M785.996,150c0,19.147 15.144,34.416 33.916,34.416c18.772,0 33.915,-15.269 33.915,-34.416c0,-19.147 -15.143,-34.418 -33.915,-34.418c-18.772,0 -33.916,15.271 -33.916,34.418m-9.511,0c0,-24.906 19.398,-43.177 43.427,-43.177c24.028,0 43.427,18.272 43.427,43.177c0,24.779 -19.274,43.176 -43.427,43.176c-24.154,0 -43.427,-18.397 -43.427,-43.176" style="fill:#221922;fill-rule:nonzero;"/><path d="M917.86,108.2l0,74.714l23.027,0l0,8.761l-32.289,0l0,-83.475l9.262,0Z" style="fill:#221922;fill-rule:nonzero;"/><path d="M979.58,191.674l12.538,-79.523c0.403,-2.555 3.879,-3.028 4.949,-0.673l28.443,62.55l28.993,-62.652c1.088,-2.351 4.567,-1.849 4.945,0.714l11.74,79.584l-9.511,0l-7.884,-58.07l-26.025,56.408c-0.935,2.026 -3.817,2.018 -4.742,-0.012l-25.675,-56.396l-8.26,58.07l-9.511,0Z" style="fill:#221922;fill-rule:nonzero;"/><path d="M1148.2,125.971l-27.908,65.704l-10.263,0l36.003,-81.973c0.917,-2.089 3.887,-2.075 4.784,0.023l35.053,81.95l-10.262,0l-27.407,-65.704Z" style="fill:#221922;fill-rule:nonzero;"/><path d="M1225.66,191.674l0,-80.468c0,-2.353 2.869,-3.503 4.493,-1.801l60.584,63.496l0,-64.702l9.261,0l0,80.72c0,2.352 -2.87,3.502 -4.494,1.799l-60.583,-63.496l0,64.452l-9.261,0Z" style="fill:#221922;fill-rule:nonzero;"/></svg>