<svg width="199" height="62" viewBox="0 0 199 62" fill="none" xmlns="http://www.w3.org/2000/svg">
<path d="M67.176 19.552V24.28H73.848V26.632H67.176V34H64.68V17.2H74.4V19.552H67.176ZM81.0654 22.552C82.2174 22.552 83.2494 22.808 84.1614 23.32C85.0894 23.832 85.8174 24.536 86.3454 25.432C86.8734 26.328 87.1374 27.336 87.1374 28.456C87.1374 29.576 86.8734 30.584 86.3454 31.48C85.8174 32.376 85.0894 33.08 84.1614 33.592C83.2494 34.104 82.2174 34.36 81.0654 34.36C79.9134 34.36 78.8734 34.104 77.9454 33.592C77.0334 33.08 76.3134 32.376 75.7854 31.48C75.2574 30.584 74.9934 29.576 74.9934 28.456C74.9934 27.336 75.2574 26.328 75.7854 25.432C76.3134 24.536 77.0334 23.832 77.9454 23.32C78.8734 22.808 79.9134 22.552 81.0654 22.552ZM81.0654 24.856C80.0094 24.856 79.1454 25.184 78.4734 25.84C77.8174 26.496 77.4894 27.368 77.4894 28.456C77.4894 29.544 77.8174 30.416 78.4734 31.072C79.1454 31.728 80.0094 32.056 81.0654 32.056C82.1214 32.056 82.9774 31.728 83.6334 31.072C84.3054 30.416 84.6414 29.544 84.6414 28.456C84.6414 27.368 84.3054 26.496 83.6334 25.84C82.9774 25.184 82.1214 24.856 81.0654 24.856ZM95.5472 25.336H95.1872C94.0192 25.336 93.1392 25.64 92.5472 26.248C91.9552 26.84 91.6592 27.784 91.6592 29.08V34H89.3072V22.912H91.6592V25.336H91.7072C91.9792 24.488 92.4272 23.816 93.0512 23.32C93.6912 22.824 94.4672 22.576 95.3792 22.576H95.5472V25.336ZM101.564 22.552C103.228 22.552 104.524 23.088 105.452 24.16C106.396 25.216 106.868 26.648 106.868 28.456V28.84H98.2757C98.3237 29.816 98.6517 30.608 99.2597 31.216C99.8837 31.808 100.676 32.104 101.636 32.104C102.436 32.104 103.1 31.92 103.628 31.552C104.172 31.168 104.644 30.704 105.044 30.16L106.7 31.72C105.42 33.48 103.748 34.36 101.684 34.36C100.516 34.36 99.4917 34.12 98.6117 33.64C97.7477 33.144 97.0757 32.456 96.5957 31.576C96.1317 30.68 95.8997 29.648 95.8997 28.48C95.8997 27.36 96.1237 26.352 96.5717 25.456C97.0357 24.544 97.6917 23.832 98.5397 23.32C99.4037 22.808 100.412 22.552 101.564 22.552ZM101.42 24.712C100.604 24.712 99.9317 24.92 99.4037 25.336C98.8757 25.752 98.5397 26.352 98.3957 27.136H104.324C104.276 26.368 103.988 25.776 103.46 25.36C102.948 24.928 102.268 24.712 101.42 24.712ZM112.45 34.36C111.666 34.36 110.874 34.256 110.074 34.048C109.29 33.84 108.578 33.552 107.938 33.184L108.994 31.096C110.21 31.8 111.386 32.152 112.522 32.152C113.674 32.152 114.25 31.808 114.25 31.12C114.25 30.88 114.162 30.672 113.986 30.496C113.826 30.304 113.522 30.096 113.074 29.872L111.058 28.888C109.506 28.152 108.73 27.088 108.73 25.696C108.73 24.688 109.074 23.912 109.762 23.368C110.466 22.824 111.434 22.552 112.666 22.552C113.29 22.552 113.93 22.632 114.586 22.792C115.258 22.936 115.898 23.144 116.506 23.416L115.546 25.456C114.426 24.976 113.442 24.736 112.594 24.736C111.682 24.736 111.226 25.016 111.226 25.576C111.226 25.848 111.314 26.08 111.49 26.272C111.682 26.464 112.018 26.672 112.498 26.896L114.562 27.88C115.298 28.216 115.85 28.64 116.218 29.152C116.586 29.648 116.77 30.264 116.77 31C116.77 32.104 116.378 32.944 115.594 33.52C114.826 34.08 113.778 34.36 112.45 34.36ZM121.938 24.904V30.712C121.938 31.112 122.026 31.408 122.202 31.6C122.394 31.776 122.69 31.864 123.09 31.864H123.666V34.024H122.586C121.61 34.024 120.866 33.776 120.354 33.28C119.842 32.784 119.586 32.08 119.586 31.168V24.904H117.618V22.912H119.586V18.472H121.938V22.912H124.194V24.904H121.938ZM142.964 29.824H135.62L134.012 34H131.276L138.14 17.2H140.444L147.308 34H144.572L142.964 29.824ZM142.076 27.52L139.292 20.32L136.508 27.52H142.076ZM153.308 34.36C152.316 34.36 151.412 34.12 150.596 33.64C149.78 33.16 149.124 32.48 148.628 31.6C148.148 30.704 147.908 29.656 147.908 28.456C147.908 27.256 148.148 26.216 148.628 25.336C149.124 24.44 149.78 23.752 150.596 23.272C151.412 22.792 152.316 22.552 153.308 22.552C154.188 22.552 154.94 22.728 155.564 23.08C156.188 23.432 156.684 23.92 157.052 24.544H157.1V17.2H159.452V34H157.1V32.368H157.052C156.684 32.992 156.188 33.48 155.564 33.832C154.94 34.184 154.188 34.36 153.308 34.36ZM153.812 32.056C154.836 32.056 155.66 31.728 156.284 31.072C156.908 30.4 157.22 29.528 157.22 28.456C157.22 27.384 156.908 26.52 156.284 25.864C155.66 25.192 154.836 24.856 153.812 24.856C152.788 24.856 151.964 25.192 151.34 25.864C150.716 26.52 150.404 27.384 150.404 28.456C150.404 29.528 150.716 30.4 151.34 31.072C151.964 31.728 152.788 32.056 153.812 32.056ZM162.456 22.912H164.808V24.64H164.856C165.16 23.92 165.6 23.392 166.176 23.056C166.768 22.72 167.44 22.552 168.192 22.552C169.808 22.552 170.928 23.304 171.552 24.808H171.6C171.92 24.056 172.392 23.496 173.016 23.128C173.64 22.744 174.328 22.552 175.08 22.552C176.2 22.552 177.112 22.928 177.816 23.68C178.52 24.432 178.872 25.584 178.872 27.136V34H176.52V27.256C176.52 26.488 176.328 25.904 175.944 25.504C175.576 25.104 175.04 24.904 174.336 24.904C173.568 24.904 172.96 25.176 172.512 25.72C172.064 26.248 171.84 27.088 171.84 28.24V34H169.488V27.256C169.488 26.488 169.296 25.904 168.912 25.504C168.544 25.104 168 24.904 167.28 24.904C166.528 24.904 165.928 25.176 165.48 25.72C165.032 26.264 164.808 27.112 164.808 28.264V34H162.456V22.912ZM181.748 22.912H184.1V34H181.748V22.912ZM182.924 17.104C183.404 17.104 183.812 17.272 184.148 17.608C184.484 17.944 184.652 18.352 184.652 18.832C184.652 19.312 184.484 19.72 184.148 20.056C183.812 20.392 183.404 20.56 182.924 20.56C182.444 20.56 182.036 20.392 181.7 20.056C181.364 19.72 181.196 19.312 181.196 18.832C181.196 18.352 181.364 17.944 181.7 17.608C182.036 17.272 182.444 17.104 182.924 17.104ZM193.112 22.552C194.392 22.552 195.408 22.928 196.16 23.68C196.912 24.416 197.288 25.584 197.288 27.184V34H194.936V27.592C194.936 25.8 194.088 24.904 192.392 24.904C191.48 24.904 190.76 25.208 190.232 25.816C189.704 26.424 189.44 27.384 189.44 28.696V34H187.088V22.912H189.44V24.592H189.488C190.256 23.232 191.464 22.552 193.112 22.552Z" fill="#393335"/>
<g filter="url(#filter0_d)">
<rect x="7" y="2" width="48" height="48" rx="4" fill="#EE0036"/>
</g>
<mask id="mask0" mask-type="alpha" maskUnits="userSpaceOnUse" x="7" y="2" width="48" height="48">
<rect x="7" y="2" width="48" height="48" rx="4" fill="white"/>
</mask>
<g mask="url(#mask0)">
<g opacity="0.64">
<g style="mix-blend-mode:multiply">
<path fill-rule="evenodd" clip-rule="evenodd" d="M-8.93967 -13.7842L-8.93967 -53.7356L31.0117 -53.7356L31.0117 -13.7842L-8.93967 -13.7842ZM-8.93967 66.1185V26.1672L31.0117 26.1672V66.1185L-8.93967 66.1185ZM-8.93967 146.021L-8.93967 106.07L31.0117 106.07L31.0117 146.021L-8.93967 146.021ZM110.914 146.021L70.9631 146.021L70.9631 106.07L110.914 106.07V146.021ZM190.817 146.021H150.866V106.07L190.817 106.07L190.817 146.021ZM190.817 26.1672V66.1185H150.866V26.1672H190.817ZM190.817 -53.7355L190.817 -13.7842H150.866L150.866 -53.7356L190.817 -53.7355ZM70.963 -53.7356L110.914 -53.7356V-13.7842L70.9631 -13.7842L70.963 -53.7356ZM70.9631 26.1672V66.1185L110.914 66.1185V26.1672L70.9631 26.1672Z" fill="#283845"/>
</g>
<g style="mix-blend-mode:multiply" opacity="0.658645">
<path fill-rule="evenodd" clip-rule="evenodd" d="M-8.93965 -73.7112C-8.93965 -84.7435 0.00375935 -93.6869 11.036 -93.687C22.0683 -93.687 31.0117 -84.7435 31.0117 -73.7113L31.0117 165.997C31.0117 177.029 22.0683 185.973 11.036 185.973C0.00375379 185.973 -8.93966 177.029 -8.93966 165.997L-8.93965 -73.7112ZM150.866 -73.7112C150.866 -84.7435 159.809 -93.6869 170.841 -93.6869C181.874 -93.6869 190.817 -84.7435 190.817 -73.7113V165.997C190.817 177.029 181.874 185.973 170.841 185.973C159.809 185.973 150.866 177.029 150.866 165.997L150.866 -73.7112ZM90.9388 -93.687C79.9065 -93.6869 70.9631 -84.7435 70.9631 -73.7112L70.9631 165.997C70.9631 177.029 79.9065 185.973 90.9388 185.973C101.971 185.973 110.914 177.029 110.914 165.997L110.914 -73.7113C110.914 -84.7435 101.971 -93.6869 90.9388 -93.687ZM210.793 -53.7356C221.825 -53.7356 230.769 -44.7922 230.769 -33.7599C230.769 -22.7276 221.825 -13.7842 210.793 -13.7842L-28.9153 -13.7842C-39.9476 -13.7842 -48.891 -22.7276 -48.891 -33.7599C-48.891 -44.7921 -39.9476 -53.7356 -28.9153 -53.7356L210.793 -53.7356ZM210.793 106.07C221.825 106.07 230.769 115.013 230.769 126.046C230.769 137.078 221.825 146.021 210.793 146.021L-28.9153 146.021C-39.9476 146.021 -48.891 137.078 -48.891 126.046C-48.891 115.013 -39.9476 106.07 -28.9153 106.07L210.793 106.07ZM230.769 46.1428C230.769 35.1106 221.825 26.1672 210.793 26.1672L-28.9153 26.1672C-39.9476 26.1672 -48.891 35.1106 -48.891 46.1428C-48.891 57.1751 -39.9476 66.1185 -28.9153 66.1185L210.793 66.1185C221.825 66.1185 230.768 57.1751 230.769 46.1428Z" fill="#283845"/>
</g>
</g>
</g>
<path fill-rule="evenodd" clip-rule="evenodd" d="M32.4424 17.8656C38.2303 17.4295 41.7289 14.6733 42.819 11C35.1808 14.5194 25.6498 10.2139 23.8459 17.9903L22.9212 22.1359C24.5299 19.64 26.6548 18.3017 32.4424 17.8656ZM29.4329 18.5715C26.5883 18.9813 24.3065 20.3009 23.0259 22.6187C22.6137 23.3645 22.4689 24.166 22.4689 24.166L21.8143 27.1003C22.6343 25.638 24.1007 23.7693 27.9438 22.8801C28.0303 22.4148 28.5551 19.7476 29.4329 18.5715ZM21.217 29.7777L20.2173 34.2598C22.8661 29.2163 28.5665 28.2374 29.2704 28.0903C34.2343 27.0522 36.6242 24.5875 37.5746 21.3846C33.2433 23.8339 23.1334 20.7584 21.217 29.7777ZM19.7358 36.4193L19 39.718C24.8704 39.3875 25.5178 33.746 26.4757 29.2644C24.6493 29.9019 20.6243 32.4001 19.7358 36.4193Z" fill="white"/>
<defs>
<filter id="filter0_d" x="0" y="0" width="62" height="62" filterUnits="userSpaceOnUse" color-interpolation-filters="sRGB">
<feFlood flood-opacity="0" result="BackgroundImageFix"/>
<feColorMatrix in="SourceAlpha" type="matrix" values="0 0 0 0 0 0 0 0 0 0 0 0 0 0 0 0 0 0 127 0"/>
<feOffset dy="5"/>
<feGaussianBlur stdDeviation="3.5"/>
<feColorMatrix type="matrix" values="0 0 0 0 0.156863 0 0 0 0 0.219608 0 0 0 0 0.270588 0 0 0 0.16 0"/>
<feBlend mode="normal" in2="BackgroundImageFix" result="effect1_dropShadow"/>
<feBlend mode="normal" in="SourceGraphic" in2="effect1_dropShadow" result="shape"/>
</filter>
</defs>
</svg>
