<svg width="196" height="48" viewBox="0 0 196 48" fill="none" xmlns="http://www.w3.org/2000/svg">
<path d="M60.176 17.552V22.28H66.848V24.632H60.176V32H57.68V15.2H67.4V17.552H60.176ZM74.0654 20.552C75.2174 20.552 76.2494 20.808 77.1614 21.32C78.0894 21.832 78.8174 22.536 79.3454 23.432C79.8734 24.328 80.1374 25.336 80.1374 26.456C80.1374 27.576 79.8734 28.584 79.3454 29.48C78.8174 30.376 78.0894 31.08 77.1614 31.592C76.2494 32.104 75.2174 32.36 74.0654 32.36C72.9134 32.36 71.8734 32.104 70.9454 31.592C70.0334 31.08 69.3134 30.376 68.7854 29.48C68.2574 28.584 67.9934 27.576 67.9934 26.456C67.9934 25.336 68.2574 24.328 68.7854 23.432C69.3134 22.536 70.0334 21.832 70.9454 21.32C71.8734 20.808 72.9134 20.552 74.0654 20.552ZM74.0654 22.856C73.0094 22.856 72.1454 23.184 71.4734 23.84C70.8174 24.496 70.4894 25.368 70.4894 26.456C70.4894 27.544 70.8174 28.416 71.4734 29.072C72.1454 29.728 73.0094 30.056 74.0654 30.056C75.1214 30.056 75.9774 29.728 76.6334 29.072C77.3054 28.416 77.6414 27.544 77.6414 26.456C77.6414 25.368 77.3054 24.496 76.6334 23.84C75.9774 23.184 75.1214 22.856 74.0654 22.856ZM88.5472 23.336H88.1872C87.0192 23.336 86.1392 23.64 85.5472 24.248C84.9552 24.84 84.6592 25.784 84.6592 27.08V32H82.3072V20.912H84.6592V23.336H84.7072C84.9792 22.488 85.4272 21.816 86.0512 21.32C86.6912 20.824 87.4672 20.576 88.3792 20.576H88.5472V23.336ZM94.5637 20.552C96.2277 20.552 97.5237 21.088 98.4517 22.16C99.3957 23.216 99.8677 24.648 99.8677 26.456V26.84H91.2757C91.3237 27.816 91.6517 28.608 92.2597 29.216C92.8837 29.808 93.6757 30.104 94.6357 30.104C95.4357 30.104 96.0997 29.92 96.6277 29.552C97.1717 29.168 97.6437 28.704 98.0437 28.16L99.6997 29.72C98.4197 31.48 96.7477 32.36 94.6837 32.36C93.5157 32.36 92.4917 32.12 91.6117 31.64C90.7477 31.144 90.0757 30.456 89.5957 29.576C89.1317 28.68 88.8997 27.648 88.8997 26.48C88.8997 25.36 89.1237 24.352 89.5717 23.456C90.0357 22.544 90.6917 21.832 91.5397 21.32C92.4037 20.808 93.4117 20.552 94.5637 20.552ZM94.4197 22.712C93.6037 22.712 92.9317 22.92 92.4037 23.336C91.8757 23.752 91.5397 24.352 91.3957 25.136H97.3237C97.2757 24.368 96.9877 23.776 96.4597 23.36C95.9477 22.928 95.2677 22.712 94.4197 22.712ZM105.45 32.36C104.666 32.36 103.874 32.256 103.074 32.048C102.29 31.84 101.578 31.552 100.938 31.184L101.994 29.096C103.21 29.8 104.386 30.152 105.522 30.152C106.674 30.152 107.25 29.808 107.25 29.12C107.25 28.88 107.162 28.672 106.986 28.496C106.826 28.304 106.522 28.096 106.074 27.872L104.058 26.888C102.506 26.152 101.73 25.088 101.73 23.696C101.73 22.688 102.074 21.912 102.762 21.368C103.466 20.824 104.434 20.552 105.666 20.552C106.29 20.552 106.93 20.632 107.586 20.792C108.258 20.936 108.898 21.144 109.506 21.416L108.546 23.456C107.426 22.976 106.442 22.736 105.594 22.736C104.682 22.736 104.226 23.016 104.226 23.576C104.226 23.848 104.314 24.08 104.49 24.272C104.682 24.464 105.018 24.672 105.498 24.896L107.562 25.88C108.298 26.216 108.85 26.64 109.218 27.152C109.586 27.648 109.77 28.264 109.77 29C109.77 30.104 109.378 30.944 108.594 31.52C107.826 32.08 106.778 32.36 105.45 32.36ZM114.938 22.904V28.712C114.938 29.112 115.026 29.408 115.202 29.6C115.394 29.776 115.69 29.864 116.09 29.864H116.666V32.024H115.586C114.61 32.024 113.866 31.776 113.354 31.28C112.842 30.784 112.586 30.08 112.586 29.168V22.904H110.618V20.912H112.586V16.472H114.938V20.912H117.194V22.904H114.938ZM135.964 27.824H128.62L127.012 32H124.276L131.14 15.2H133.444L140.308 32H137.572L135.964 27.824ZM135.076 25.52L132.292 18.32L129.508 25.52H135.076ZM146.308 32.36C145.316 32.36 144.412 32.12 143.596 31.64C142.78 31.16 142.124 30.48 141.628 29.6C141.148 28.704 140.908 27.656 140.908 26.456C140.908 25.256 141.148 24.216 141.628 23.336C142.124 22.44 142.78 21.752 143.596 21.272C144.412 20.792 145.316 20.552 146.308 20.552C147.188 20.552 147.94 20.728 148.564 21.08C149.188 21.432 149.684 21.92 150.052 22.544H150.1V15.2H152.452V32H150.1V30.368H150.052C149.684 30.992 149.188 31.48 148.564 31.832C147.94 32.184 147.188 32.36 146.308 32.36ZM146.812 30.056C147.836 30.056 148.66 29.728 149.284 29.072C149.908 28.4 150.22 27.528 150.22 26.456C150.22 25.384 149.908 24.52 149.284 23.864C148.66 23.192 147.836 22.856 146.812 22.856C145.788 22.856 144.964 23.192 144.34 23.864C143.716 24.52 143.404 25.384 143.404 26.456C143.404 27.528 143.716 28.4 144.34 29.072C144.964 29.728 145.788 30.056 146.812 30.056ZM155.456 20.912H157.808V22.64H157.856C158.16 21.92 158.6 21.392 159.176 21.056C159.768 20.72 160.44 20.552 161.192 20.552C162.808 20.552 163.928 21.304 164.552 22.808H164.6C164.92 22.056 165.392 21.496 166.016 21.128C166.64 20.744 167.328 20.552 168.08 20.552C169.2 20.552 170.112 20.928 170.816 21.68C171.52 22.432 171.872 23.584 171.872 25.136V32H169.52V25.256C169.52 24.488 169.328 23.904 168.944 23.504C168.576 23.104 168.04 22.904 167.336 22.904C166.568 22.904 165.96 23.176 165.512 23.72C165.064 24.248 164.84 25.088 164.84 26.24V32H162.488V25.256C162.488 24.488 162.296 23.904 161.912 23.504C161.544 23.104 161 22.904 160.28 22.904C159.528 22.904 158.928 23.176 158.48 23.72C158.032 24.264 157.808 25.112 157.808 26.264V32H155.456V20.912ZM174.748 20.912H177.1V32H174.748V20.912ZM175.924 15.104C176.404 15.104 176.812 15.272 177.148 15.608C177.484 15.944 177.652 16.352 177.652 16.832C177.652 17.312 177.484 17.72 177.148 18.056C176.812 18.392 176.404 18.56 175.924 18.56C175.444 18.56 175.036 18.392 174.7 18.056C174.364 17.72 174.196 17.312 174.196 16.832C174.196 16.352 174.364 15.944 174.7 15.608C175.036 15.272 175.444 15.104 175.924 15.104ZM186.112 20.552C187.392 20.552 188.408 20.928 189.16 21.68C189.912 22.416 190.288 23.584 190.288 25.184V32H187.936V25.592C187.936 23.8 187.088 22.904 185.392 22.904C184.48 22.904 183.76 23.208 183.232 23.816C182.704 24.424 182.44 25.384 182.44 26.696V32H180.088V20.912H182.44V22.592H182.488C183.256 21.232 184.464 20.552 186.112 20.552Z" fill="#233A5E"/>
<rect width="48" height="48" rx="4" fill="#54BD7E"/>
<path fill-rule="evenodd" clip-rule="evenodd" d="M25.4424 15.8656C31.2303 15.4295 34.7289 12.6733 35.819 9C28.1808 12.5194 18.6498 8.21391 16.8459 15.9903L15.9212 20.1359C17.5299 17.64 19.6548 16.3017 25.4424 15.8656ZM22.4329 16.5715C19.5883 16.9813 17.3065 18.3009 16.0259 20.6187C15.6137 21.3645 15.4689 22.166 15.4689 22.166L14.8143 25.1003C15.6343 23.638 17.1007 21.7693 20.9438 20.8801C21.0303 20.4148 21.5551 17.7476 22.4329 16.5715ZM14.217 27.7777L13.2173 32.2598C15.8661 27.2163 21.5665 26.2374 22.2704 26.0903C27.2343 25.0522 29.6242 22.5875 30.5746 19.3846C26.2433 21.8339 16.1334 18.7584 14.217 27.7777ZM12.7358 34.4193L12 37.718C17.8704 37.3875 18.5178 31.746 19.4757 27.2644C17.6493 27.9019 13.6243 30.4001 12.7358 34.4193Z" fill="white"/>
</svg>
