<svg width="1346" height="1100" xmlns="http://www.w3.org/2000/svg"><g fill="none" fill-rule="evenodd"><g fill-rule="nonzero"><path d="M671.432011 192.289445l-31.852893 63.641574c-13.806116 27.5844-47.359758 38.753906-74.944157 24.94779-27.5844-13.806115-38.753906-47.359757-24.94779-74.944157l81.798867-163.4328356c20.590344-41.13918029 79.301603-41.13918029 99.891947 0l81.798867 163.4328356c13.806115 27.5844 2.636609 61.138042-24.94779 74.944157-27.5844 13.806116-61.138042 2.63661-74.944157-24.94779l-31.852894-63.641574z" fill="#2BD9D9"/><path d="M744.97457082 285.92429438c-30.50064658-4.60634757-51.49212364-33.06619026-46.88577639-63.5668378 4.60634852-30.50064688 33.06619122-51.49212395 63.5668378-46.88577638l180.71110367 27.29182172c45.48845143 6.86987508 63.63122822 62.70760053 30.86830923 95.00288712L843.0784215 426.0652583c-21.96799826 21.6544437-57.3309753 21.40025784-78.98541996-.5677401-21.65444401-21.96799921-21.40025784-57.3309753.5677401-78.98541996l50.68364936-49.96022967-70.36982018-10.62757418z" fill="#3DCC3D"/><path d="M760.37475274 465.49994644l-11.63804687-70.20977566c-5.04432105-30.43127976 15.53587465-59.18993586 45.9671536-64.23425631 30.43127917-5.04432185 59.18993527 15.53587384 64.23425631 45.9671536l29.88673663 180.30010863c7.52306567 45.3849971-39.97534063 79.8946093-80.81428272 58.71501327L645.770486 531.89841669c-27.38308518-14.20121759-38.06910093-47.9119551-23.86788415-75.29503968 14.201217-27.38308598 47.9119545-38.06910174 75.29503968-23.86788415l63.1771112 32.76445358z" fill="#FFD426"/><path d="M581.96612426 465.49994644l63.17711039-32.76445416c27.38308598-14.201217 61.09382349-3.51520125 75.29503968 23.86788414 14.20121735 27.383085 3.5152016 61.0938225-23.86788407 75.29503974l-162.24008375 84.13977322c-40.8389421 21.17959602-88.33734759-13.33001557-80.81428273-58.71501327l29.88673744-180.30010804c5.04432104-30.43127976 33.80297714-51.01147545 64.2342555-45.96715419 30.43127976 5.04432104 51.01147546 33.80297714 45.9671536 64.23425631l-11.63804606 70.20977625z" fill="#F7578C"/><path d="M578.21530735 346.51209823c21.96799804 21.65444437 22.2221839 57.01742142.56774008 78.98542005-21.6544448 21.96799836-57.01742183 22.2221842-78.98541993.56774001L369.64100384 297.76638914c-32.76291896-32.29528669-14.62014217-88.13301214 30.86830926-95.00288722l180.71110368-27.29182172c30.50064657-4.60634757 58.96048927 16.3851295 63.56683779 46.88577639 4.60634725 30.50064753-16.38512981 58.96049022-46.8857764 63.56683779L527.531658 296.55186856l50.68364935 49.96022967z" fill="#0AF"/><path d="M592.691057 286.711197c-9.391213.523596-19.042348-1.320966-28.056096-5.832388-27.5844-13.806115-38.753906-47.359757-24.94779-74.944157l13.097434-26.168464 28.435812-4.294507c30.500647-4.606348 58.960489 16.385129 63.566837 46.885776 4.606348 30.500647-16.385129 58.96049-46.885776 63.566838l-5.210421.786902z" fill="#0090D9"/><path d="M790.078434 179.764223l13.098418 26.170429c13.806115 27.5844 2.636609 61.138042-24.94779 74.944157-9.00766 4.508374-18.651846 6.353491-28.037066 5.833445l-5.217425-.787959c-30.500647-4.606348-51.492125-33.066191-46.885777-63.566838 4.606348-30.500647 33.066191-51.492124 63.566838-46.885776l28.422802 4.292542z" fill="#0AAD33"/><path d="M863.698226 405.739765l-20.619805 20.325493c-21.967998 21.654445-57.330975 21.400259-78.985419-.56774-21.654445-21.967998-21.400259-57.330975.567739-78.985419l2.706345-2.667717c7.507003-6.482982 16.83533-11.047738 27.336774-12.788469 30.431279-5.044321 59.189935 15.535875 64.234256 45.967154l4.76011 28.716698z" fill="#3DA909"/><path d="M671.170439 545.071154l-25.399952-13.172739c-27.383086-14.201216-38.069102-47.911954-23.867885-75.295039 9.879881-19.050595 29.202522-30.019679 49.267837-30.149399 20.065315.12972 39.387955 11.098804 49.267836 30.149399 14.201217 27.383085 3.515201 61.093823-23.867884 75.295039l-25.399952 13.172739z" fill="#F74814"/><path d="M478.717814 405.286322l4.684948-28.263255c5.044321-30.431279 33.802977-51.011475 64.234256-45.967154 30.431279 5.044321 51.011474 33.802977 45.967153 64.234257l-1.262648 7.617281c-2.56167 8.245185-7.079422 16.017198-13.558476 22.590067-21.654444 21.967999-57.017421 22.222185-78.98542.56774l-21.079813-20.778936z" fill="#003A8C"/></g><path d="M5.07000056 823.271294H53.4641873c2.800084 0 5.0700005 2.269917 5.0700005 5.070001v22.015008c2.7099256-3.830222 5.4198146-7.660387 8.9427232-11.49061 3.5229085-3.830222 7.7232365-7.250012 12.6011098-10.259473 4.8778734-3.00946 10.4331459-5.471709 16.6659841-7.386821 6.2328381-1.915111 13.0075611-2.872652 20.3243711-2.872652 13.820641 0 26.082889 2.872624 36.787111 8.617957 10.704222 5.745334 18.766142 14.77358 24.186001 27.08501 7.045817-12.858604 15.581967-22.023642 25.608707-27.495388 10.02674-5.471747 22.356735-8.207579 36.990355-8.207579 13.278655 0 24.456947 2.257061 33.535212 6.771252 9.078264 4.514191 16.25947 10.669813 21.543833 18.467052 5.284363 7.797239 9.078207 16.962276 11.381647 27.495388 2.303441 10.533112 3.455143 21.81842 3.455143 33.856262v112.708751c0 2.800084-2.269916 5.070001-5.07 5.070001h-50.833111c-2.800084 0-5.070001-2.269917-5.070001-5.070001V906.578216c0-9.301968-1.964669-17.304278-5.894067-24.007167-3.929398-6.702889-10.907363-10.054284-20.934102-10.054284-7.045817 0-12.939826 1.162729-17.682203 3.488221-4.742377 2.325492-8.536221 5.540095-11.381648 9.643905-2.845426 4.10381-4.877842 8.891516-6.097311 14.363263-1.219468 5.471746-1.829193 11.216993-1.829193 17.235914v100.397384c0 2.800084-2.269917 5.070001-5.070001 5.070001h-50.833111c-2.800084 0-5.07-2.269917-5.07-5.070001V917.248068c0-3.556635-.135495-7.933966-.406488-13.132125-.270993-5.198159-1.219454-10.122657-2.845412-14.773642-1.625958-4.650984-4.268099-8.617941-7.926504-11.900988-3.658405-3.283048-9.010436-4.924548-16.0562533-4.924548-7.858796 0-14.2270351 1.436312-19.1049085 4.308979s-8.6039708 6.702832-11.1784039 11.49061c-2.5744332 4.787778-4.2681138 10.191047-5.0810927 16.209968-.8129789 6.018921-1.2194623 12.311335-1.2194623 18.87743v94.2417c0 2.800084-2.2699165 5.070001-5.0700005 5.070001H5.07000056C2.26991657 1022.715453 0 1020.445536 0 1017.645452V828.341295c0-2.800084 2.26991657-5.070001 5.07000056-5.070001zM525.117799 992.418009c-2.492849 2.863384-4.543982 5.063314-6.1534 6.599787-7.857147 7.501035-16.951107 13.621913-27.282004 18.362731-14.904613 6.839683-30.35098 10.259473-46.339565 10.259473-15.175606 0-29.470271-2.462249-42.884423-7.386821-13.414151-4.924571-25.066674-11.969339-34.957917-21.134514-9.891244-9.165176-17.682174-20.1769-23.373027-33.035504-5.690852-12.858604-8.536235-27.221723-8.536235-43.089788 0-15.868064 2.845383-30.231183 8.536235-43.089787 5.690853-12.858604 13.481783-23.870328 23.373027-33.035504 9.891243-9.165175 21.543766-16.209943 34.957917-21.134514 13.414152-4.924572 27.708817-7.386821 42.884423-7.386821 14.091634 0 26.895859 2.462249 38.41306 7.386821 11.517201 4.924571 21.272802 11.969339 29.267094 21.134514 7.994293 9.165176 14.15929 20.1769 18.495178 33.035504 4.335887 12.858604 6.503798 27.221723 6.503798 43.089787v12.527809c0 3.733446-3.026555 6.760001-6.76 6.760001H396.56434c2.438937 11.764255 7.72322 21.13448 15.853009 28.110957 8.129789 6.976476 18.156378 10.464662 30.080069 10.464662 10.026739 0 18.495143-2.257061 25.405463-6.771252 4.265653-2.786553 8.195676-6.068253 11.790112-9.845143.882183-.926962 1.980801-2.196251 3.295854-3.807865l.000006.000005c1.711569-2.097549 4.769135-2.480328 6.944965-.869444l34.376867 25.451049c2.250444 1.666125 2.724128 4.841131 1.058003 7.091574-.079483.107359-.163178.211534-.250889.312283zm645.569461 0c-2.49285 2.863384-4.54399 5.063314-6.1534 6.599787-7.85715 7.501035-16.95111 13.621913-27.28201 18.362731-14.90461 6.839683-30.35098 10.259473-46.33956 10.259473-15.17561 0-29.47027-2.462249-42.88443-7.386821-13.41415-4.924571-25.06667-11.969339-34.95791-21.134514-9.89125-9.165176-17.682177-20.1769-23.37303-33.035504-5.690852-12.858604-8.536235-27.221723-8.536235-43.089788 0-15.868064 2.845383-30.231183 8.536235-43.089787 5.690853-12.858604 13.48178-23.870328 23.37303-33.035504 9.89124-9.165175 21.54376-16.209943 34.95791-21.134514 13.41416-4.924572 27.70882-7.386821 42.88443-7.386821 14.09163 0 26.89586 2.462249 38.41306 7.386821 11.5172 4.924571 21.2728 11.969339 29.26709 21.134514 7.99429 9.165176 14.15929 20.1769 18.49518 33.035504 4.33589 12.858604 6.5038 27.221723 6.5038 43.089787v12.527809c0 3.733446-3.02656 6.760001-6.76 6.760001H1042.1338c2.43893 11.764255 7.72322 21.13448 15.85301 28.110957 8.12979 6.976476 18.15637 10.464662 30.08006 10.464662 10.02674 0 18.49515-2.257061 25.40547-6.771252 4.26565-2.786553 8.19567-6.068253 11.79011-9.845143.88218-.926962 1.9808-2.196251 3.29585-3.807865l.00001.000005c1.71157-2.097549 4.76914-2.480328 6.94497-.869444l34.37686 25.451049c2.25045 1.666125 2.72413 4.841131 1.05801 7.091574-.07949.107359-.16318.211534-.25089.312283zm-693.638412-91.995477c.270993-10.396318-3.116368-19.287772-10.162185-26.67463-7.045817-7.386857-16.123946-11.080231-27.234657-11.080231-6.774824 0-12.73658 1.094333-17.885446 3.283032-5.148867 2.188698-9.552436 4.992926-13.210841 8.412768-3.658405 3.419841-6.503789 7.386798-8.536236 11.900988-2.032447 4.514191-3.18415 9.233502-3.455143 14.158073h80.484508zm91.892454-77.151238h50.833112c2.800084 0 5.07 2.269917 5.07 5.070001v189.304157c0 2.800084-2.269916 5.070001-5.07 5.070001h-50.833112c-2.800084 0-5.07-2.269917-5.07-5.070001V828.341295c0-2.800084 2.269916-5.070001 5.07-5.070001zm25.546543-18.382562c-19.644342 0-35.569228-16.092841-35.569228-35.944366 0-19.8515252 15.924886-35.944366 35.569228-35.944366s35.569228 16.0928408 35.569228 35.944366c0 19.851525-15.924886 35.944366-35.569228 35.944366zm174.084212 77.066749c-8.942768-11.21708-20.730785-16.825536-35.364405-16.825536-5.148866 0-10.162161 1.231124-15.040034 3.69341-4.877874 2.462286-7.316774 6.702826-7.316774 12.721747 0 4.924572 2.506647 8.549549 7.520017 10.875041 5.01337 2.325493 11.381609 4.377367 19.104909 6.155684 7.723299 1.778318 15.988461 3.6934 24.795732 5.745305 8.807271 2.051905 17.072433 5.266508 24.795732 9.643905 7.7233 4.377397 14.091539 10.327832 19.104909 17.851483 5.01337 7.523652 7.520017 17.577835 7.520017 30.162852 0 12.858604-2.777636 23.459953-8.332992 31.804366-5.555356 8.344414-12.668814 15.047203-21.340589 20.108568-8.671775 5.061365-18.427375 8.617947-29.267094 10.669852-10.839719 2.051905-21.54378 3.077842-32.112506 3.077842-13.820641 0-27.776569-1.983478-41.868204-5.950494-14.091634-3.967017-26.015145-11.011784-35.770892-21.134515l36.990355-41.448272c5.690852 7.11327 11.991344 12.516539 18.901664 16.209968 6.910321 3.693429 14.972241 5.540115 24.186002 5.540115 7.045817 0 13.414056-1.025937 19.104908-3.077842 5.690852-2.051905 8.536236-5.813674 8.536236-11.28542 0-5.198159-2.506647-9.09672-7.520017-11.6958-5.01337-2.599079-11.381609-4.787745-19.104909-6.566062-7.723299-1.778318-15.988461-3.693401-24.795732-5.745305-8.807272-2.051905-17.072433-5.129717-24.795733-9.233526-7.723299-4.10381-14.091538-9.917453-19.104908-17.441105-5.01337-7.523651-7.520017-17.577834-7.520017-30.162851 0-11.764255 2.371153-21.886834 7.11353-30.368041 4.742376-8.481206 10.975121-15.457578 18.698421-20.929325 7.723299-5.471746 16.598186-9.507099 26.624925-12.106178 10.02674-2.59908 20.188824-3.8986 30.486556-3.8986 13.007663 0 26.150625 1.915082 39.42928 5.745305 13.278655 3.830222 24.524694 10.669803 33.738455 20.518946l-37.396842 37.344483zm193.941455-9.438716h-48.586338v66.481387c0 5.471746.270989 10.46464.812975 14.978831.541986 4.51419 1.761436 8.412751 3.658387 11.695799 1.89695 3.283048 4.810081 5.813693 8.739479 7.59201 3.929398 1.778318 9.145934 2.667463 15.649766 2.667463 3.251915 0 7.51999-.341979 12.804353-1.025947 1.615332-.209077 3.330365-.653024 5.145098-1.331841l-.000001-.000002c2.622612-.981012 5.543926.349768 6.524938 2.97238.212505.568104.321344 1.169731.321344 1.776279l.000001 39.352565c0 2.269259-1.507905 4.26215-3.691701 4.879057-7.425909 2.09777-13.241124 3.382476-17.445646 3.854117-7.31681.820762-14.498016 1.231137-21.543833 1.231137-10.297732 0-19.782344-1.094333-28.454119-3.283031-8.671775-2.188699-16.259464-5.676885-22.763295-10.464663-6.503831-4.787778-11.584873-11.011796-15.243278-18.672241-3.658405-7.660445-5.48758-16.962275-5.48758-27.905767v-94.797533H819.00127c-2.800084 0-5.07-2.269916-5.07-5.07v-39.10547c0-2.800084 2.269916-5.070001 5.07-5.070001h33.952792v-54.024565c0-2.800084 2.269916-5.07 5.07-5.07h50.833112c2.800084 0 5.07 2.269916 5.07 5.07v54.024565h48.586338c2.800084 0 5.070001 2.269917 5.070001 5.070001v39.10547c0 2.800084-2.269917 5.07-5.070001 5.07zm159.367838 27.905767c.271-10.396318-3.11637-19.287772-10.16218-26.67463-7.04582-7.386857-16.12395-11.080231-27.23466-11.080231-6.77482 0-12.73658 1.094333-17.88545 3.283032-5.14886 2.188698-9.55243 4.992926-13.21084 8.412768-3.6584 3.419841-6.50378 7.386798-8.53623 11.900988-2.03245 4.514191-3.18415 9.233502-3.45515 14.158073h80.48451zm91.07796-77.151238h50.83311c2.80008 0 5.07 2.269917 5.07 5.070001v26.939555h.81297c6.50384-12.311429 14.22702-21.544862 23.16979-27.700577 8.94277-6.155715 20.1888-9.233526 33.73845-9.233526 3.52291 0 7.04577.136792 10.56868.410379 1.50074.116547 3.37031.382038 5.6087.796474v-.000005c2.40327.44496 4.14699 2.541173 4.14699 4.985278l.00001 45.491329c0 2.80009-2.26992 5.07001-5.07001 5.07001-.41314 0-.82472-.050497-1.22561-.150368-2.68301-.66841-4.85259-1.137454-6.50874-1.407131-4.20039-.683969-8.60396-1.025948-13.21084-1.025948-11.6527 0-20.86632 1.6415-27.64115 4.924548-6.77482 3.283047-11.99136 7.865566-15.64976 13.747694-3.65841 5.882127-6.02956 12.926895-7.11353 21.134514-1.08397 8.20762-1.62595 17.235866-1.62595 27.08501v78.236921c0 2.800084-2.26992 5.070001-5.07 5.070001h-50.83311c-2.80009 0-5.07-2.269917-5.07-5.070001V828.341295c0-2.800084 2.26991-5.070001 5.07-5.070001z" fill="#3D474D"/></g></svg>