<svg xmlns="http://www.w3.org/2000/svg" viewBox="0 0 445.877 50.465"><g fill="#0080c9"><path d="M27.214 10.236v38.73h-9.01v-38.83L0 10.154v-8.56l45.512-.005v8.564m382.068.083v38.73h-9.01v-38.83l-18.205.018v-8.56l45.512-.005v8.564m-247.663.083v38.73h-9.01v-38.83L171 10.154v-8.56l45.512-.005v8.564M392.3 1.59v8.564h-29.04v10.298h24.37v8.103h-24.37v20.412h-9.01V1.59"/><path clip-rule="evenodd" d="M62.422 12.755v7.575h36.556v-7.752c-.038-1.052-.84-1.784-1.46-1.997-7.6-2.617-25.524-2.53-33.457-.048-1.366.428-1.638 1.688-1.638 2.223zm45.6 36.21h-9.046V28.47H62.42v20.494h-9.047V8.66c0-3.19 1.604-5.378 5.682-6.274 14.25-3.13 30.423-2.92 44.01.208 2.557.59 4.958 2.252 4.958 6.098v40.272z" fill-rule="evenodd"/><path d="M334.514 12.437c-.037-1.053-.84-1.783-1.46-1.997-7.6-2.618-26.524-2.532-34.456-.05-1.367.43-1.64 1.69-1.64 2.224l-.005 25.413c.037 1.052.84 1.783 1.46 1.997 7.6 2.617 26.524 2.53 34.456.05 1.366-.43 1.64-1.69 1.64-2.225l.004-25.413zM287.908 8.52c0-3.19 1.604-5.378 5.682-6.274 14.248-3.13 31.422-2.92 45.01.208 2.56.59 4.96 2.253 4.96 6.098v33.394c0 3.19-1.606 5.377-5.683 6.272-14.248 3.13-31.424 2.922-45.01-.208-2.56-.59-4.96-2.253-4.96-6.098V8.52zM228.26 28.477c-3.256 0-5.22-2.22-5.22-5.217V8.662c0-3.53 2.237-5.483 4.444-5.99C235.73.775 242.812.003 250.367.003c8.082 0 15.7 1.04 26.785 3.372v8.87c-16.066-4.72-35.262-4.303-43.158-1.795-1.504.48-1.91 1.48-1.91 2.578v5.88c0 .755.436 1.422 1.467 1.417l38.94.005c3.255 0 5.216 2.22 5.216 5.217v16.26c0 3.53-2.234 5.483-4.44 5.99-8.247 1.896-15.33 2.668-22.884 2.668-8.217 0-15.95-1.075-27.34-3.49l.002-8.916c16.176 4.895 35.725 4.495 43.71 1.96 1.505-.478 1.91-1.48 1.91-2.578V29.9c0-.755-.435-1.422-1.468-1.417l-38.936-.006zm-57.85 20.485h-9.046l.002-16.2c0-.856-.496-1.85-1.706-2.117-14.037-3.118-32.832-2.12-32.832-2.12l-.038 20.44h-9.01V1.497h9.01l.038 18.83s1.038-.017 2.82-.02c3.494-.212 6.428-1.443 9.045-4.346C143.24 10.92 151.73 1.49 151.73 1.49l11.895.058s-10.74 12.04-15.366 17.08c-.857.93-1.66 1.598-2.494 2.084 6.52.34 13.686.957 19.687 2.065 2.58.477 4.958 2.252 4.958 6.098v20.087z"/></g></svg>