<svg id="Layer_1" xmlns="http://www.w3.org/2000/svg" viewBox="0 0 1027.3 605.3"><style>.st0,.st1,.st2,.st3,.st4{fill:none;stroke:#ff4cab;stroke-width:3.5;stroke-miterlimit:10}.st1,.st2,.st3,.st4{stroke:#ff9a1b}.st2,.st3,.st4{stroke:#5ec2ee}.st3,.st4{stroke:#ba9cdb}.st4{stroke:#d74090;stroke-width:36;stroke-linecap:round;stroke-linejoin:round}</style><path class="st0" d="M176.7 145.2c-1.1-.1-2.2-.5-3.2-1.1-3.8-2.2-5-7.1-2.8-10.9l57.6-98.3c2.2-3.8 7.1-5 10.9-2.8 3.8 2.2 5 7.1 2.8 10.9l-57.6 98.3c-1.7 2.8-4.7 4.2-7.7 3.9z"/><path class="st1" d="M210.5 173.9c-32.4 0-58.8-26.4-58.8-58.8V60.8C151.7 28.4 178 2 210.5 2s58.8 26.4 58.8 58.8v54.3c-.1 32.4-26.4 58.8-58.8 58.8zm0-135.7c-12.5 0-22.6 10.1-22.6 22.6v54.3c0 12.5 10.1 22.6 22.6 22.6s22.6-10.1 22.6-22.6V60.8c0-12.5-10.2-22.6-22.6-22.6z"/><path class="st2" d="M210.5 173.9c-10 0-18.1-8.1-18.1-18.1s8.1-18.1 18.1-18.1c12.5 0 22.6-10.2 22.6-22.6V60.8c0-12.5-10.1-22.6-22.6-22.6-10 0-18.1-8.1-18.1-18.1S200.5 2 210.5 2c32.4 0 58.8 26.4 58.8 58.8v54.3c-.1 32.4-26.4 58.7-58.8 58.8z"/><path class="st3" d="M210.5 173.9c-10 0-18.1-8.1-18.1-18.1s8.1-18.1 18.1-18.1c12.5 0 22.6-10.2 22.6-22.6 0-10 8.1-18.1 18.1-18.1 10 0 18.1 8.1 18.1 18.1-.1 32.4-26.4 58.7-58.8 58.8z"/><path class="st0" d="M95.9 123.8V155c0 9.9-8.1 18-18 18s-18-8.1-18-18V22c0-9.9 8.1-18 18-18s18 8.1 18 18v66"/><path class="st3" d="M2 105.9c0-9.9 8.1-18 18-18h93.2c9.9 0 18 8.1 18 18s-8.1 18-18 18H20c-9.9 0-18-8-18-18z"/><path class="st1" d="M9.7 120.5c-8.1-5.7-10.1-16.9-4.4-25.1l58.5-83.6c5.7-8.1 16.9-10.1 25.1-4.4C97 13.1 99 24.3 93.3 32.5L34.7 116c-5.7 8.2-16.9 10.2-25 4.5z"/><path class="st2" d="M98.1 87.9h15.2c9.9 0 18 8.1 18 18s-8.1 18-18 18H98.1c-9.9 0-18-8.1-18-18s8-18 18-18z"/><path class="st0" d="M386.4 123.8V155c0 9.9-8.1 18-18 18s-18-8.1-18-18V22c0-9.9 8.1-18 18-18s18 8.1 18 18v66"/><path class="st3" d="M292.6 105.9c0-9.9 8.1-18 18-18h93.2c9.9 0 18 8.1 18 18s-8.1 18-18 18h-93.2c-10 0-18-8-18-18z"/><path class="st1" d="M300.2 120.5c-8.1-5.7-10.1-16.9-4.4-25.1l58.5-83.6c5.7-8.1 16.9-10.1 25.1-4.4 8.1 5.7 10.1 16.9 4.4 25.1L325.3 116c-5.7 8.2-16.9 10.2-25.1 4.5z"/><path class="st2" d="M388.6 87.9h15.2c9.9 0 18 8.1 18 18s-8.1 18-18 18h-15.2c-9.9 0-18-8.1-18-18 .1-9.9 8.1-18 18-18z"/></svg>