<svg xmlns="http://www.w3.org/2000/svg" viewBox="0 0 1027.35 605.33"><defs><style>.cls-1,.cls-2,.cls-3,.cls-4,.cls-5{fill:none;stroke-miterlimit:10}.cls-1{stroke:#ba9cdb}.cls-1,.cls-2,.cls-3,.cls-4{stroke-width:3.5px}.cls-2{stroke:#5ec2ee}.cls-3{stroke:#ff9a1b}.cls-4{stroke:#ff4cab}.cls-5{stroke:#00c3f0;stroke-width:3.5px}</style></defs><g id="Layer_2" data-name="Layer 2"><g id="bg"><path class="cls-1" d="M527.48 3.11h33A17.86 17.86 0 0 1 578.34 21a17.86 17.86 0 0 1-17.86 17.86h-33A17.86 17.86 0 0 1 509.62 21a17.86 17.86 0 0 1 17.86-17.89z"/><path class="cls-2" d="M527.48 137h33a17.86 17.86 0 0 1 17.86 17.86 17.86 17.86 0 0 1-17.86 17.86h-33a17.86 17.86 0 0 1-17.86-17.86A17.86 17.86 0 0 1 527.48 137z"/><path class="cls-3" d="M526.88 172.75a58.1 58.1 0 0 1-58-58v-53.6a58.1 58.1 0 0 1 58-58 17.86 17.86 0 1 1 0 35.72 22.34 22.34 0 0 0-22.32 22.32v53.56A22.34 22.34 0 0 0 526.88 137a17.86 17.86 0 1 1 0 35.72z"/><path class="cls-4" d="M505.8 74.53h37.7a13.39 13.39 0 0 1 13.4 13.39 13.39 13.39 0 0 1-13.4 13.39h-37.7a13.39 13.39 0 0 1-13.4-13.39 13.39 13.39 0 0 1 13.4-13.39z"/><path class="cls-2" d="M157.05 387.42a17.75 17.75 0 0 1-6-1 58.16 58.16 0 0 1-38.71-54.74v-40.21a17.86 17.86 0 0 1 35.72 0v40.18A22.38 22.38 0 0 0 163 352.71a17.87 17.87 0 0 1-6 34.71z"/><path class="cls-3" d="M170.32 389.69a57.69 57.69 0 0 1-19.27-3.3 17.86 17.86 0 1 1 11.89-33.68 22 22 0 0 0 7.37 1.26 22.29 22.29 0 0 0 22.35-22.31v-18.35a17.86 17.86 0 1 1 35.72 0v18.34a58 58 0 0 1-58 58z"/><path class="cls-1" d="M210.55 329.19a17.86 17.86 0 0 1-17.86-17.86v-33.24a22.19 22.19 0 0 0-8.28-17.37 17.86 17.86 0 1 1 22.45-27.78 57.73 57.73 0 0 1 21.55 45.16v33.23a17.85 17.85 0 0 1-17.86 17.86z"/><path class="cls-4" d="M130.19 309.33a17.85 17.85 0 0 1-17.85-17.86v-13.38a58.1 58.1 0 0 1 58-58h.11a58.05 58.05 0 0 1 36.4 12.9 17.86 17.86 0 0 1-22.49 27.76 22.24 22.24 0 0 0-13.94-4.94 22.36 22.36 0 0 0-22.36 22.32v13.38a17.85 17.85 0 0 1-17.87 17.82zM19.72 79.05A17.86 17.86 0 0 1 1.86 61.19v.56a58.13 58.13 0 0 1 58-58H60a58 58 0 0 1 36.4 12.9 17.86 17.86 0 0 1-22.51 27.76A22.15 22.15 0 0 0 60 39.47h-.05a22.36 22.36 0 0 0-22.33 22.3v-.58a17.86 17.86 0 0 1-17.9 17.86z"/><path class="cls-2" d="M46.5 171.12a18 18 0 0 1-6-1 58.13 58.13 0 0 1-38.7-54.88v-54a17.86 17.86 0 0 1 35.72 0v54.06a22.37 22.37 0 0 0 14.89 21.16 17.87 17.87 0 0 1-6 34.71zM188.48 171.12a17.79 17.79 0 0 1-6-1 58.15 58.15 0 0 1-38.65-54.74V64.87a17.86 17.86 0 0 1 35.72 0v50.48a22.37 22.37 0 0 0 14.87 21.07 17.87 17.87 0 0 1-6 34.7z"/><path class="cls-3" d="M201.8 173.39a58 58 0 0 1-19.25-3.29 17.86 17.86 0 0 1 11.85-33.7 23.27 23.27 0 0 0 7.45 1.27 22.35 22.35 0 0 0 22.35-22.32V97a17.86 17.86 0 0 1 35.72 0v18.34a58.11 58.11 0 0 1-58 58zM60 173.39h-.22a57.58 57.58 0 0 1-19.19-3.3 17.86 17.86 0 0 1 11.89-33.68 22 22 0 0 0 7.37 1.26h.08a22.1 22.1 0 0 0 17.18-8.09 17.86 17.86 0 0 1 27.61 22.66A57.63 57.63 0 0 1 60 173.39z"/><path class="cls-1" d="M242.06 112.89A17.86 17.86 0 0 1 224.2 95V61.75a22.23 22.23 0 0 0-8.29-17.33 17.86 17.86 0 1 1 22.45-27.78 57.78 57.78 0 0 1 21.56 45.1V95a17.86 17.86 0 0 1-17.86 17.89z"/><path class="cls-4" d="M161.72 85.05a17.86 17.86 0 0 1-17.86-17.86v-5.44a58.08 58.08 0 0 1 58-58h.14a58 58 0 0 1 36.39 12.9 17.86 17.86 0 0 1-22.49 27.76 21.64 21.64 0 0 0-14-4.94 22.33 22.33 0 0 0-22.33 22.29v5.43a17.86 17.86 0 0 1-17.85 17.86z"/><path class="cls-2" d="M186.39 601.29a17.82 17.82 0 0 1-6-1 58.15 58.15 0 0 1-38.65-54.74v-50.5a17.86 17.86 0 0 1 35.72 0v50.48a22.38 22.38 0 0 0 14.87 21.07 17.86 17.86 0 0 1-6 34.69z"/><path class="cls-3" d="M199.72 603.57a58.05 58.05 0 0 1-19.26-3.29 17.86 17.86 0 1 1 11.86-33.7 23.27 23.27 0 0 0 7.45 1.27 22.35 22.35 0 0 0 22.34-22.32v-18.34a17.86 17.86 0 1 1 35.72 0v18.34a58.11 58.11 0 0 1-58 58z"/><path class="cls-1" d="M240 543.07a17.86 17.86 0 0 1-17.86-17.86v-33.28a22.19 22.19 0 0 0-8.28-17.33 17.86 17.86 0 0 1 22.44-27.78 57.78 57.78 0 0 1 21.56 45.1v33.29A17.86 17.86 0 0 1 240 543.07z"/><path class="cls-4" d="M159.63 515.23a17.86 17.86 0 0 1-17.86-17.86v-5.44a58.1 58.1 0 0 1 58-58h.12a58 58 0 0 1 36.38 12.9 17.86 17.86 0 0 1-22.48 27.76 21.68 21.68 0 0 0-14-4.94 22.34 22.34 0 0 0-22.34 22.29v5.43a17.86 17.86 0 0 1-17.82 17.86z"/><circle class="cls-1" cx="85.21" cy="30.65" r="17.71"/><path class="cls-4" d="M19.63 509.23a17.86 17.86 0 0 1-17.86-17.86v.56a58.13 58.13 0 0 1 58-58h.12a58 58 0 0 1 36.39 12.9 17.86 17.86 0 0 1-22.48 27.76 22.18 22.18 0 0 0-13.94-4.94A22.36 22.36 0 0 0 37.49 492v-.58a17.86 17.86 0 0 1-17.86 17.81z"/><path class="cls-2" d="M46.41 601.29a17.94 17.94 0 0 1-5.95-1 58.13 58.13 0 0 1-38.71-54.91v-54a17.86 17.86 0 0 1 35.72 0v54.06a22.38 22.38 0 0 0 14.89 21.16 17.86 17.86 0 0 1-6 34.7z"/><path class="cls-3" d="M59.87 603.57h-.22a57.52 57.52 0 0 1-19.18-3.3 17.86 17.86 0 1 1 11.88-33.68 22.09 22.09 0 0 0 7.37 1.26h.09A22.12 22.12 0 0 0 77 559.76a17.86 17.86 0 0 1 27.6 22.66 57.62 57.62 0 0 1-44.73 21.15z"/><circle class="cls-1" cx="85.12" cy="460.83" r="17.71"/><rect class="cls-2" x="266.34" y="218.69" width="36" height="171" rx="18"/><path class="cls-4" d="M324.84 172.75a18 18 0 0 1-18-18v-135a18 18 0 0 1 18-18 18 18 0 0 1 18 18v117"/><path class="cls-3" d="M365.34 172.75a58.57 58.57 0 0 0 58.5-58.5v-54a58.57 58.57 0 0 0-58.5-58.5 16.67 16.67 0 0 0-2.25.16 16.78 16.78 0 0 0-2.25-.16h-36a18 18 0 0 0 0 36h36a16.78 16.78 0 0 0 2.25-.16 16.67 16.67 0 0 0 2.25.16 22.53 22.53 0 0 1 22.5 22.5v54a22.53 22.53 0 0 1-22.5 22.5M387.84 91.75a18 18 0 0 0 18 18M405.84 109.75a18 18 0 0 0 18-18"/><path class="cls-5" d="M405.84 73.75a18 18 0 0 0-18 18v22.5a22.53 22.53 0 0 1-22.5 22.5 16.67 16.67 0 0 0-2.25.16 16.78 16.78 0 0 0-2.25-.16h-36a18 18 0 0 0 0 36h36a16.78 16.78 0 0 0 2.25-.16 16.67 16.67 0 0 0 2.25.16 58.57 58.57 0 0 0 58.5-58.5v-22.5a18 18 0 0 0-18-18z"/><rect class="cls-4" x="290.11" y="290.69" width="63" height="27" rx="13.5"/><path class="cls-1" d="M324.82 136.75H340a18 18 0 0 1 18 18 18 18 0 0 1-18 18h-15.2a18 18 0 0 1-18-18 18 18 0 0 1 18.02-18z"/><path class="cls-2" d="M980 452.69v131.92a17.86 17.86 0 0 1-17.86 17.86 17.86 17.86 0 0 1-17.86-17.86V452.69"/><path class="cls-4" d="M962.1 434.09A17.86 17.86 0 0 1 980 452v42.86a17.86 17.86 0 0 1-17.86 17.86 17.86 17.86 0 0 1-17.86-17.86V452a17.85 17.85 0 0 1 17.82-17.91z"/><path class="cls-3" d="M1007.74 468.53h-91.28a17.86 17.86 0 0 1 0-35.72h91.28a17.86 17.86 0 0 1 0 35.72z"/><path class="cls-1" d="M962.1 545.25a17.86 17.86 0 0 1 17.9 17.86v21.44a17.86 17.86 0 0 1-17.86 17.86 17.86 17.86 0 0 1-17.86-17.86v-21.44a17.85 17.85 0 0 1 17.82-17.86z"/><path class="cls-3" d="M623.74 538.81v-89a18 18 0 0 1 18-18 18 18 0 0 1 18 18V547a18 18 0 0 1-17.9 18.1h-.1"/><path class="cls-3" d="M659.74 458.11v89a18 18 0 0 1-18 18 18 18 0 0 1-18-18v-97.22"/><path class="cls-2" d="M741.21 469.89v77.24a18 18 0 0 1-18 18 18 18 0 0 1-18.09-17.9v-71.44"/><path class="cls-2" d="M705.12 547v-97.21a18 18 0 0 1 18-18 18 18 0 0 1 18.1 17.9v91.44"/><rect class="cls-1" x="705.44" y="431.69" width="36.18" height="58.06" rx="18.08"/><path class="cls-4" d="M682.55 603.58a58.86 58.86 0 0 1-58.82-58.79 18.09 18.09 0 1 1 36.18 0 22.61 22.61 0 0 0 45.22 0 18.09 18.09 0 0 1 18.08-18.1 18.08 18.08 0 0 1 18.08 18.08 58.78 58.78 0 0 1-58.75 58.82zM793.21 509.23a17.87 17.87 0 0 1-17.87-17.86v.56a58.14 58.14 0 0 1 58-58h.11a58.05 58.05 0 0 1 36.4 12.9 17.86 17.86 0 0 1-22.49 27.76 22.17 22.17 0 0 0-13.93-4.94h-.05A22.36 22.36 0 0 0 811.07 492v-.58a17.86 17.86 0 0 1-17.86 17.81z"/><path class="cls-2" d="M820 601.29a18 18 0 0 1-6-1 58.12 58.12 0 0 1-38.7-54.89v-54a17.86 17.86 0 1 1 35.72 0v54.06a22.37 22.37 0 0 0 14.89 21.16 17.86 17.86 0 0 1-6 34.7z"/><path class="cls-3" d="M833.45 603.57h-.22a57.58 57.58 0 0 1-19.19-3.3 17.86 17.86 0 1 1 11.89-33.68 22 22 0 0 0 7.37 1.26h.08a22.1 22.1 0 0 0 17.18-8.09 17.86 17.86 0 0 1 27.61 22.66 57.63 57.63 0 0 1-44.72 21.15z"/><circle class="cls-1" cx="858.7" cy="460.83" r="17.71"/><path class="cls-4" d="M488.73 603.14a18 18 0 0 1-18-18v-135a18 18 0 0 1 18-18 18 18 0 0 1 18 18v117"/><path class="cls-3" d="M529.23 603.14a58.58 58.58 0 0 0 58.5-58.5v-54a58.57 58.57 0 0 0-58.5-58.5 18.35 18.35 0 0 0-2.25.15 18.62 18.62 0 0 0-2.25-.15h-36a18 18 0 0 0 0 36h36A18.62 18.62 0 0 0 527 468a18.33 18.33 0 0 0 2.25.16 22.53 22.53 0 0 1 22.5 22.5v54a22.53 22.53 0 0 1-22.5 22.5M551.73 522.14a18 18 0 0 0 18 18M569.73 540.14a18 18 0 0 0 18-18"/><path class="cls-5" d="M569.73 504.14a18 18 0 0 0-18 18v22.5a22.53 22.53 0 0 1-22.5 22.5 18.35 18.35 0 0 0-2.25.15 18.62 18.62 0 0 0-2.25-.15h-36a18 18 0 1 0 0 36h36A18.62 18.62 0 0 0 527 603a18.33 18.33 0 0 0 2.25.16 58.58 58.58 0 0 0 58.5-58.5v-22.5a18 18 0 0 0-18.02-18.02z"/><path class="cls-1" d="M488.71 567.14h15.22a18 18 0 0 1 18 18 18 18 0 0 1-18 18h-15.2a18 18 0 0 1-18-18 18 18 0 0 1 17.98-18z"/><path class="cls-3" d="M284.34 254.69a18 18 0 0 1 0-36h71.15a18 18 0 1 1 0 36z"/><rect class="cls-2" x="308.45" y="432.14" width="36" height="171" rx="18"/><rect class="cls-3" x="308.45" y="531.14" width="36" height="72" rx="18"/><path class="cls-4" d="M388.45 565.13v-22.06M388.45 537.4v-87.26a18 18 0 0 1 18-18 18 18 0 0 1 18 18v135a18 18 0 0 1-18 18 18 18 0 0 1-18-18v-20M388.45 565.13V537.4"/><path class="cls-1" d="M406.46 603.14a18 18 0 0 1-15.5-8.83l-80-135a18 18 0 0 1 31-18.35l80 135a18 18 0 0 1-15.47 27.18z"/><rect class="cls-5" x="388.45" y="432.14" width="36" height="70.21" rx="18"/></g></g></svg>