<?xml version="1.0" encoding="utf-8"?>
<!-- Generator: Adobe Illustrator 24.0.3, SVG Export Plug-In . SVG Version: 6.00 Build 0)  -->
<svg version="1.1" id="Layer_1" xmlns="http://www.w3.org/2000/svg" xmlns:xlink="http://www.w3.org/1999/xlink" x="0px" y="0px"
	 viewBox="0 0 1027.3 605.3" style="enable-background:new 0 0 1027.3 605.3;" xml:space="preserve">
<style type="text/css">
	.st0{fill:none;stroke:#BA9CDB;stroke-width:3.5;stroke-miterlimit:10;}
	.st1{fill:none;stroke:#5EC2EE;stroke-width:3.5;stroke-miterlimit:10;}
	.st2{fill:none;stroke:#FF9A1B;stroke-width:3.5;stroke-miterlimit:10;}
	.st3{fill:none;stroke:#FF4CAB;stroke-width:3.5;stroke-miterlimit:10;}
	.st4{fill:none;stroke:#00C3F0;stroke-width:3.5;stroke-miterlimit:10;}
</style>
<g id="Layer_2_1_">
	<g id="bg">
		<path class="st0" d="M504.5,3.1h33c9.9,0,17.9,8,17.9,17.9c0,0,0,0,0,0c0,9.9-8,17.9-17.9,17.9h-33c-9.9,0-17.9-8-17.9-17.9
			c0,0,0,0,0,0C486.6,11.1,494.6,3.1,504.5,3.1C504.5,3.1,504.5,3.1,504.5,3.1z"/>
		<path class="st1" d="M504.5,137h33c9.9,0,17.9,8,17.9,17.9s-8,17.9-17.9,17.9h-33c-9.9,0-17.9-8-17.9-17.9S494.6,137,504.5,137z"
			/>
		<path class="st2" d="M503.9,172.8c-32-0.1-57.9-26-58-58V61.1c0.1-32,26-57.9,58-58c9.9,0,17.9,8,17.9,17.9s-8,17.9-17.9,17.9
			c-12.3,0-22.3,10-22.3,22.3v53.6c0,12.3,10,22.2,22.3,22.3c9.9,0,17.9,8,17.9,17.9S513.7,172.7,503.9,172.8L503.9,172.8z"/>
		<path class="st3" d="M482.8,74.5h37.7c7.4,0,13.4,6,13.4,13.4c0,0,0,0,0,0c0,7.4-6,13.4-13.4,13.4c0,0,0,0,0,0h-37.7
			c-7.4,0-13.4-6-13.4-13.4c0,0,0,0,0,0C469.4,80.5,475.4,74.5,482.8,74.5C482.8,74.5,482.8,74.5,482.8,74.5z"/>
		<path class="st1" d="M157.1,387.4c-2,0-4.1-0.3-6-1c-23.2-8.2-38.7-30.1-38.7-54.7v-40.2c0-9.9,8-17.9,17.9-17.8
			c9.9,0,17.8,8,17.8,17.8v40.2c0,9.5,6,17.9,14.9,21.1c9.3,3.3,14.2,13.5,10.9,22.8C171.3,382.7,164.6,387.4,157.1,387.4
			L157.1,387.4z"/>
		<path class="st2" d="M170.3,389.7c-6.6,0-13.1-1.1-19.3-3.3c-9.3-3.2-14.3-13.3-11.2-22.6s13.3-14.3,22.6-11.2
			c0.1,0,0.3,0.1,0.4,0.2c2.4,0.8,4.9,1.3,7.4,1.3c12.3,0,22.3-9.9,22.3-22.2c0,0,0-0.1,0-0.1v-18.4c0-9.9,8-17.9,17.9-17.9
			s17.9,8,17.9,17.9v18.3C228.4,363.7,202.4,389.7,170.3,389.7L170.3,389.7L170.3,389.7z"/>
		<path class="st0" d="M210.6,329.2c-9.9,0-17.9-8-17.9-17.9v-33.2c0-6.7-3-13.1-8.3-17.4c-7.7-6.1-9.1-17.3-3-25.1
			c6.1-7.7,17.3-9.1,25.1-3c0.1,0.1,0.2,0.2,0.3,0.3c13.7,11,21.6,27.6,21.6,45.2v33.2C228.4,321.2,220.4,329.2,210.6,329.2
			C210.6,329.2,210.6,329.2,210.6,329.2L210.6,329.2z"/>
		<path class="st3" d="M130.2,309.3c-9.9,0-17.8-8-17.8-17.9c0,0,0,0,0,0v-13.4c0.1-32,26-57.9,58-58h0.1c13.2,0,26.1,4.6,36.4,12.9
			c7.7,6.2,8.8,17.5,2.6,25.1c-6.2,7.7-17.5,8.8-25.1,2.6c-3.9-3.2-8.9-4.9-13.9-4.9c-12.3,0-22.3,10-22.4,22.3v13.4
			C148,301.4,140,309.3,130.2,309.3z M19.7,79c-9.9,0-17.9-8-17.9-17.9c0,0,0,0,0,0v0.6c0.1-32,26-57.9,58-58H60
			c13.3,0,26.1,4.6,36.4,12.9c7.7,6.2,8.8,17.5,2.6,25.1s-17.5,8.8-25.1,2.6c-3.9-3.2-8.8-4.9-13.9-4.9h0c-12.3,0-22.3,10-22.3,22.3
			v-0.6C37.6,71.1,29.6,79.1,19.7,79C19.7,79.1,19.7,79.1,19.7,79z"/>
		<path class="st1" d="M46.5,171.1c-2,0-4.1-0.3-6-1c-23.2-8.2-38.7-30.2-38.7-54.9v-54c0-9.9,8-17.9,17.9-17.9s17.9,8,17.9,17.9
			v54.1c0,9.5,5.9,18,14.9,21.2c9.3,3.3,14.2,13.5,10.9,22.8C60.7,166.4,54,171.2,46.5,171.1L46.5,171.1z M181.5,171.1
			c-2,0-4.1-0.3-6-1c-23.2-8.2-38.6-30.2-38.7-54.7V64.9c0-9.9,8-17.9,17.9-17.9s17.9,8,17.9,17.9v50.5c0,9.5,6,17.9,14.9,21.1
			c9.3,3.3,14.1,13.5,10.8,22.8C195.7,166.4,189,171.1,181.5,171.1L181.5,171.1z"/>
		<path class="st2" d="M194.8,173.4c-6.6,0-13.1-1.1-19.2-3.3c-9.3-3.3-14.2-13.5-10.9-22.8c3.3-9.3,13.5-14.2,22.8-10.9l0,0
			c2.4,0.8,4.9,1.3,7.4,1.3c12.3,0,22.3-10,22.4-22.3V97c0-9.9,8-17.9,17.9-17.9s17.9,8,17.9,17.9v18.3c-0.1,32-26,57.9-58,58
			L194.8,173.4z M60,173.4h-0.2c-6.5,0-13-1.1-19.2-3.3c-9.3-3.4-14-13.7-10.6-22.9c3.3-9.1,13.3-13.9,22.5-10.8
			c2.4,0.8,4.9,1.3,7.4,1.3h0.1c6.7,0,13-2.9,17.2-8.1c6.3-7.6,17.6-8.6,25.2-2.2c7.5,6.2,8.5,17.3,2.4,24.9
			C93.8,165.7,77.3,173.4,60,173.4z"/>
		<path class="st0" d="M235.1,112.9c-9.9,0-17.9-8-17.9-17.9c0,0,0,0,0,0V61.7c0-6.7-3-13.1-8.3-17.3c-7.7-6.1-9.1-17.3-3-25.1
			s17.3-9.1,25.1-3c0.1,0.1,0.2,0.2,0.3,0.3c13.7,11,21.6,27.6,21.6,45.1V95C252.9,104.9,245,112.9,235.1,112.9
			C235.1,112.9,235.1,112.9,235.1,112.9L235.1,112.9z"/>
		<path class="st3" d="M154.7,85c-9.9,0-17.9-8-17.9-17.9l0,0v-5.4c0-32,26-58,58-58h0.1c13.2,0,26.1,4.6,36.4,12.9
			c7.7,6.2,8.8,17.5,2.6,25.1c-6.2,7.7-17.5,8.8-25.1,2.6l0,0c-3.9-3.2-8.9-5-14-4.9c-12.3,0-22.3,10-22.3,22.3v5.4
			C172.6,77,164.6,85,154.7,85L154.7,85z"/>
		<path class="st1" d="M182.4,601.3c-2,0-4.1-0.3-6-1c-23.2-8.2-38.6-30.2-38.7-54.7V495c0-9.9,8-17.9,17.9-17.9s17.9,8,17.9,17.9
			v50.5c0,9.5,6,17.9,14.9,21.1c9.3,3.3,14.2,13.5,10.9,22.8C196.6,596.5,189.9,601.3,182.4,601.3L182.4,601.3z"/>
		<path class="st2" d="M195.7,603.6c-6.6,0-13.1-1.1-19.3-3.3c-9.3-3.3-14.2-13.5-10.9-22.8c3.3-9.3,13.5-14.2,22.8-10.9
			c2.4,0.8,4.9,1.3,7.4,1.3c12.3,0,22.3-10,22.3-22.3v-18.3c0-9.9,8-17.9,17.9-17.9c9.9,0,17.9,8,17.9,17.9v18.3
			c-0.1,32-26,57.9-58,58L195.7,603.6z"/>
		<path class="st0" d="M236,543.1c-9.9,0-17.9-8-17.9-17.9v-33.3c0-6.7-3-13.1-8.3-17.3c-7.5-6.4-8.5-17.6-2.1-25.2
			c6.2-7.3,17-8.4,24.5-2.6c13.7,11,21.6,27.6,21.6,45.1v33.3C253.9,535.1,245.9,543.1,236,543.1L236,543.1z"/>
		<path class="st3" d="M155.6,515.2c-9.9,0-17.9-8-17.9-17.9v-5.4c0.1-32,26-57.9,58-58h0.1c13.2,0,26.1,4.6,36.4,12.9
			c7.7,6.2,8.8,17.5,2.6,25.1c-6.2,7.7-17.5,8.8-25.1,2.6c-3.9-3.2-8.9-5-14-4.9c-12.3,0-22.3,10-22.3,22.3v5.4
			C173.5,507.2,165.5,515.2,155.6,515.2z"/>
		<circle class="st0" cx="85.2" cy="30.6" r="17.7"/>
		<path class="st3" d="M19.6,509.2c-9.9,0-17.9-8-17.9-17.9c0,0,0,0,0,0v0.6c0.1-32,26-57.9,58-58h0.1c13.2,0,26.1,4.6,36.4,12.9
			c7.7,6.2,8.8,17.5,2.6,25.1s-17.5,8.8-25.1,2.6c-3.9-3.2-8.9-4.9-13.9-4.9c-12.3,0-22.4,10-22.4,22.4l0,0v-0.6
			C37.5,501.3,29.5,509.2,19.6,509.2z"/>
		<path class="st1" d="M46.4,601.3c-2,0-4-0.3-6-1C17.2,592.1,1.7,570,1.8,545.4v-54c0-9.9,8-17.9,17.9-17.9s17.9,8,17.9,17.9v54.1
			c0,9.5,5.9,18,14.9,21.2c9.3,3.3,14.2,13.5,10.9,22.8C60.7,596.5,53.9,601.3,46.4,601.3L46.4,601.3z"/>
		<path class="st2" d="M59.9,603.6h-0.2c-6.5,0-13-1.1-19.2-3.3c-9.4-3.1-14.4-13.2-11.3-22.6c3.1-9.4,13.2-14.4,22.6-11.3
			c0.2,0.1,0.4,0.1,0.6,0.2c2.4,0.8,4.9,1.3,7.4,1.3h0.1c6.7,0,13-2.9,17.2-8.1c6.4-7.5,17.7-8.3,25.2-1.9c7.2,6.2,8.3,17,2.4,24.5
			C93.6,595.8,77.2,603.6,59.9,603.6z"/>
		<circle class="st0" cx="85.1" cy="460.8" r="17.7"/>
		<path class="st1" d="M284.3,218.7L284.3,218.7c9.9,0,18,8.1,18,18v135c0,9.9-8.1,18-18,18l0,0c-9.9,0-18-8.1-18-18v-135
			C266.3,226.7,274.4,218.7,284.3,218.7z"/>
		<path class="st3" d="M310.8,172.8c-9.9,0-18-8.1-18-18v-135c0-9.9,8.1-18,18-18s18,8.1,18,18v117"/>
		<path class="st2" d="M351.3,172.8c32.3,0,58.5-26.2,58.5-58.5v-54c0-32.3-26.2-58.5-58.5-58.5c-0.8,0-1.5,0.1-2.2,0.2
			c-0.7-0.1-1.5-0.2-2.2-0.2h-36c-9.9,0-18,8.1-18,18s8.1,18,18,18h36c0.8,0,1.5-0.1,2.2-0.2c0.7,0.1,1.5,0.2,2.2,0.2
			c12.4,0,22.5,10.1,22.5,22.5v54c0,12.4-10.1,22.5-22.5,22.5 M373.8,91.7c0,9.9,8.1,18,18,18 M391.8,109.7c9.9,0,18-8.1,18-18"/>
		<path class="st4" d="M391.8,73.7c-9.9,0-18,8.1-18,18v22.5c0,12.4-10.1,22.5-22.5,22.5c-0.8,0-1.5,0.1-2.2,0.2
			c-0.7-0.1-1.5-0.2-2.2-0.2h-36c-9.9,0-18,8.1-18,18c0,9.9,8.1,18,18,18h36c0.8,0,1.5-0.1,2.2-0.2c0.7,0.1,1.5,0.2,2.2,0.2
			c32.3,0,58.5-26.2,58.5-58.5V91.7C409.8,81.8,401.8,73.7,391.8,73.7z"/>
		<path class="st3" d="M303.6,290.7h36c7.5,0,13.5,6,13.5,13.5l0,0c0,7.5-6,13.5-13.5,13.5h-36c-7.5,0-13.5-6-13.5-13.5l0,0
			C290.1,296.7,296.2,290.7,303.6,290.7z"/>
		<path class="st0" d="M310.8,136.8H326c9.9,0,18,8.1,18,18s-8.1,18-18,18h-15.2c-9.9,0-18-8.1-18-18S300.9,136.8,310.8,136.8
			C310.8,136.7,310.8,136.8,310.8,136.8L310.8,136.8z"/>
		<path class="st1" d="M967,452.7v131.9c0,9.9-8,17.9-17.9,17.9s-17.9-8-17.9-17.9V452.7"/>
		<path class="st3" d="M949.1,434.1c9.9,0,17.9,8,17.9,17.8c0,0,0,0.1,0,0.1v42.9c0,9.9-8,17.9-17.9,17.9s-17.9-8-17.9-17.9V452
			C931.2,442.1,939.2,434.1,949.1,434.1C949.1,434.1,949.1,434.1,949.1,434.1L949.1,434.1z"/>
		<path class="st2" d="M994.7,468.5h-91.3c-9.9,0-17.9-8-17.9-17.9c0-9.9,8-17.9,17.9-17.9h91.3c9.9,0,17.9,8,17.9,17.9
			C1012.6,460.5,1004.6,468.5,994.7,468.5z"/>
		<path class="st0" d="M949.1,545.2c9.9,0,17.9,8,17.9,17.8c0,0,0,0,0,0v21.4c0,9.9-8,17.9-17.9,17.9s-17.9-8-17.9-17.9v-21.4
			C931.3,553.3,939.2,545.3,949.1,545.2L949.1,545.2z"/>
		<path class="st2" d="M610.7,538.8v-89c0-9.9,8.1-18,18-18s18,8.1,18,18V547c0.1,9.9-8,18-17.9,18.1c0,0,0,0,0,0h-0.1"/>
		<path class="st2" d="M646.7,458.1v89c0,9.9-8.1,18-18,18s-18-8.1-18-18v-97.2"/>
		<path class="st1" d="M728.2,469.9v77.2c0,9.9-8.1,18-18,18c-9.9,0-18-8-18.1-17.9v-71.4"/>
		<path class="st1" d="M692.1,547v-97.2c0-9.9,8.1-18,18-18c9.9-0.1,18,8,18.1,17.9c0,0,0,0,0,0v91.4"/>
		<path class="st0" d="M710.5,431.7L710.5,431.7c10,0,18.1,8.1,18.1,18.1v21.9c0,10-8.1,18.1-18.1,18.1h0c-10,0-18.1-8.1-18.1-18.1
			v-21.9C692.4,439.8,700.5,431.7,710.5,431.7z"/>
		<path class="st3" d="M669.5,603.6c-32.5,0-58.8-26.3-58.8-58.8c0-10,8.1-18.1,18.1-18.1c10,0,18.1,8.1,18.1,18.1c0,0,0,0,0,0
			c0,12.5,10.1,22.6,22.6,22.6c12.5,0,22.6-10.1,22.6-22.6c0-10,8.1-18.1,18.1-18.1c10,0,18.1,8.1,18.1,18.1c0,0,0,0,0,0
			C728.3,577.2,702,603.6,669.5,603.6C669.5,603.6,669.5,603.6,669.5,603.6L669.5,603.6z M780.2,509.2c-9.9,0-17.9-8-17.9-17.9v0.6
			c0.1-32,26-57.9,58-58h0.1c13.2,0,26.1,4.6,36.4,12.9c7.7,6.2,8.8,17.5,2.6,25.1s-17.5,8.8-25.1,2.6l0,0
			c-3.9-3.2-8.9-4.9-13.9-4.9h0c-12.3,0-22.3,10-22.3,22.4v-0.6C798,501.3,790.1,509.2,780.2,509.2z"/>
		<path class="st1" d="M807,601.3c-2,0-4.1-0.3-6-1c-23.2-8.2-38.7-30.2-38.7-54.9v-54c0-9.9,8-17.9,17.9-17.9
			c9.9,0,17.9,8,17.9,17.9l0,0v54.1c0,9.5,5.9,18,14.9,21.2c9.3,3.3,14.2,13.5,10.9,22.8C821.3,596.6,814.5,601.3,807,601.3
			L807,601.3z"/>
		<path class="st2" d="M820.5,603.6h-0.2c-6.5,0-13-1.1-19.2-3.3c-9.3-3.2-14.3-13.3-11.2-22.6c3.2-9.3,13.3-14.3,22.6-11.2
			c0.1,0,0.3,0.1,0.4,0.2c2.4,0.8,4.9,1.3,7.4,1.3h0.1c6.7,0,13-2.9,17.2-8.1c6.3-7.6,17.6-8.6,25.2-2.2c7.5,6.2,8.5,17.3,2.4,24.9
			C854.2,595.8,837.8,603.6,820.5,603.6L820.5,603.6z"/>
		<circle class="st0" cx="845.7" cy="460.8" r="17.7"/>
		<path class="st3" d="M474.7,603.1c-9.9,0-18-8.1-18-18v-135c0-9.9,8.1-18,18-18s18,8.1,18,18v117"/>
		<path class="st2" d="M515.2,603.1c32.3,0,58.5-26.2,58.5-58.5v-54c0-32.3-26.2-58.5-58.5-58.5c-0.8,0-1.5,0.1-2.2,0.1
			c-0.7-0.1-1.5-0.1-2.2-0.1h-36c-9.9,0-18,8.1-18,18s8.1,18,18,18h36c0.8,0,1.5,0,2.3-0.1c0.7,0.1,1.5,0.2,2.2,0.2
			c12.4,0,22.5,10.1,22.5,22.5v54c0,12.4-10.1,22.5-22.5,22.5 M537.7,522.1c0,9.9,8.1,18,18,18 M555.7,540.1c9.9,0,18-8.1,18-18"/>
		<path class="st4" d="M555.7,504.1c-9.9,0-18,8.1-18,18v22.5c0,12.4-10.1,22.5-22.5,22.5c-0.8,0-1.5,0.1-2.2,0.2
			c-0.7-0.1-1.5-0.1-2.2-0.2h-36c-9.9,0-18,8.1-18,18s8.1,18,18,18h36c0.8,0,1.5,0,2.3-0.1c0.7,0.1,1.5,0.2,2.2,0.2
			c32.3,0,58.5-26.2,58.5-58.5v-22.5C573.8,512.2,565.7,504.2,555.7,504.1C555.8,504.1,555.7,504.1,555.7,504.1L555.7,504.1z"/>
		<path class="st0" d="M474.7,567.1h15.2c9.9,0,18,8.1,18,18s-8.1,18-18,18h-15.2c-9.9,0-18-8.1-18-18
			C456.7,575.2,464.8,567.2,474.7,567.1z"/>
		<path class="st2" d="M284.3,254.7c-9.9,0-18-8.1-18-18s8.1-18,18-18h71.1c9.9,0,18,8.1,18,18s-8.1,18-18,18H284.3z"/>
		<path class="st1" d="M313.5,432.1L313.5,432.1c9.9,0,18,8.1,18,18v135c0,9.9-8.1,18-18,18l0,0c-9.9,0-18-8.1-18-18v-135
			C295.5,440.2,303.5,432.1,313.5,432.1z"/>
		<path class="st2" d="M313.5,531.1L313.5,531.1c9.9,0,18,8.1,18,18v36c0,9.9-8.1,18-18,18l0,0c-9.9,0-18-8.1-18-18v-36
			C295.5,539.2,303.5,531.1,313.5,531.1z"/>
		<path class="st3" d="M375.5,565.1v-22.1 M375.5,537.4v-87.3c0-9.9,8.1-18,18-18s18,8.1,18,18v135c0,9.9-8.1,18-18,18
			s-18-8.1-18-18v-20 M375.5,565.1v-27.7"/>
		<path class="st0" d="M393.5,603.1c-6.4,0-12.3-3.4-15.5-8.8l-80-135c-5.1-8.6-2.2-19.6,6.3-24.7c8.6-5.1,19.6-2.2,24.7,6.3l80,135
			c5.1,8.6,2.2,19.6-6.3,24.7C399.9,602.3,396.7,603.1,393.5,603.1L393.5,603.1z"/>
		<path class="st4" d="M393.5,432.1L393.5,432.1c9.9,0,18,8.1,18,18v34.2c0,9.9-8.1,18-18,18l0,0c-9.9,0-18-8.1-18-18v-34.2
			C375.5,440.2,383.5,432.1,393.5,432.1z"/>
	</g>
</g>
</svg>
