<?xml version="1.0" encoding="UTF-8" standalone="no"?><!DOCTYPE svg PUBLIC "-//W3C//DTD SVG 1.1//EN" "http://www.w3.org/Graphics/SVG/1.1/DTD/svg11.dtd"><svg width="100%" height="100%" viewBox="0 0 524 295" version="1.1" xmlns="http://www.w3.org/2000/svg" xmlns:xlink="http://www.w3.org/1999/xlink" xml:space="preserve" xmlns:serif="http://www.serif.com/" style="fill-rule:evenodd;clip-rule:evenodd;stroke-linejoin:round;stroke-miterlimit:2;"><rect x="0" y="0" width="524" height="295" style="fill:#503469;"/><g id="overlay"><path d="M262,242.5c-1.887,-0 -3.146,-0.629 -4.404,-1.887l-126.457,-113.245c-1.887,-1.259 -2.516,-2.517 -2.516,-4.404c-0,-1.888 0.629,-3.775 1.887,-5.034l63.543,-62.913c1.258,-1.888 3.146,-2.517 5.033,-2.517l124.57,0c1.887,0 3.774,0.629 5.033,1.887l64.801,62.914c1.258,1.259 1.887,3.146 1.887,5.033c0,1.888 -0.629,3.775 -2.516,5.034l-126.457,113.245c-1.258,1.258 -3.146,1.887 -4.404,1.887Zm-116.391,-120.166l116.391,104.438l116.391,-104.438l-57.252,-55.993l-119.536,0l-55.994,55.993Z" style="fill:#fff;fill-rule:nonzero;"/><path d="M388.457,129.255l-84.305,-0c-3.775,-0 -6.92,-3.146 -6.92,-6.921c-0,-3.774 3.145,-6.92 6.92,-6.92l84.305,-0c3.775,-0 6.92,3.146 6.92,6.92c0,3.775 -3.145,6.921 -6.92,6.921Z" style="fill:#fff;fill-rule:nonzero;"/><path d="M304.152,129.255l-84.304,-0c-3.775,-0 -6.921,-3.146 -6.921,-6.921c0,-3.774 3.146,-6.92 6.921,-6.92l84.304,-0c3.775,-0 6.921,3.146 6.921,6.92c-0,3.775 -3.146,6.921 -6.921,6.921Z" style="fill:#fff;fill-rule:nonzero;"/><path d="M219.848,129.255l-84.305,-0c-3.775,-0 -6.92,-3.146 -6.92,-6.921c-0,-3.774 3.145,-6.92 6.92,-6.92l84.305,-0c3.775,-0 6.92,3.146 6.92,6.92c0,3.775 -3.145,6.921 -6.92,6.921Z" style="fill:#fff;fill-rule:nonzero;"/><path d="M219.848,129.255c-1.259,-0 -2.517,-0.629 -3.775,-1.258c-3.146,-1.888 -3.775,-6.292 -1.888,-9.437l42.153,-60.398c1.887,-3.145 6.291,-3.775 9.437,-1.887c3.146,1.887 3.775,6.291 1.887,9.437l-42.152,60.397c-1.258,1.888 -3.775,3.146 -5.662,3.146Z" style="fill:#fff;fill-rule:nonzero;"/><path d="M304.152,129.255c-1.887,-0 -4.404,-1.258 -5.662,-3.146l-42.152,-60.397c-1.888,-2.517 -1.259,-6.921 1.887,-8.808c3.146,-1.887 7.55,-1.258 9.437,1.887l42.153,60.398c1.887,3.145 1.258,7.549 -1.888,9.437c-1.258,-0 -2.516,0.629 -3.775,0.629Zm-42.152,113.245c-2.517,-0 -5.662,-1.887 -6.291,-4.404l-63.543,-173.013c-1.259,-3.775 0.629,-7.55 3.774,-8.808c3.775,-1.258 7.55,0.629 8.808,3.775l62.914,173.013c1.259,3.775 -0.629,7.55 -3.775,8.808c-0.629,0.629 -1.258,0.629 -1.887,0.629Z" style="fill:#fff;fill-rule:nonzero;"/><path d="M262,242.5c-0.629,-0 -1.258,-0 -2.517,-0.629c-3.774,-1.258 -5.033,-5.033 -3.774,-8.808l62.914,-173.013c1.258,-3.775 5.033,-5.033 8.807,-3.775c3.775,1.258 5.034,5.033 3.775,8.808l-62.914,173.013c-1.258,2.517 -3.774,4.404 -6.291,4.404Z" style="fill:#fff;fill-rule:nonzero;"/></g></svg>