<svg id="Layer_1" xmlns="http://www.w3.org/2000/svg" viewBox="0 0 1027.3 605.3"><style>.st0,.st1,.st2,.st3{fill:none;stroke:#5ec2ee;stroke-width:3.5;stroke-miterlimit:10}.st1,.st2,.st3{stroke:#ff9a1b}.st2,.st3{stroke:#ba9cdb}.st3{stroke:#ff4cab}</style><path class="st0" d="M188.9 171c-2 0-4-.3-6-1-23.1-8.2-38.7-30.2-38.6-54.7V64.7c0-9.9 8-17.9 17.9-17.9s17.9 8 17.9 17.9v50.5c0 9.4 6 17.9 14.9 21.1 9.3 3.3 14.2 13.5 10.9 22.8-2.8 7.3-9.7 11.9-17 11.9z"/><path class="st1" d="M202.2 173.2c-6.6 0-13-1.1-19.3-3.3-9.3-3.3-14.2-13.5-10.9-22.8s13.5-14.2 22.8-10.9c2.4.8 4.9 1.2 7.4 1.3 12.3 0 22.3-10 22.3-22.3V94.9c0-9.9 8-17.9 17.9-17.9s17.9 8 17.9 17.9v20.3c0 32-26 58-58.1 58z"/><path class="st2" d="M242.5 112.7c-9.9 0-17.9-8-17.9-17.9V61.6c0-6.8-3-13.1-8.3-17.3-7.7-6.2-8.9-17.4-2.7-25.1s17.4-8.9 25.1-2.7c13.7 11.1 21.5 27.5 21.6 45.1v33.3c0 9.8-8 17.8-17.8 17.8z"/><path class="st3" d="M162.1 84.9c-9.9 0-17.9-8-17.9-17.9v-5.4c0-32 26-58 58-58h.1c13.2 0 26.1 4.6 36.4 12.9 7.7 6.2 8.8 17.5 2.6 25.1-6.2 7.7-17.5 8.8-25.1 2.6-3.9-3.2-8.8-5-14-4.9-12.3 0-22.3 10-22.3 22.3V67c.1 9.9-7.9 17.9-17.8 17.9z"/><path class="st0" d="M64.7 171c2 0 4-.3 6-1 23.2-8.2 38.8-30.3 38.7-54.9V61c0-9.9-8-17.9-17.9-17.9s-17.9 8-17.9 17.9v54.1c0 9.5-6 18-14.9 21.2-9.3 3.3-14.2 13.5-10.9 22.8 2.6 7.3 9.5 11.9 16.9 11.9z"/><path class="st1" d="M51.2 173.2h.2c6.5 0 13-1.1 19.2-3.3 9.3-3.3 14.2-13.5 10.9-22.8-3.3-9.3-13.5-14.2-22.8-10.9-2.4.8-4.9 1.3-7.4 1.3h-.1c-6.7 0-13-2.9-17.2-8.1-6.3-7.6-17.5-8.7-25.1-2.5-7.6 6.3-8.7 17.5-2.5 25.1 11.1 13.5 27.4 21.2 44.8 21.2z"/><path class="st3" d="M91.2 3.5c10 0 18.1 8.1 18.1 18.1v33.9c0 10-8.1 18.1-18.1 18.1s-18.1-8.1-18.1-18.1V21.6c0-10 8.1-18.1 18.1-18.1z"/><path class="st1" d="M307.3 173c-9.9 0-18-8.1-18-18V21.5c0-9.9 8.1-18 18-18s18 8.1 18 18V155c0 9.9-8.1 18-18 18z"/><path d="M344.4 106h-11c-9.8 0-17.8-8-17.8-17.8s8-17.8 17.8-17.8h11c8.7 0 15.7-7 15.7-15.7s-7-15.7-15.7-15.7H307c-9.8 0-17.8-8-17.8-17.8s8-17.8 17.8-17.8h37.3c28.3 0 51.2 23 51.2 51.2S372.6 106 344.4 106z" fill="none" stroke="#5ec2ee" stroke-width="3.441" stroke-miterlimit="10"/><path d="M346.1 173H307c-9.8 0-17.8-8-17.8-17.8s8-17.8 17.8-17.8h39.1c8.7 0 15.7-7 15.7-15.7s-7-15.7-15.7-15.7h-12.7c-9.8 0-17.8-8-17.8-17.8s8-17.8 17.8-17.8h12.7c28.3 0 51.2 23 51.2 51.2S374.4 173 346.1 173z" fill="none" stroke="#ff4cab" stroke-width="3.441" stroke-miterlimit="10"/><path d="M521.1 41.3c-2.3-6.9-12.1-39.1-48.7-39.1-13.1 0-25.4 5.1-34.7 14.4-14.8 14.8-18.3 36.8-10 55 1.7 3.6 1.9 4.8 4.5 8.1 0 0 8.8 11.1 21.7 2.9 11-7.9 5.7-21 5.7-21-5.2-6.5-4.7-15.9 1.2-21.8 3.1-3.1 7.2-4.8 11.6-4.8 1.2 0 2.4.1 3.5.3 3.8.6 6.9 2.2 9.3 4.8 1.3 1.4 3.5 5.7 4.3 7.5m-1.2-2.9c.2.5.5 1.1.6 1.7" fill="none" stroke="#5ec2ee" stroke-width="3.471" stroke-miterlimit="10"/><path class="st1" d="M480.3 171.1c-7.5 0-14.3-5.3-16-12.9-1.9-8.8 3.8-17.5 12.6-19.4 10.2-2.2 12.5-11.6 12.5-14.7 0-11.4-4.7-14.5-23-21.5-12.7-4.9-27.1-10.5-35.7-24.4-4.7-7.7-2.4-17.7 5.3-22.5 7.7-4.8 17.7-3.6 22.5 4 2.9 4.6 11 9 19.7 12.4 17.5 6.8 43.9 17 43.9 52 0 19.1-13.2 41.3-38.3 46.6-1.2.3-2.4.4-3.5.4z"/><path d="M472 172c-30.1 0-45.4-27.5-48-33 0-.1 0-.1-.1-.2l-.2-.4c-3.7-8.2-.1-17.9 8.2-21.6 8.2-3.7 17.3-.1 21.6 8.2l.1.3c.5 1.1 7.9 14.1 18.4 14.1 1.8 0 3.4-.2 4.9-.5 8.8-1.9 17.5 3.8 19.4 12.6s-3.8 17.5-12.6 19.4c-3.7.7-7.6 1.1-11.7 1.1z" fill="none" stroke="#ff4cab" stroke-width="3.471" stroke-miterlimit="10"/><path class="st2" d="M505.6 62.3c-11.6.1-15.1-10.5-15.3-11.3-2.8-8.6 2-17.4 10.7-19.7 15.4-4.2 20.3 9.5 20.7 11.9 1.6 8.9-4.2 17.3-13.1 18.9-1 .1-2 .2-3 .2z"/></svg>