<?xml version="1.0" encoding="UTF-8" standalone="no"?><!DOCTYPE svg PUBLIC "-//W3C//DTD SVG 1.1//EN" "http://www.w3.org/Graphics/SVG/1.1/DTD/svg11.dtd"><svg width="100%" height="100%" viewBox="0 0 700 700" version="1.1" xmlns="http://www.w3.org/2000/svg" xmlns:xlink="http://www.w3.org/1999/xlink" xml:space="preserve" xmlns:serif="http://www.serif.com/" style="fill-rule:evenodd;clip-rule:evenodd;stroke-linejoin:round;stroke-miterlimit:2;"><path d="M323,1.1c-70.3,5.7 -137.2,32.1 -191.5,75.6c-14.4,11.5 -37.3,33.9 -49.4,48.3c-29,34.6 -49.8,71.8 -64.1,114.9c-26.1,78.6 -23.4,164.6 7.5,241.1c45.5,112.4 147.5,194.2 266.5,213.9c22.7,3.8 32.2,4.5 58,4.5c25.8,0 35.3,-0.7 58,-4.5c98.3,-16.2 185.5,-74.7 239.2,-160.4c13.6,-21.6 26.6,-49.6 34.8,-74.5c37.2,-112.9 15.3,-235.6 -58.7,-328.5c-18.1,-22.7 -45.9,-49.1 -70,-66.3c-66.2,-47.4 -149.8,-70.6 -230.3,-64.1Zm26.995,561.492c0.626,0 1.252,0 1.878,-0.189c0.951,-0.189 1.888,-0.516 2.79,-0.959c1.193,-0.556 2.354,-1.313 3.313,-2.273l226.955,-203.242c2.012,-1.064 3.714,-2.66 4.909,-4.591c1.357,-1.945 1.865,-4.229 1.865,-6.513c0,-3.421 -1.14,-6.841 -3.42,-9.121l-117.435,-114.014c-2.28,-2.281 -5.701,-3.421 -9.121,-3.421l-225.748,0c-3.421,0 -6.841,1.14 -9.121,4.561l-112.256,111.144c-3.754,2.186 -6.319,6.262 -6.319,10.851c0,0.18 0.004,0.359 0.012,0.538c-0.008,0.2 -0.012,0.401 -0.012,0.602c0,2.666 0.693,4.64 2.619,6.461c1.115,1.444 2.534,2.646 4.155,3.503l224.391,200.946c0.958,1.539 2.319,2.835 4.083,3.768c0.332,0.2 0.672,0.388 1.018,0.561c1.18,0.705 2.457,1.141 3.962,1.309c0.546,0.079 1.014,0.079 1.482,0.079c0,0 0,0 0,0Zm-0.57,-46.888l-57.577,-158.338l115.154,0l-57.577,158.338Zm28.57,-6.74l55.127,-151.598l113.822,0l-168.949,151.598Zm-56.248,-0.222l-168.701,-151.376l113.105,0l55.596,151.376Zm-170.137,-176.459l105.329,0l-28.293,-77.035l-77.036,77.035Zm145.784,0l105.202,0l-52.601,-75.368l-52.601,75.368Zm144.849,0l105.855,0l-78.085,-76.368l-27.77,76.368Zm-164.793,-14.51l-27.062,-74.421l79.001,0l-51.939,74.421Zm144.068,-0.325l-51.713,-74.096l78.657,0l-26.944,74.096Z"/></svg>