<?xml version="1.0" encoding="utf-8"?>
<!-- Generator: Adobe Illustrator 23.1.1, SVG Export Plug-In . SVG Version: 6.00 Build 0)  -->
<svg version="1.1" id="Layer_1" xmlns="http://www.w3.org/2000/svg" xmlns:xlink="http://www.w3.org/1999/xlink" x="0px" y="0px"
	 viewBox="0 0 1184.6877441 790.4594116" style="enable-background:new 0 0 1184.6877441 790.4594116;" xml:space="preserve">
<style type="text/css">
	.st0{fill:#FFFFFF;}
	.st1{fill:#FFC800;}
	.st2{fill:#1F1F1F;}
</style>
<g>
	<path class="st2" d="M915.6402588,356.3309631v-0.0628662C916.027832,356.2785645,915.8392334,356.3099976,915.6402588,356.3309631
		 M1047.8087158,309.2933044c-1.2412109-2.2937317-4.3414307-2.6812744-6.1481934-0.801239
		c-7.975708,8.3161621-18.5438843,16.7737427-27.0903931,16.7737427c-8.8765869,0-13.1917725-6.368042-13.1917725-19.4654846
		c0-15.2078857,7.965332-47.7236633,27.7869263-89.6134644c1.2045898-2.5451355-0.628418-5.4830017-3.4458008-5.4830017h-29.0280151
		c-2.1367188,0-4.0272217,1.3563538-4.7185059,3.3777771c-10.7565308,31.3951111-24.4456787,64.2041321-32.5733643,78.0556641
		c-8.5308228,14.5585327-20.8637695,25.4040833-32.9242554,28.3629456c-7.3735352,1.8067017-14.3595581,0.947876-20.5756836-3.0112
		c-12.3276367-7.8343811-14.7523193-29.7140503-6.4780273-57.1448364
		c4.8231812-15.9724731,13.3331299-34.3329773,18.2243042-44.115448c1.272644-2.5451355-0.5812378-5.5249023-3.4248657-5.5249023
		h-28.9337769c-2.0895386,0-3.9537964,1.2830505-4.6817627,3.2468567
		c-6.8865356,18.5909119-43.015686,110.7652283-82.2032471,110.7652283c-19.3083496,0-26.7290039-22.7752075-27.8182983-42.1568909
		c-0.1414185-2.5451355-2.6498413-4.2471008-5.0588379-3.4091797l-27.3208008,9.4682617
		c-2.1156616,0.7331543-3.4667969,2.7807617-3.3620605,5.0221558c1.2097778,26.1006165,14.9356079,62.7482605,57.1448364,62.7482605
		c37.4855347,0,61.5646973-36.1711121,66.4245605-45.4089661c3.2310791,15.3493042,17.197876,45.4089661,57.2285767,45.4089661
		v-0.0104675c30.9237671,0,48.7134399-21.6021118,55.0552979-30.5414734
		c3.4929199,19.2036438,17.7424927,30.5519409,37.2918091,30.5519409c16.0772095,0,33.3432007-8.2480774,48.409729-24.063446
		c1.4768066-1.5501099,1.7438965-3.9067078,0.7279053-5.7919617L1047.8087158,309.2933044z"/>
	<path class="st2" d="M345.7596436,127.5380325c-58.1974487,28.0173416-105.6016388,64.7173691-144.4697723,110.5871506
		l34.0763855-104.9260712c0.801239-2.466568-1.0421448-5.0011902-3.6396179-5.0011902h-29.6564636
		c-2.1680603,0-4.0900116,1.3930054-4.7550964,3.4563293l-70.1689224,216.0735626
		c-0.8064728,2.4718018,1.0369034,5.0064392,3.634407,5.0064392h30.1853638c1.9062195,0,3.6239014-1.0682983,4.4670563-2.7755432
		c32.0549164-64.9739075,86.8588715-142.0293579,198.7290344-186.720871c2.063324-0.8274231,3.0112-3.2206573,2.0371399-5.2211304
		l-13.7572937-28.1534882C351.2373962,127.3913956,348.2366638,126.3440475,345.7596436,127.5380325"/>
	<path class="st2" d="M446.3260193,293.1846619c-13.5006714,23.3826599-37.4646301,34.8147888-53.5366211,25.5350342
		c-16.0667419-9.2745361-18.151001-35.7469482-4.6503296-59.1295776
		c13.4954224-23.3774414,37.4645996-34.8095398,53.5313416-25.5298157
		C457.7371826,243.3348389,459.8214417,269.807251,446.3260193,293.1846619 M650.4227905,326.4283752l-9.3687744-17.3340454
		c-1.2201538-2.2571106-4.2680664-2.6813049-6.0852661-0.8641052c-7.8500366,7.8500977-18.5542603,16.9884338-27.069397,16.9884338
		c-8.7612915,0-13.2022095-6.5461121-13.2022095-19.4654846c0-15.1974182,7.9705811-47.7079468,27.7974243-89.6134338
		c1.2044678-2.5451355-0.628479-5.4777832-3.4459229-5.4777832h-28.7242432c-1.9428711,0-3.7129517,1.1468811-4.5299072,2.9064636
		c-36.4277344,78.1342163-69.1791382,111.650238-87.9533691,111.650238c-6.8550415,0-13.1969604-4.0795288-13.1969604-18.9784546
		c0-14.9617615,5.5458984-44.0368958,27.4988403-90.1266479c1.2097778-2.5294189-0.649292-5.4515991-3.4562988-5.4515991
		h-28.3681641c-2.0057373,0-3.817688,1.1992493-4.6032104,3.0478516l-4.2628174,10.0653076
		c-3.6134338-5.3940125-9.4787292-14.1657715-20.9945984-19.4655151
		c-24.3096008-11.1859436-70.0275574-4.4827576-98.9298706,48.7710876
		c-19.6225891,36.160614-33.3379822,67.6342468-61.7532654,67.6342468c-17.1246033,0-29.4155579-14.7784729-30.9290161-53.8927002
		c-0.0994873-2.5922546-2.723175-4.3309021-5.1530914-3.4196777l-29.9078064,11.1964417
		c-1.9795227,0.7436523-3.3096619,2.6603394-3.2625732,4.7707825c1.125946,49.3418579,25.8283386,76.9716492,60.0617523,76.9716492
		c34.1968079,0,55.7675171-27.9859009,65.0210876-41.1147461c2.9588318,11.1650391,17.3236084,41.1147461,55.4375916,41.1147461
		c24.8751831,0,42.6281738-16.1557922,53.6046753-30.6671448c0,7.3787537,6.9126892,30.6671448,36.6109619,30.6671448
		c22.4348145,0,47.0219727-17.1403198,67.8909302-46.9172058c0,29.3893738,16.8469849,46.9172058,42.1672974,46.9172058
		c11.3064575,0,29.1170654-4.7603149,48.2054443-23.9587097
		C651.0931396,330.801178,651.4859009,328.3922119,650.4227905,326.4283752"/>
	<path class="st2" d="M811.6814575,191.6054688c-36.2810669,16.3547668-65.7123413,37.0247498-91.3468628,63.2615051
		l39.507019-121.6683807c0.8012085-2.466568-1.0368652-5.0012207-3.6343994-5.0012207h-27.9963379
		c-2.1628418,0-4.0847778,1.3929901-4.7550659,3.4563599l-70.1689453,216.0735321
		c-0.8012695,2.4718323,1.0421143,5.0064697,3.6396484,5.0064697h28.2529297c2.0371094,0,3.8543091-1.2359009,4.6188965-3.1211853
		c17.8682861-43.942627,50.4835205-93.5620422,138.0231323-126.4077454c2.1157227-0.7960205,3.1159058-3.2259216,2.1261597-5.252594
		l-11.7095947-23.9639587C817.0544434,191.5635681,814.1375122,190.4952698,811.6814575,191.6054688"/>
	<path class="st2" d="M606.3079224,143.8394012l-11.0236816,34.5895844
		c-0.7855225,2.4665527,1.0526123,4.9855042,3.6448975,4.9855042h34.9037476c2.1576538,0,4.0690918-1.3772888,4.7498779-3.4249268
		l11.463501-34.5371704c0.8222046-2.4718018-1.0159302-5.022171-3.6186523-5.0274048l-35.343689-0.0680847
		C608.9001465,140.3516693,606.9677124,141.760376,606.3079224,143.8394012"/>
</g>
<g>
	<polygon class="st2" points="399.2643127,449.5844421 371.1313782,449.5844421 371.1313782,422.6956482 358.8022156,422.6956482 
		358.8022156,486.2061462 371.1313782,486.2061462 371.1313782,459.3123779 399.2643127,459.3123779 399.2643127,486.2061462 
		411.8918762,486.2061462 411.8918762,422.6956482 399.2643127,422.6956482 	"/>
	<polygon class="st2" points="464.0078125,458.4300842 490.3226318,458.4300842 490.3226318,449.3187866 464.0078125,449.3187866 
		464.0078125,432.2480774 493.2946472,432.2480774 493.2946472,422.6956482 451.9889221,422.6956482 451.9889221,486.2061462 
		494.7984924,486.2061462 494.7984924,476.6536865 464.0078125,476.6536865 	"/>
	<polygon class="st2" points="634.7596436,422.6956482 622.7407227,422.6956482 622.7407227,486.2061462 661.7386475,486.2061462 
		661.7386475,476.5694275 634.7596436,476.5694275 	"/>
	<polygon class="st2" points="686.1952515,432.2480774 704.5516968,432.2480774 704.5516968,486.2061462 716.666748,486.2061462 
		716.666748,432.2480774 735.0181885,432.2480774 735.0181885,422.6956482 686.1952515,422.6956482 	"/>
	<polygon class="st2" points="811.5714722,422.6956482 811.5714722,449.5844421 783.437561,449.5844421 783.437561,422.6956482 
		771.4087524,422.6956482 771.4087524,486.2061462 783.437561,486.2061462 783.437561,459.3123779 811.5714722,459.3123779 
		811.5714722,486.2061462 823.6854858,486.2061462 823.6854858,422.6956482 	"/>
	<path class="st2" d="M578.4608765,486.2061157h12.2716675l-33.8127441-66.3070679l-33.8054199,66.3070679h11.0178223
		l7.0128174-13.924408h30.305481L578.4608765,486.2061157z M545.6415405,463.3538818l10.6586914-21.1636963l10.6552734,21.1636963
		H545.6415405z"/>
</g>
<g>
	<path class="st2" d="M177.5642548,613.9492188h-0.2514648h-5.4829102h-0.0239258l-20.5620117,48.847168h5.5053711
		l5.9741211-14.1850586h0.003418l-0.0019531,0.0043945h23.699707h0.0014648h0.0053711l5.9672852,14.1806641h5.7333984
		L177.5642548,613.9492188z M184.4436493,643.9108887h-19.7416992l-0.0039062,0.0092773l0.0009766-0.0119629l9.875-23.4443359
		l9.8696289,23.4443359l0.0014648,0.0026855H184.4436493z"/>
	<path class="st2" d="M276.1716614,613.9492188h-17.9039307v48.8485718h5.9336853v-19.8857422h11.9702454
		c9.292572,0,17.078125-4.0255127,17.078125-14.4129639v-0.2731934
		C293.2497864,618.0379639,285.5337524,613.9492188,276.1716614,613.9492188z M287.3161011,628.4990845
		c0,6.2868042-3.7648621,9.7089844-10.7356873,9.7089844H264.201416v-19.486084h12.3789978
		c6.6288147,0,10.7356873,2.5963745,10.7356873,9.5039062V628.4990845z"/>
	<path class="st2" d="M334.6521606,613.9492188h-0.2504883h-5.4833984h-0.0234375l-20.5620117,48.847168h5.5053711
		l5.9726562-14.1813965v0.0007324l0.0073242-0.010498l-0.0043945,0.010498h23.6982422h0.0029297h0.0053711l5.9672852,14.1806641
		h5.7333984L334.6521606,613.9492188z M331.6629028,620.4638672l9.8681641,23.4443359h-19.7431641L331.6629028,620.4638672z"/>
	<path class="st2" d="M413.0655212,627.8157959v-0.2731934c0-9.777832-7.7104492-13.5933838-17.0766907-13.5933838h-18.7242126
		v48.8485718h5.9336853v-21.2523804h11.5601196l14.5547791,21.2523804h6.62323l-14.9593201-21.6625366
		C407.6796265,639.8430176,413.0655212,635.8793335,413.0655212,627.8157959z M383.1983032,636.8414307v-18.1194458h13.2006531
		c6.6274109,0,10.7328796,2.1862183,10.7328796,8.8206177v0.2731934c0,6.0136108-3.7634583,9.0256348-10.7328796,9.0256348
		H383.1983032z"/>
	<polygon class="st2" points="433.5384216,618.7901001 451.789917,618.7901001 451.789917,662.7977905 457.7236023,662.7977905 
		457.7236023,618.7901001 475.9750977,618.7901001 475.9750977,613.9492188 433.5384216,613.9492188 	"/>
	<path class="st2" d="M558.1483154,613.3485718c-14.342041,0-24.0405884,10.9275513-24.0405884,24.7913818v0.5505371
		c0,13.65802,9.7652588,24.7246094,24.1796265,24.7246094c14.2030029,0,23.6958008-11.0665894,23.6958008-24.8636475v-0.5449829
		C581.9831543,624.276123,572.4903564,613.3485718,558.1483154,613.3485718z M575.8381348,638.4847412
		c0,11.8173218-6.6955566,20.0087891-17.5507812,20.0087891c-10.1768188,0-18.0290527-8.0580444-18.0290527-19.8753662v-0.5449829
		c0-11.6115112,6.5565186-19.9420776,17.8900146-19.9420776c11.2723389,0,17.6898193,8.8811035,17.6898193,19.8086548V638.4847412z"
		/>
	<polygon class="st2" points="608.0078125,662.7977905 613.9414673,662.7977905 613.9414673,640.9302368 635.6102905,640.9302368 
		635.6102905,636.0899658 613.9414673,636.0899658 613.9414673,618.7901001 640.5985718,618.7901001 640.5985718,613.9492188 
		608.0078125,613.9492188 	"/>
	<polygon class="st2" points="709.2007446,640.2468872 731.4144897,640.2468872 731.4144897,635.401123 709.2007446,635.401123 
		709.2007446,618.7901001 735.7883301,618.7901001 735.7883301,613.9492188 703.265686,613.9492188 703.265686,662.7977905 
		737.017334,662.7977905 737.017334,657.9568481 709.2007446,657.9568481 	"/>
	<polygon class="st2" points="767.0281372,613.9492188 761.0889282,613.9492188 761.0889282,662.7977905 793.4058228,662.7977905 
		793.4058228,657.9568481 767.0281372,657.9568481 	"/>
	<polygon class="st2" points="822.7959595,640.2468872 845.0041504,640.2468872 845.0041504,635.401123 822.7959595,635.401123 
		822.7959595,618.7901001 849.3779297,618.7901001 849.3779297,613.9492188 816.8566895,613.9492188 816.8566895,662.7977905 
		850.6069336,662.7977905 850.6069336,657.9568481 822.7959595,657.9568481 	"/>
	<polygon class="st2" points="912.0292358,613.8810425 905.0028076,613.8810425 881.4738159,637.4510498 881.4738159,613.9492188 
		875.5345459,613.9492188 875.5345459,662.7977905 881.4738159,662.7977905 881.4738159,638.9546509 905.5505371,662.7977905 
		913.1220093,662.7977905 888.0220337,637.6561279 	"/>
	<polygon class="st2" points="930.0217896,618.7901001 948.2732544,618.7901001 948.2732544,662.7977905 954.2069702,662.7977905 
		954.2069702,618.7901001 972.4584351,618.7901001 972.4584351,613.9492188 930.0217896,613.9492188 	"/>
	<path class="st2" d="M1010.6760864,613.9492188h-0.25h-5.4863281h-0.0219727l-20.5625,48.847168h5.5058594l5.9726562-14.1835938
		v0.0029297l0.0019531-0.0043945l0.0004883,0.0043945h23.6987305h0.0029297h0.0053711l5.9672241,14.1806641h5.7333984
		L1010.6760864,613.9492188z M995.8338013,648.6113281l0.0009766-0.0090332l0.0004883,0.0056152L995.8338013,648.6113281z
		 M1017.555481,643.9108887h-19.7519531l0.0068359-0.0026855l9.8740234-23.4443359l9.8710938,23.4443359V643.9108887z"/>
</g>
</svg>
