<?xml version="1.0" encoding="UTF-8" standalone="no"?><!DOCTYPE svg PUBLIC "-//W3C//DTD SVG 1.1//EN" "http://www.w3.org/Graphics/SVG/1.1/DTD/svg11.dtd"><svg width="100%" height="100%" viewBox="0 0 932 538" version="1.1" xmlns="http://www.w3.org/2000/svg" xmlns:xlink="http://www.w3.org/1999/xlink" xml:space="preserve" xmlns:serif="http://www.serif.com/" style="fill-rule:evenodd;clip-rule:evenodd;stroke-linejoin:round;stroke-miterlimit:2;"><g><g><path d="M789.296,230.101l0,-0.063c0.388,0.011 0.199,0.042 0,0.063m132.169,-47.037c-1.241,-2.294 -4.342,-2.682 -6.148,-0.802c-7.976,8.317 -18.544,16.774 -27.091,16.774c-8.876,0 -13.192,-6.368 -13.192,-19.465c0,-15.208 7.966,-47.724 27.787,-89.614c1.205,-2.545 -0.628,-5.483 -3.445,-5.483l-29.028,0c-2.137,0 -4.028,1.357 -4.719,3.378c-10.756,31.395 -24.446,64.204 -32.573,78.056c-8.531,14.558 -20.864,25.404 -32.925,28.363c-7.373,1.806 -14.359,0.947 -20.575,-3.012c-12.328,-7.834 -14.753,-29.714 -6.478,-57.144c4.823,-15.973 13.333,-34.333 18.224,-44.116c1.273,-2.545 -0.581,-5.525 -3.425,-5.525l-28.934,0c-2.089,0 -3.953,1.283 -4.681,3.247c-6.887,18.591 -43.016,110.765 -82.204,110.765c-19.308,0 -26.729,-22.775 -27.818,-42.157c-0.141,-2.545 -2.65,-4.247 -5.059,-3.409l-27.321,9.468c-2.115,0.734 -3.466,2.781 -3.362,5.023c1.21,26.1 14.936,62.748 57.145,62.748c37.486,-0 61.565,-36.171 66.425,-45.409c3.231,15.349 17.198,45.409 57.228,45.409l0,-0.011c30.924,0 48.714,-21.602 55.056,-30.541c3.493,19.204 17.742,30.552 37.291,30.552c16.078,-0 33.344,-8.248 48.41,-24.064c1.477,-1.55 1.744,-3.906 0.728,-5.792l-9.316,-17.239Z" style="fill:#1f1f1f;fill-rule:nonzero;"/><path d="M219.416,1.308c-58.198,28.018 -105.602,64.718 -144.47,110.587l34.076,-104.926c0.802,-2.466 -1.042,-5.001 -3.639,-5.001l-29.657,0c-2.168,0 -4.09,1.393 -4.755,3.457l-70.169,216.073c-0.806,2.472 1.037,5.007 3.635,5.007l30.185,-0c1.906,-0 3.624,-1.069 4.467,-2.776c32.055,-64.974 86.859,-142.029 198.729,-186.721c2.063,-0.827 3.011,-3.221 2.037,-5.221l-13.757,-28.153c-1.204,-2.472 -4.205,-3.52 -6.682,-2.326" style="fill:#1f1f1f;fill-rule:nonzero;"/><path d="M319.982,166.955c-13.501,23.383 -37.465,34.815 -53.536,25.535c-16.067,-9.275 -18.151,-35.747 -4.651,-59.13c13.496,-23.377 37.465,-34.809 53.532,-25.529c16.066,9.274 18.151,35.747 4.655,59.124m204.097,33.244l-9.369,-17.334c-1.22,-2.257 -4.268,-2.682 -6.085,-0.864c-7.85,7.85 -18.554,16.988 -27.07,16.988c-8.761,-0 -13.202,-6.546 -13.202,-19.466c0,-15.197 7.971,-47.707 27.798,-89.613c1.204,-2.545 -0.629,-5.478 -3.446,-5.478l-28.724,0c-1.943,0 -3.713,1.147 -4.53,2.907c-36.428,78.134 -69.18,111.65 -87.954,111.65c-6.855,-0 -13.197,-4.08 -13.197,-18.979c0,-14.961 5.546,-44.036 27.499,-90.126c1.21,-2.53 -0.649,-5.452 -3.456,-5.452l-28.368,0c-2.006,0 -3.818,1.2 -4.604,3.048l-4.262,10.065c-3.614,-5.394 -9.479,-14.165 -20.995,-19.465c-24.31,-11.186 -70.028,-4.483 -98.93,48.771c-19.622,36.161 -33.338,67.634 -61.753,67.634c-17.125,0 -29.416,-14.778 -30.929,-53.892c-0.1,-2.593 -2.723,-4.331 -5.153,-3.42l-29.908,11.196c-1.98,0.744 -3.31,2.661 -3.263,4.771c1.126,49.342 25.829,76.972 60.062,76.972c34.197,-0 55.768,-27.986 65.021,-41.115c2.959,11.165 17.324,41.115 55.438,41.115c24.875,-0 42.628,-16.156 53.605,-30.667c-0,7.378 6.912,30.667 36.61,30.667c22.435,-0 47.022,-17.141 67.891,-46.917c0,29.389 16.847,46.917 42.168,46.917c11.306,-0 29.117,-4.761 48.205,-23.959c1.571,-1.582 1.964,-3.99 0.901,-5.954" style="fill:#1f1f1f;fill-rule:nonzero;"/><path d="M685.338,65.376c-36.282,16.355 -65.713,37.025 -91.347,63.261l39.507,-121.668c0.801,-2.467 -1.037,-5.001 -3.635,-5.001l-27.996,-0c-2.163,-0 -4.085,1.393 -4.755,3.456l-70.169,216.074c-0.801,2.471 1.042,5.006 3.64,5.006l28.253,0c2.037,0 3.854,-1.236 4.618,-3.121c17.869,-43.943 50.484,-93.562 138.024,-126.408c2.115,-0.796 3.115,-3.226 2.126,-5.252l-11.71,-23.964c-1.183,-2.425 -4.1,-3.493 -6.556,-2.383" style="fill:#1f1f1f;fill-rule:nonzero;"/><path d="M479.964,17.61l-11.024,34.589c-0.785,2.467 1.053,4.986 3.645,4.986l34.904,-0c2.158,-0 4.069,-1.378 4.75,-3.425l11.463,-34.537c0.823,-2.472 -1.016,-5.022 -3.618,-5.028l-35.344,-0.068c-2.184,-0.005 -4.116,1.404 -4.776,3.483" style="fill:#1f1f1f;fill-rule:nonzero;"/><path d="M272.92,323.355l-28.133,-0l0,-26.889l-12.329,-0l0,63.51l12.329,0l0,-26.893l28.133,-0l0,26.893l12.628,0l-0,-63.51l-12.628,-0l0,26.889Z" style="fill:#1f1f1f;fill-rule:nonzero;"/><path d="M337.664,332.2l26.315,0l-0,-9.111l-26.315,0l-0,-17.071l29.287,0l-0,-9.552l-41.306,-0l0,63.51l42.81,0l-0,-9.552l-30.791,-0l-0,-18.224Z" style="fill:#1f1f1f;fill-rule:nonzero;"/><path d="M508.416,296.466l-12.019,-0l-0,63.51l38.998,0l-0,-9.636l-26.979,-0l-0,-53.874Z" style="fill:#1f1f1f;fill-rule:nonzero;"/><path d="M559.851,306.018l18.357,0l-0,53.958l12.115,0l-0,-53.958l18.351,0l0,-9.552l-48.823,-0l0,9.552Z" style="fill:#1f1f1f;fill-rule:nonzero;"/><path d="M685.228,296.466l-0,26.889l-28.134,-0l-0,-26.889l-12.029,-0l-0,63.51l12.029,0l-0,-26.893l28.134,-0l-0,26.893l12.114,0l-0,-63.51l-12.114,-0Z" style="fill:#1f1f1f;fill-rule:nonzero;"/><path d="M452.117,359.976l12.272,0l-33.813,-66.307l-33.806,66.307l11.018,0l7.013,-13.924l30.306,0l7.01,13.924Zm-32.819,-22.852l10.658,-21.164l10.656,21.164l-21.314,0Z" style="fill:#1f1f1f;fill-rule:nonzero;"/><path d="M51.22,487.72l-5.758,-0l-20.562,48.847l5.505,-0l5.975,-14.185l0.003,-0l-0.002,0.004l23.707,0l5.967,14.181l5.733,-0l-20.568,-48.847Zm6.881,29.961l-19.743,0l-0.004,0.009l0.001,-0.012l9.875,-23.444l9.87,23.444l0.001,0.003Z" style="fill:#1f1f1f;fill-rule:nonzero;"/><path d="M149.828,487.72l-17.904,-0l-0,48.848l5.934,0l-0,-19.886l11.97,0c9.292,0 17.078,-4.025 17.078,-14.413l-0,-0.273c-0,-10.188 -7.716,-14.276 -17.078,-14.276Zm11.144,14.549c0,6.287 -3.765,9.709 -10.735,9.709l-12.379,0l-0,-19.486l12.379,0c6.628,0 10.735,2.597 10.735,9.504l0,0.273Z" style="fill:#1f1f1f;fill-rule:nonzero;"/><path d="M208.308,487.72l-5.757,-0l-20.562,48.847l5.505,-0l5.973,-14.182l-0,0.001l0.007,-0.01l-0.004,0.01l23.706,0l5.968,14.181l5.733,-0l-20.569,-48.847Zm-2.989,6.514l9.868,23.444l-19.743,0l9.875,-23.444Z" style="fill:#1f1f1f;fill-rule:nonzero;"/><path d="M286.722,501.586l-0,-0.273c-0,-9.778 -7.711,-13.593 -17.077,-13.593l-18.724,-0l-0,48.848l5.933,0l0,-21.252l11.561,-0l14.554,21.252l6.624,0l-14.96,-21.662c6.703,-1.293 12.089,-5.256 12.089,-13.32Zm-29.868,9.026l0,-18.12l13.201,0c6.627,0 10.733,2.186 10.733,8.821l-0,0.273c-0,6.014 -3.764,9.026 -10.733,9.026l-13.201,-0Z" style="fill:#1f1f1f;fill-rule:nonzero;"/><path d="M307.195,492.56l18.251,0l0,44.008l5.934,0l-0,-44.008l18.251,0l0,-4.84l-42.436,-0l-0,4.84Z" style="fill:#1f1f1f;fill-rule:nonzero;"/><path d="M431.804,487.119c-14.342,-0 -24.04,10.927 -24.04,24.791l-0,0.551c-0,13.658 9.765,24.724 24.179,24.724c14.203,0 23.696,-11.066 23.696,-24.863l0,-0.545c0,-13.731 -9.493,-24.658 -23.835,-24.658Zm17.69,25.136c0,11.817 -6.695,20.009 -17.551,20.009c-10.176,-0 -18.029,-8.058 -18.029,-19.876l0,-0.545c0,-11.611 6.557,-19.942 17.89,-19.942c11.273,0 17.69,8.882 17.69,19.809l0,0.545Z" style="fill:#1f1f1f;fill-rule:nonzero;"/><path d="M481.664,536.568l5.934,0l-0,-21.867l21.668,-0l0,-4.841l-21.668,0l-0,-17.3l26.657,0l-0,-4.84l-32.591,-0l-0,48.848Z" style="fill:#1f1f1f;fill-rule:nonzero;"/><path d="M582.857,514.017l22.214,0l-0,-4.846l-22.214,0l-0,-16.611l26.587,0l0,-4.84l-32.522,-0l-0,48.848l33.751,0l0,-4.841l-27.816,0l-0,-17.71Z" style="fill:#1f1f1f;fill-rule:nonzero;"/><path d="M640.684,487.72l-5.939,-0l0,48.848l32.317,0l-0,-4.841l-26.378,0l0,-44.007Z" style="fill:#1f1f1f;fill-rule:nonzero;"/><path d="M696.452,514.017l22.208,0l0,-4.846l-22.208,0l0,-16.611l26.582,0l0,-4.84l-32.521,-0l-0,48.848l33.75,0l0,-4.841l-27.811,0l0,-17.71Z" style="fill:#1f1f1f;fill-rule:nonzero;"/><path d="M785.685,487.651l-7.026,0l-23.529,23.57l-0,-23.501l-5.939,-0l-0,48.848l5.939,0l-0,-23.843l24.077,23.843l7.571,0l-25.1,-25.142l24.007,-23.775Z" style="fill:#1f1f1f;fill-rule:nonzero;"/><path d="M803.678,492.56l18.251,0l0,44.008l5.934,0l0,-44.008l18.252,0l-0,-4.84l-42.437,-0l-0,4.84Z" style="fill:#1f1f1f;fill-rule:nonzero;"/><path d="M884.332,487.72l-5.758,-0l-20.563,48.847l5.506,-0l5.973,-14.184l-0,0.003l0.002,-0.004l0,0.004l23.707,0l5.968,14.181l5.733,-0l-20.568,-48.847Zm-14.842,34.662l0.001,-0.009l0,0.005l-0.001,0.004Zm21.722,-4.701l-19.752,0l0.006,-0.003l9.874,-23.444l9.872,23.444l-0,0.003Z" style="fill:#1f1f1f;fill-rule:nonzero;"/></g></g></svg>