<svg xmlns="http://www.w3.org/2000/svg" viewBox="0 0 348.468 83.828"><g data-name="Group 5"><path data-name="Path 12" d="M41.914 0a41.914 41.914 0 1041.915 41.914A41.914 41.914 0 0041.914 0zm22.813 33.059a2.1 2.1 0 01-2.093 2.093h-4.333a2.1 2.1 0 00-2.093 2.094v9.3a2.1 2.1 0 002.093 2.093h4.308a2.1 2.1 0 012.094 2.093v9.054a2.1 2.1 0 01-2.094 2.094H21.195a2.1 2.1 0 01-2.093-2.094v-9.054a2.1 2.1 0 012.093-2.093h4.331a2.1 2.1 0 002.093-2.093v-9.3a2.1 2.1 0 00-2.093-2.094h-4.307a2.1 2.1 0 01-2.093-2.093v-9.323a2.1 2.1 0 012.093-2.094h41.415a2.1 2.1 0 012.093 2.094z"/><g data-name="Group 4"><path data-name="Path 13" d="M218.344 36.945c-2.627-.951-5.343-1.262-6.884-1.878-1.355-.544-2.265-2.4-1.791-3.306a.3.3 0 01.024-.074 3.233 3.233 0 01.706-.944.173.173 0 01.037-.02.106.106 0 01.021-.013.977.977 0 01.2-.136l.013-.009a.861.861 0 01.183-.081 8.628 8.628 0 012.519-.292c3.3 0 9.095 1.908 10.159 2.325s1.846.744 2.35.968a2.2 2.2 0 002.474-.168 2.454 2.454 0 00.883-2.35l.02-9.882a2.353 2.353 0 00-.587-1.262 2.24 2.24 0 00-1.091-.752c-2.516-.841-11.97-2.058-15.384-2.058q-9.4 0-14.689 4.029a12.967 12.967 0 00-5.286 11.582 15.751 15.751 0 006.145 11.278c5.515 3.671 12.6 4.378 14.16 4.933 3.519 1.252 2.626 2.819 2.626 3.545q0 .671-.924.966a8.667 8.667 0 01-2.518.292 26.164 26.164 0 01-9.653-1.847q-2.52-.922-4.11-1.549a66.598 66.598 0 01-2.352-.969 2.2 2.2 0 00-2.476.168 2.454 2.454 0 00-.88 2.35l-.039 10.382a2.346 2.346 0 00.586 1.262 2.251 2.251 0 001.093.753 67.636 67.636 0 009.4 1.915 61.383 61.383 0 009.612.712q9.394 0 14.685-4.029t5.288-11.582c0-10.579-14.52-14.259-14.52-14.259z"/><path data-name="Path 14" d="M180.84 18.75h-13.513a1.827 1.827 0 00-1.511.752 2.794 2.794 0 00-.588 1.765v20.606h-.007v20.689a2.791 2.791 0 00.588 1.764 1.83 1.83 0 001.512.754h13.513a1.761 1.761 0 001.425-.754 2.8 2.8 0 00.585-1.764V41.956h.007V21.267a2.814 2.814 0 00-.584-1.765 1.762 1.762 0 00-1.427-.752z"/><path data-name="Path 15" d="M292.198 20.125a2.369 2.369 0 00-2.392-1.425h-15.443a2.5 2.5 0 00-.965.295 3.159 3.159 0 00-.88.545l-11.789 16.1-.007-14.37a2.579 2.579 0 00-2.517-2.517h-14.519a2.56 2.56 0 00-1.807.753 2.371 2.371 0 00-.8 1.764l.007 20.606h-.007v20.737a2.37 2.37 0 00.8 1.764 2.561 2.561 0 001.807.754h14.52a2.58 2.58 0 002.517-2.518V48.194l11.79 16.1a3.146 3.146 0 00.88.544 2.458 2.458 0 00.965.295H289.8a2.368 2.368 0 002.393-1.424 2.45 2.45 0 00-.546-2.772l-13.4-19.013 13.41-19.022a2.45 2.45 0 00.541-2.777z"/><path data-name="Path 16" d="M157.345 20.176a2.372 2.372 0 00-2.394-1.427h-15.442a2.535 2.535 0 00-.969.295 3.175 3.175 0 00-.88.545l-11.787 16.1-.006-14.421a2.578 2.578 0 00-2.519-2.516h-14.52a2.556 2.556 0 00-1.8.753 2.349 2.349 0 00-.8 1.763l.007 20.607h-.007v20.65a2.347 2.347 0 00.8 1.763 2.555 2.555 0 001.8.753h14.52a2.578 2.578 0 002.519-2.516v-14.38l11.787 16.1a3.138 3.138 0 00.88.545 2.528 2.528 0 00.967.295h15.445a2.37 2.37 0 002.391-1.426 2.458 2.458 0 00-.544-2.771l-13.37-18.964L156.8 22.952a2.457 2.457 0 00.545-2.776z"/><path data-name="Path 17" d="M348.468 41.956q-.1-11.436-7.292-18.144-7.215-6.717-19.468-6.715-12.172 0-19.389 6.715-7.174 6.675-7.286 18.061h-.011q.1 11.434 7.29 18.143 7.217 6.717 19.388 6.715 12.25 0 19.47-6.715 7.174-6.673 7.288-18.06zM321.7 51.539a8.3 8.3 0 01-6.549-2.643 11.652 11.652 0 01.007-13.964 8.309 8.309 0 016.55-2.641 8.406 8.406 0 016.627 2.641 11.636 11.636 0 01-.007 13.964 8.4 8.4 0 01-6.628 2.643z"/></g></g></svg>