<svg viewBox="0 0 1175 829" xmlns="http://www.w3.org/2000/svg" fill-rule="evenodd" clip-rule="evenodd" stroke-linejoin="round" stroke-miterlimit="2"><path d="M421.14 173.64c-10.763-.016-19.61-8.877-19.61-19.64V20.11C401.53 9.352 410.382.5 421.14.5s19.61 8.852 19.61 19.61V154c0 10.763-8.847 19.624-19.61 19.64zm0-169.64c-8.845-.005-16.129 7.265-16.14 16.11V154c0 8.838 7.272 16.11 16.11 16.11s16.11-7.272 16.11-16.11V20.11c-.011-8.822-7.258-16.083-16.08-16.11zM11.8 702.47c-6.471-.005-11.795-5.329-11.8-11.8v-27.12c0-6.473 5.327-11.8 11.8-11.8 6.473 0 11.8 5.327 11.8 11.8v27.12c-.005 6.471-5.329 11.795-11.8 11.8zm0-47.22c-4.551.005-8.295 3.749-8.3 8.3v27.12c0 4.553 3.747 8.3 8.3 8.3 4.553 0 8.3-3.747 8.3-8.3v-27.12c-.005-4.551-3.749-8.295-8.3-8.3z" fill="#ba9cdb" fill-rule="nonzero"/><path d="M69.64 828.11c-10.88-.011-19.829-8.96-19.84-19.84 0-17.07 15.3-28.94 36.48-45.38 16.81-13 44.94-34.89 44.94-49.6 0-10.884 8.956-19.84 19.84-19.84s19.84 8.956 19.84 19.84c0 31.32-27.62 55.47-55.9 77.53l-2.15-2.76c27.6-21.52 54.55-45 54.55-74.77 0-8.964-7.376-16.34-16.34-16.34-8.964 0-16.34 7.376-16.34 16.34 0 16.43-27.86 38.05-46.29 52.36C68 781.48 53.3 792.92 53.3 808.27c.011 8.96 7.38 16.329 16.34 16.34v3.5z" fill="#ff9a1b" fill-rule="nonzero"/><path d="M151.76 733.13c-10.88-.011-19.829-8.96-19.84-19.84 0-11.438-9.412-20.85-20.85-20.85s-20.85 9.412-20.85 20.85c0 10.884-8.956 19.84-19.84 19.84s-19.84-8.956-19.84-19.84c0-33.206 27.324-60.53 60.53-60.53s60.53 27.324 60.53 60.53c-.011 10.88-8.96 19.829-19.84 19.84zm-40.69-44.2c13.354.022 24.334 11.006 24.35 24.36 0 8.964 7.376 16.34 16.34 16.34 8.964 0 16.34-7.376 16.34-16.34 0-31.286-25.744-57.03-57.03-57.03s-57.03 25.744-57.03 57.03c0 8.964 7.376 16.34 16.34 16.34 8.964 0 16.34-7.376 16.34-16.34.011-13.356 10.994-24.344 24.35-24.36z" fill="#ff4cab" fill-rule="nonzero"/><path d="M151.06 828.1H69.64c-10.884 0-19.84-8.956-19.84-19.84s8.956-19.84 19.84-19.84h81.42c10.884 0 19.84 8.956 19.84 19.84s-8.956 19.84-19.84 19.84zm-81.42-36.18c-8.964 0-16.34 7.376-16.34 16.34 0 8.964 7.376 16.34 16.34 16.34h81.42c8.964 0 16.34-7.376 16.34-16.34 0-8.964-7.376-16.34-16.34-16.34H69.64z" fill="#5ec2ee" fill-rule="nonzero"/><path d="M84.86 827.92h-15.2c-10.835 0-19.75-8.915-19.75-19.75s8.915-19.75 19.75-19.75h15.2c10.835 0 19.75 8.915 19.75 19.75s-8.915 19.75-19.75 19.75zm-15.22-36c-8.914 0-16.25 7.336-16.25 16.25s7.336 16.25 16.25 16.25h15.2c8.914 0 16.25-7.336 16.25-16.25s-7.336-16.25-16.25-16.25h-15.2z" fill="#ba9cdb" fill-rule="nonzero"/><path d="M545.76 78.8c-10.524-.011-19.262-8.482-19.6-19v-.56C526.519 26.686 553.354.08 585.91 0h.09a59.75 59.75 0 0137.49 13.29 19.622 19.622 0 017.163 15.153c0 10.758-8.852 19.61-19.61 19.61-4.444 0-8.759-1.51-12.233-4.283a20.577 20.577 0 00-12.9-4.548c-11.276 0-20.558 9.272-20.57 20.548-.322 10.522-9.053 19.008-19.58 19.03zm-16.11-19.39c.06 8.796 7.314 16 16.11 16 8.838 0 16.11-7.272 16.11-16.11v-.11c.329-12.965 11.083-23.45 24.052-23.45A24.066 24.066 0 01601 41.05a16.11 16.11 0 009.612 3.182c8.838 0 16.11-7.273 16.11-16.11 0-4.616-1.984-9.016-5.442-12.072A56.246 56.246 0 00586 3.5h-.12c-30.696.081-55.974 25.215-56.23 55.91z" fill="#ff4cab" fill-rule="nonzero"/><path d="M572.54 170.87a19.566 19.566 0 01-6.54-1.13c-23.875-8.468-39.91-31.208-39.87-56.54v-54c0-10.758 8.852-19.61 19.61-19.61s19.61 8.852 19.61 19.61v54.06c-.026 8.736 5.498 16.585 13.73 19.51 7.809 2.771 13.058 10.204 13.058 18.49 0 10.755-8.843 19.608-19.598 19.62v-.01zm-26.8-127.79c-8.834.011-16.099 7.276-16.11 16.11v54c-.038 23.85 15.061 45.26 37.54 53.23 1.725.61 3.541.921 5.37.921 8.838 0 16.111-7.273 16.111-16.111 0-6.811-4.319-12.92-10.741-15.19-9.626-3.419-16.086-12.595-16.06-22.81V59.19c-.011-8.834-7.276-16.099-16.11-16.11z" fill="#5ec2ee" fill-rule="nonzero"/><path d="M70.78 174.64c-32.77-.066-59.714-27.01-59.78-59.78V92.53h3.5v22.33c0 30.88 25.41 56.29 56.29 56.29s56.29-25.41 56.29-56.29V20.53c0-8.838-7.272-16.11-16.11-16.11s-16.11 7.272-16.11 16.11v94.32c0 13.204-10.866 24.07-24.07 24.07s-24.07-10.866-24.07-24.07V92.53h3.5v22.32c0 11.284 9.286 20.57 20.57 20.57s20.57-9.286 20.57-20.57V20.53c0-10.758 8.852-19.61 19.61-19.61s19.61 8.852 19.61 19.61v94.32c-.038 32.789-27.011 59.757-59.8 59.79z" fill="#ff9a1b" fill-rule="nonzero"/><path d="M191.32 130c-10.752-.016-19.594-8.858-19.61-19.61v-89.3c0-10.758 8.852-19.61 19.61-19.61s19.61 8.852 19.61 19.61v89.28c-.005 10.759-8.851 19.614-19.61 19.63zm0-125c-8.834.011-16.099 7.276-16.11 16.11v89.28c0 8.838 7.272 16.11 16.11 16.11s16.11-7.272 16.11-16.11v-89.3c-.022-8.826-7.284-16.079-16.11-16.09z" fill="#ba9cdb" fill-rule="nonzero"/><path d="M70.78 174.64c-32.77-.066-59.714-27.01-59.78-59.78v-67c0-10.758 8.852-19.61 19.61-19.61s19.61 8.852 19.61 19.61v67c.027 11.278 9.302 20.548 20.58 20.57v3.5c-13.198-.022-24.053-10.872-24.08-24.07v-67c0-8.838-7.272-16.11-16.11-16.11S14.5 39.022 14.5 47.86v67c.055 30.854 25.426 56.225 56.28 56.28v3.5z" fill="#ff9a1b" fill-rule="nonzero"/><path d="M30.6 67.58C19.864 67.558 11.033 58.736 11 48V21.09c0-10.758 8.852-19.61 19.61-19.61s19.61 8.852 19.61 19.61V48c-.033 10.744-8.876 19.569-19.62 19.58zM30.6 5c-8.826.011-16.088 7.264-16.11 16.09V48c0 8.838 7.272 16.11 16.11 16.11S46.71 56.838 46.71 48V21.09C46.688 12.264 39.426 5.011 30.6 5z" fill="#ff4cab" fill-rule="nonzero"/><path d="M151.19 174.64c-32.79-.038-59.769-26.99-59.84-59.78v-47c0-10.758 8.852-19.61 19.61-19.61s19.61 8.852 19.61 19.61v47c.034 11.288 9.332 20.557 20.62 20.557 2.319 0 4.621-.391 6.81-1.157 8.1-2.88 13.72-14.67 13.7-23.46-.017-10.754 8.806-19.622 19.56-19.66 10.733.016 19.566 8.827 19.61 19.56.07 26.42-17 52.42-39.79 60.52l-.16.05-.57.18-.37.11-.22.06-.31.1a59.634 59.634 0 01-18.26 2.92zM111.02 51.78h-.04c-8.841 0-16.119 7.269-16.13 16.11v47.06c0 30.842 25.379 56.22 56.22 56.22 5.909 0 11.781-.931 17.4-2.76h.1l.18-.06.25-.07.45-.14.39-.12h.13c21.43-7.62 37.53-32.2 37.46-57.21-.038-8.816-7.294-16.054-16.11-16.07-8.832.033-16.076 7.318-16.06 16.15 0 10.17-6.41 23.35-16 26.77a24.128 24.128 0 01-7.99 1.362c-13.214 0-24.094-10.858-24.12-24.072v-47-.04c0-8.849-7.281-16.13-16.13-16.13z" fill="#5ec2ee" fill-rule="nonzero"/><path d="M372.24 472.34h-33c-10.758 0-19.61-8.852-19.61-19.61s8.852-19.61 19.61-19.61h33c10.758 0 19.61 8.852 19.61 19.61s-8.852 19.61-19.61 19.61zm-33-35.72c-8.838 0-16.11 7.272-16.11 16.11s7.272 16.11 16.11 16.11h33c8.838 0 16.11-7.272 16.11-16.11s-7.272-16.11-16.11-16.11h-33z" fill="#ba9cdb" fill-rule="nonzero"/><path d="M372.24 606.26h-33c-10.758 0-19.61-8.852-19.61-19.61s8.852-19.61 19.61-19.61h33c10.758 0 19.61 8.852 19.61 19.61s-8.852 19.61-19.61 19.61zm-33-35.72c-8.838 0-16.11 7.272-16.11 16.11s7.272 16.11 16.11 16.11h33c8.838 0 16.11-7.272 16.11-16.11s-7.272-16.11-16.11-16.11h-33z" fill="#5ec2ee" fill-rule="nonzero"/><path d="M338.64 606.26c-32.785-.038-59.752-27.005-59.79-59.79v-53.56c.038-32.785 27.005-59.752 59.79-59.79 10.758 0 19.61 8.852 19.61 19.61s-8.852 19.61-19.61 19.61c-11.278.016-20.554 9.292-20.57 20.57v53.56c.038 11.263 9.307 20.514 20.57 20.53 10.758 0 19.61 8.852 19.61 19.61s-8.852 19.61-19.61 19.61v.04zm0-169.64c-30.867.033-56.257 25.423-56.29 56.29v53.56c.033 30.867 25.423 56.257 56.29 56.29 8.838 0 16.11-7.272 16.11-16.11s-7.272-16.11-16.11-16.11c-13.198-.016-24.054-10.872-24.07-24.07v-53.56c.016-13.198 10.872-24.054 24.07-24.07 8.838 0 16.11-7.272 16.11-16.11s-7.272-16.11-16.11-16.11z" fill="#ff9a1b" fill-rule="nonzero"/><path d="M355.26 534.82h-37.7c-8.306 0-15.14-6.834-15.14-15.14 0-8.306 6.834-15.14 15.14-15.14h37.7c8.306 0 15.14 6.834 15.14 15.14 0 8.306-6.834 15.14-15.14 15.14zM317.56 508c-6.386 0-11.64 5.254-11.64 11.64 0 6.386 5.254 11.64 11.64 11.64h37.7c6.386 0 11.64-5.254 11.64-11.64 0-6.386-5.254-11.64-11.64-11.64h-37.7zm170.16-334.36h-66.58c-10.758 0-19.61-8.852-19.61-19.61s8.852-19.61 19.61-19.61h66.58c10.758 0 19.61 8.852 19.61 19.61s-8.852 19.61-19.61 19.61zm-66.58-35.72c-8.838 0-16.11 7.272-16.11 16.11s7.272 16.11 16.11 16.11h66.58c8.838 0 16.11-7.272 16.11-16.11s-7.272-16.11-16.11-16.11h-66.58z" fill="#ff4cab" fill-rule="nonzero"/><path d="M421.14 56.8c-10.752-.016-19.594-8.858-19.61-19.61V20.11C401.53 9.352 410.382.5 421.14.5s19.61 8.852 19.61 19.61v17.08c-.016 10.752-8.858 19.594-19.61 19.61zm0-52.8c-8.845-.005-16.129 7.265-16.14 16.11v17.08c0 8.838 7.272 16.11 16.11 16.11s16.11-7.272 16.11-16.11V20.11c-.011-8.822-7.258-16.083-16.08-16.11z" fill="#ff9a1b" fill-rule="nonzero"/><path d="M421.14 173.38c-10.752-.016-19.594-8.858-19.61-19.61v-25c0-10.758 8.852-19.61 19.61-19.61s19.61 8.852 19.61 19.61v25c-.016 10.752-8.858 19.594-19.61 19.61zm0-60.72c-8.845-.005-16.129 7.265-16.14 16.11v25c0 8.838 7.272 16.11 16.11 16.11s16.11-7.272 16.11-16.11v-25c-.011-8.822-7.258-16.083-16.08-16.11zm293.38 58.21a19.632 19.632 0 01-6.56-1.14c-23.796-8.475-39.79-31.13-39.81-56.39V62.87c0-10.758 8.852-19.61 19.61-19.61s19.61 8.852 19.61 19.61v50.48c.012 8.698 5.518 16.497 13.71 19.42 7.794 2.78 13.03 10.205 13.03 18.48 0 10.752-8.838 19.603-19.59 19.62zM687.76 46.76c-8.834.011-16.099 7.276-16.11 16.11v50.47c.021 23.781 15.078 45.11 37.48 53.09 1.67.567 3.421.857 5.184.857 8.838 0 16.11-7.272 16.11-16.11a16.14 16.14 0 00-10.514-15.107c-9.57-3.431-15.994-12.554-16-22.72V62.87c-.011-8.841-7.289-16.11-16.13-16.11h-.02z" fill="#5ec2ee" fill-rule="nonzero"/><path d="M727.92 173.14h-.07a59.648 59.648 0 01-19.85-3.39c-7.724-2.815-12.895-10.203-12.895-18.424 0-10.758 8.853-19.61 19.61-19.61 2.138 0 4.261.349 6.285 1.034a21.689 21.689 0 006.9 1.17c11.274-.022 20.544-9.296 20.56-20.57V95c0-10.758 8.852-19.61 19.61-19.61s19.61 8.852 19.61 19.61v18.34c-.033 32.778-26.982 59.745-59.76 59.8zm-13.41-38c-8.833.015-16.092 7.287-16.092 16.12 0 6.817 4.324 12.93 10.752 15.2a56.169 56.169 0 0018.68 3.19h.07c30.867-.033 56.257-25.423 56.29-56.29V95c.003-.134.005-.268.005-.401 0-8.838-7.272-16.11-16.11-16.11s-16.11 7.272-16.11 16.11c0 .133.002.267.005.401v18.34c-.022 13.204-10.886 24.059-24.09 24.07a25.389 25.389 0 01-8-1.37 16.279 16.279 0 00-5.4-.91v.01zm-128.51 38h-.22a59.132 59.132 0 01-19.77-3.4c-7.824-2.762-13.089-10.202-13.089-18.5 0-10.762 8.857-19.619 19.619-19.619 2.224 0 4.433.379 6.53 1.119 8.116 2.843 17.196.326 22.69-6.29a19.622 19.622 0 0115.16-7.171c10.758 0 19.611 8.853 19.611 19.611 0 4.536-1.574 8.934-4.451 12.44A59.436 59.436 0 01586 173.14zm-13.47-38h-.012c-8.838 0-16.11 7.272-16.11 16.11a16.142 16.142 0 0010.772 15.2 55.803 55.803 0 0018.6 3.2h.22a55.93 55.93 0 0043.37-20.51 16.111 16.111 0 003.841-10.44c0-8.838-7.273-16.11-16.11-16.11a16.12 16.12 0 00-12.631 6.11 23.896 23.896 0 01-18.53 8.73h-.16a23.768 23.768 0 01-7.88-1.36 16.117 16.117 0 00-5.37-.94v.01z" fill="#ff9a1b" fill-rule="nonzero"/><path d="M612.22 607.38c-10.88-.005-19.834-8.95-19.85-19.83v-135.7c.005-10.88 8.95-19.834 19.83-19.85 10.872.016 19.814 8.958 19.83 19.83v135.7c0 10.874-8.936 19.828-19.81 19.85zm0-171.86c-8.954.011-16.319 7.376-16.33 16.33v135.7c0 8.964 7.376 16.34 16.34 16.34 8.964 0 16.34-7.376 16.34-16.34v-135.7c-.011-8.954-7.376-16.319-16.33-16.33h-.02zM946.23 570h-3.5V449.85c0-6.76-7-14.33-16.33-14.33-9.33 0-16.35 7.57-16.35 14.33v119.41h-3.5V449.85c0-9.33 9.45-17.83 19.83-17.83 10.38 0 19.85 8.5 19.85 17.83V570z" fill="#5ec2ee" fill-rule="nonzero"/><path d="M926.4 497.5c-10.88-.005-19.834-8.95-19.85-19.83v-25.82c.005-10.88 8.95-19.834 19.83-19.85 10.872.016 19.814 8.958 19.83 19.83v25.82c0 10.874-8.936 19.828-19.81 19.85zm0-62c-8.954.011-16.319 7.376-16.33 16.33v25.82c0 8.964 7.376 16.34 16.34 16.34 8.964 0 16.34-7.376 16.34-16.34v-25.8c-.011-8.954-7.376-16.319-16.33-16.33l-.02-.02z" fill="#ff4cab" fill-rule="nonzero"/><path d="M1007.4 607.39a19.706 19.706 0 01-14.06-5.84l-31.64-31.76c-25.316-25.393-25.316-67.097 0-92.49l38-38.1a19.848 19.848 0 0114.383-6.175c10.884 0 19.84 8.957 19.84 19.84a19.845 19.845 0 01-6.123 14.335l-38 38.12c-9.986 9.991-9.986 26.429 0 36.42l31.67 31.79a19.845 19.845 0 015.782 14c0 10.884-8.956 19.84-19.84 19.84h-.002l-.01.02zm6.36-170.51a16.305 16.305 0 00-11.57 4.79l-38 38.1c-23.965 24.037-23.965 63.513 0 87.55l31.64 31.76a16.358 16.358 0 0011.585 4.812c8.97 0 16.352-7.382 16.352-16.352 0-4.324-1.715-8.476-4.767-11.54l-31.67-31.78c-11.345-11.353-11.345-30.027 0-41.38l38-38.11a16.336 16.336 0 004.776-11.54c0-8.958-7.372-16.33-16.33-16.33h-.016v.02zM655.12 545.59h-15.78c-10.884 0-19.84-8.956-19.84-19.84s8.956-19.84 19.84-19.84h15.78c9.386 0 17.11-7.724 17.11-17.11s-7.724-17.11-17.11-17.11H612.2c-10.884 0-19.84-8.956-19.84-19.84s8.956-19.84 19.84-19.84h42.92c31.154 0 56.79 25.636 56.79 56.79s-25.636 56.79-56.79 56.79zm-15.78-36.18c-8.964 0-16.34 7.376-16.34 16.34 0 8.964 7.376 16.34 16.34 16.34h15.78c29.234 0 53.29-24.056 53.29-53.29 0-29.234-24.056-53.29-53.29-53.29H612.2c-8.964 0-16.34 7.376-16.34 16.34 0 8.964 7.376 16.34 16.34 16.34h42.92c11.306 0 20.61 9.304 20.61 20.61s-9.304 20.61-20.61 20.61h-15.78z" fill="#ff9a1b" fill-rule="nonzero"/><path d="M693.61 607.37a19.88 19.88 0 01-14.92-6.75l-54.26-61.78a19.847 19.847 0 01-4.931-13.09c0-10.884 8.957-19.841 19.841-19.841a19.849 19.849 0 0114.91 6.751l54.26 61.78a19.847 19.847 0 014.931 13.09c0 10.881-8.95 19.835-19.831 19.84zm-54.29-98c-8.956.011-16.32 7.384-16.32 16.34 0 3.966 1.443 7.8 4.06 10.78l54.26 61.78a16.35 16.35 0 0012.28 5.56c8.964 0 16.34-7.376 16.34-16.34 0-3.966-1.444-7.799-4.06-10.78L651.62 515a16.285 16.285 0 00-11.22-5.53l-1.08-.1z" fill="#ff4cab" fill-rule="nonzero"/><path d="M612.22 607.36c-10.88-.005-19.834-8.95-19.85-19.83v-15.24c.016-10.872 8.958-19.814 19.83-19.83 10.872.016 19.814 8.958 19.83 19.83v15.24c-.016 10.865-8.945 19.803-19.81 19.83zm0-51.4c-8.954.011-16.319 7.376-16.33 16.33v15.24c0 8.964 7.376 16.34 16.34 16.34 8.964 0 16.34-7.376 16.34-16.34v-15.24c-.033-8.947-7.403-16.29-16.35-16.29v-.04zm314.18 51.66c-10.88-.005-19.834-8.95-19.85-19.83v-20.9c0-10.884 8.956-19.84 19.84-19.84s19.84 8.956 19.84 19.84v20.9c-.016 10.872-8.958 19.814-19.83 19.83zm0-57.06c-8.96.005-16.334 7.37-16.35 16.33v20.9c0 8.964 7.376 16.34 16.34 16.34 8.964 0 16.34-7.376 16.34-16.34v-20.9c-.011-8.954-7.376-16.319-16.33-16.33z" fill="#ba9cdb" fill-rule="nonzero"/><path d="M294.28 308.78c-10.752-.016-19.594-8.858-19.61-19.61v-13.38c.038-32.785 27.005-59.752 59.79-59.79h.1a59.758 59.758 0 0137.57 13.35 19.626 19.626 0 017.243 15.22c0 10.759-8.854 19.613-19.613 19.613a19.617 19.617 0 01-12.37-4.393 20.571 20.571 0 00-12.93-4.572c-11.284 0-20.57 9.286-20.57 20.57v13.382c-.016 10.752-8.858 19.594-19.61 19.61zm40.18-89.28c-30.867.033-56.257 25.423-56.29 56.29v13.38c0 8.838 7.272 16.11 16.11 16.11s16.11-7.272 16.11-16.11v-13.38c.007-13.205 10.875-24.067 24.08-24.067a24.086 24.086 0 0115.13 5.347 16.113 16.113 0 009.976 3.46c8.837 0 16.11-7.272 16.11-16.11a16.12 16.12 0 00-5.766-12.35 56.213 56.213 0 00-35.36-12.57h-.1z" fill="#ff4cab" fill-rule="nonzero"/><path d="M321.08 386.87a19.566 19.566 0 01-6.54-1.13c-23.875-8.468-39.91-31.208-39.87-56.54v-40c0-10.758 8.852-19.61 19.61-19.61s19.61 8.852 19.61 19.61v40.08c-.026 8.736 5.498 16.585 13.73 19.51 7.809 2.771 13.058 10.204 13.058 18.49 0 10.755-8.843 19.608-19.598 19.62v-.03zm-26.8-113.81c-8.834.011-16.099 7.276-16.11 16.11v40c-.038 23.85 15.061 45.26 37.54 53.23 1.725.61 3.541.921 5.37.921 8.838 0 16.111-7.273 16.111-16.111 0-6.811-4.319-12.92-10.741-15.19-9.626-3.419-16.086-12.595-16.06-22.81v-40.04c-.011-8.834-7.276-16.099-16.11-16.11z" fill="#5ec2ee" fill-rule="nonzero"/><path d="M374.68 328.66c-10.752-.016-19.594-8.858-19.61-19.61v-33.22a20.423 20.423 0 00-7.63-16 19.624 19.624 0 01-7.292-15.26c0-10.759 8.853-19.612 19.612-19.612 4.482 0 8.832 1.536 12.32 4.352a59.506 59.506 0 0122.21 46.54v33.2c-.016 10.752-8.858 19.594-19.61 19.61zm-14.9-100.19h-.014c-8.838 0-16.11 7.272-16.11 16.11a16.12 16.12 0 005.984 12.53 23.916 23.916 0 018.93 18.72v33.22c0 8.838 7.272 16.11 16.11 16.11s16.11-7.272 16.11-16.11v-33.2A56.035 56.035 0 00369.88 232a16.006 16.006 0 00-10.1-3.53z" fill="#ba9cdb" fill-rule="nonzero"/><path d="M334.51 389.14h-.1a59.4 59.4 0 01-19.86-3.4c-7.824-2.762-13.089-10.202-13.089-18.5 0-10.762 8.857-19.619 19.619-19.619 2.224 0 4.433.379 6.53 1.119a19.408 19.408 0 006.77 1.16h.07c11.27 0 20.545-9.27 20.55-20.54V311c0-10.758 8.852-19.61 19.61-19.61s19.61 8.852 19.61 19.61v18.34c.005 32.783-26.957 59.768-59.74 59.79l.03.01zm-13.41-38h-.014c-8.838 0-16.11 7.272-16.11 16.11a16.142 16.142 0 0010.744 15.19 56.05 56.05 0 0018.69 3.2h.1c30.865-.016 56.251-25.425 56.24-56.29V311c0-8.838-7.272-16.11-16.11-16.11s-16.11 7.272-16.11 16.11V329.36c0 13.193-10.857 24.05-24.05 24.05h-.05a22.291 22.291 0 01-8-1.36 16.076 16.076 0 00-5.33-.91z" fill="#ff9a1b" fill-rule="nonzero"/><path d="M192.84 389.64c-10.763-.016-19.61-8.877-19.61-19.64V238.11h3.5V370c0 8.851 7.284 16.135 16.135 16.135 8.851 0 16.135-7.284 16.135-16.135V238.11h3.5V370c0 10.774-8.866 19.64-19.64 19.64h-.02z" fill="#5ec2ee" fill-rule="nonzero"/><path d="M192.84 299.84c-10.752-.016-19.594-8.858-19.61-19.61v-42.86c0-10.758 8.852-19.61 19.61-19.61s19.61 8.852 19.61 19.61v42.86c-.016 10.752-8.858 19.594-19.61 19.61zm0-78.58c-8.834.011-16.099 7.276-16.11 16.11v42.86c0 8.838 7.272 16.11 16.11 16.11s16.11-7.272 16.11-16.11v-42.86c-.011-8.834-7.276-16.099-16.11-16.11z" fill="#ff4cab" fill-rule="nonzero"/><path d="M238.48 255.7H147.2c-10.758 0-19.61-8.852-19.61-19.61s8.852-19.61 19.61-19.61h91.28c10.758 0 19.61 8.852 19.61 19.61s-8.852 19.61-19.61 19.61zM147.2 220c-8.838 0-16.11 7.272-16.11 16.11s7.272 16.11 16.11 16.11h91.28c8.838 0 16.11-7.272 16.11-16.11S247.318 220 238.48 220H147.2z" fill="#ff9a1b" fill-rule="nonzero"/><path d="M192.84 389.58c-10.74-.016-19.577-8.84-19.61-19.58v-21.47c0-10.758 8.852-19.61 19.61-19.61s19.61 8.852 19.61 19.61V370c-.033 10.74-8.87 19.564-19.61 19.58zm0-57.16c-8.834.011-16.099 7.276-16.11 16.11V370c0 8.851 7.284 16.135 16.135 16.135 8.851 0 16.135-7.284 16.135-16.135v-21.47c-.011-8.841-7.289-16.11-16.13-16.11h-.03zM768.1 112.64c-10.763-.016-19.61-8.877-19.61-19.64V59.75a20.492 20.492 0 00-7.63-16 19.617 19.617 0 01-7.285-15.25c0-10.755 8.85-19.605 19.605-19.605a19.61 19.61 0 0112.32 4.355 59.525 59.525 0 0122.21 46.46V93c0 10.763-8.847 19.624-19.61 19.64zM753.2 12.43h-.03c-8.832 0-16.1 7.268-16.1 16.1 0 4.864 2.204 9.476 5.99 12.53A24.015 24.015 0 01752 59.75V93c0 8.838 7.272 16.11 16.11 16.11s16.11-7.272 16.11-16.11V59.74A56.034 56.034 0 00763.3 16a16 16 0 00-10.1-3.57z" fill="#ba9cdb" fill-rule="nonzero"/><path d="M771.21 568.94v-3.5h.1c8.907-.066 16.189-7.433 16.15-16.34v-97.25c0-8.914-7.336-16.25-16.25-16.25s-16.25 7.336-16.25 16.25v89h-3.5v-89c0-10.835 8.915-19.75 19.75-19.75s19.75 8.915 19.75 19.75v97.24c.044 10.83-8.82 19.784-19.65 19.85h-.1z" fill="#ff9a1b" fill-rule="nonzero"/><path d="M771.2 568.94c-10.83-.011-19.739-8.92-19.75-19.75V452H755v97.24c.217 8.765 7.487 15.857 16.255 15.857 8.768 0 16.038-7.092 16.255-15.857v-89H791v89c-.038 10.83-8.97 19.717-19.8 19.7z" fill="#ff9a1b" fill-rule="nonzero"/><path d="M852.57 568.94c-10.783-.022-19.664-8.857-19.74-19.64v-71.45h3.5v71.44c.065 8.873 7.377 16.139 16.25 16.15h.09c8.914-.005 16.249-7.336 16.26-16.25V472h3.5v77.24c-.011 10.83-8.92 19.739-19.75 19.75l-.11-.05z" fill="#5ec2ee" fill-rule="nonzero"/><path d="M836.33 549.09h-3.5v-97.24c.016-10.84 8.94-19.75 19.78-19.75h.09c10.785.016 19.669 8.855 19.74 19.64v91.45h-3.5v-91.44c-.243-8.774-7.526-15.859-16.304-15.859-8.815 0-16.116 7.146-16.306 15.959v97.24z" fill="#5ec2ee" fill-rule="nonzero"/><path d="M853 493.56c-10.882 0-19.839-8.948-19.85-19.83v-21.9c.241-10.713 9.119-19.395 19.835-19.395 10.716 0 19.594 8.682 19.835 19.395v21.9c-.005 10.873-8.947 19.819-19.82 19.83zm0-58.06c-8.962 0-16.339 7.368-16.35 16.33v21.9c.218 8.809 7.524 15.936 16.335 15.936s16.117-7.127 16.335-15.936v-21.9c-.011-8.95-7.37-16.314-16.32-16.33z" fill="#ba9cdb" fill-rule="nonzero"/><path d="M927.86 177.72c-10.752-.016-19.594-8.858-19.61-19.61V60.29v-.032c0-11.268-9.272-20.54-20.54-20.54a20.54 20.54 0 00-6.81 1.162l-.26.08a20.374 20.374 0 00-13.27 15.91v20.46c0 10.758-8.852 19.61-19.61 19.61s-19.61-8.852-19.61-19.61V55.49c.001-.789.048-1.577.14-2.36 2.66-22.569 18.019-41.726 39.47-49.23.62-.22 1.26-.4 2-.57a59.353 59.353 0 0118-2.83h.1c32.75.093 59.653 27.05 59.68 59.8v97.81c-.016 10.763-8.877 19.61-19.64 19.61h-.04zm-40.17-141.5c13.194.022 24.044 10.876 24.06 24.07v97.82c0 8.838 7.272 16.11 16.11 16.11s16.11-7.272 16.11-16.11V60.3c-.022-30.832-25.348-56.212-56.18-56.3h-.1a55.997 55.997 0 00-17 2.68h-.12c-.6.15-1.14.31-1.66.49-20.196 7.064-34.657 25.101-37.16 46.35-.08.644-.12 1.291-.12 1.94v21.87c0 8.838 7.272 16.11 16.11 16.11s16.11-7.272 16.11-16.11V56.44a24.186 24.186 0 0115.58-18.78l.25-.07a23.885 23.885 0 018.01-1.37z" fill="#5ec2ee" fill-rule="nonzero"/><path d="M847.72 173.64c-10.763-.016-19.61-8.877-19.61-19.64V64.75c0-10.758 8.852-19.61 19.61-19.61s19.61 8.852 19.61 19.61V154c0 10.763-8.847 19.624-19.61 19.64zm0-125c-8.834.011-16.099 7.276-16.11 16.11V154c0 8.838 7.272 16.11 16.11 16.11s16.11-7.272 16.11-16.11V64.75c-.011-8.834-7.276-16.099-16.11-16.11z" fill="#ff9a1b" fill-rule="nonzero"/><path d="M812 607.39c-33.202-.033-60.516-27.338-60.56-60.54a22.008 22.008 0 01-.005-.445c0-10.884 8.956-19.84 19.84-19.84s19.84 8.956 19.84 19.84c0 .148-.002.297-.005.445.016 11.449 9.441 20.86 20.89 20.86 11.44-.005 20.85-9.42 20.85-20.86v-.01c0-10.884 8.956-19.84 19.84-19.84s19.84 8.956 19.84 19.84v.02c0 33.206-27.324 60.53-60.53 60.53zm-40.73-76.88c-8.933.049-16.259 7.407-16.27 16.34 0 31.288 25.747 57.035 57.035 57.035 31.288 0 57.035-25.747 57.035-57.035 0-8.964-7.376-16.34-16.34-16.34-8.964 0-16.34 7.376-16.34 16.34 0 13.364-10.996 24.36-24.36 24.36-13.364 0-24.36-10.996-24.36-24.36-.011-8.967-7.393-16.34-16.36-16.34h-.04z" fill="#ff4cab" fill-rule="nonzero"/><path d="M447.17 568.94v-3.5h.1c8.907-.066 16.189-7.433 16.15-16.34v-97.25c0-8.914-7.336-16.25-16.25-16.25s-16.25 7.336-16.25 16.25v89h-3.5v-89c0-10.835 8.915-19.75 19.75-19.75s19.75 8.915 19.75 19.75v97.24c.044 10.827-8.813 19.779-19.64 19.85h-.11z" fill="#ff9a1b" fill-rule="nonzero"/><path d="M447.17 568.94c-10.83-.011-19.739-8.92-19.75-19.75V452h3.5v97.24c0 8.914 7.336 16.25 16.25 16.25s16.25-7.336 16.25-16.25v-89h3.5v89c-.038 10.811-8.938 19.689-19.75 19.7z" fill="#ff9a1b" fill-rule="nonzero"/><path d="M528.54 568.94c-10.785-.016-19.669-8.855-19.74-19.64v-71.45h3.5v71.34c.022 8.906 7.344 16.228 16.25 16.25h.09c8.914-.005 16.249-7.336 16.26-16.25V472h3.5v77.24c-.011 10.83-8.92 19.739-19.75 19.75l-.11-.05z" fill="#5ec2ee" fill-rule="nonzero"/><path d="M512.3 549.09h-3.5v-97.24c.011-10.83 8.92-19.739 19.75-19.75h.11c10.789.005 19.68 8.851 19.74 19.64v91.45h-3.5v-91.44c-.055-8.877-7.373-16.15-16.25-16.15h-.09c-8.914.005-16.249 7.336-16.26 16.25v97.24z" fill="#5ec2ee" fill-rule="nonzero"/><path d="M529 493.56c-10.88-.005-19.834-8.95-19.85-19.83v-21.9c0-10.884 8.956-19.84 19.84-19.84s19.84 8.956 19.84 19.84v21.9c-.011 10.874-8.956 19.819-19.83 19.83zm0-58.06c-8.96.005-16.334 7.37-16.35 16.33v21.9c0 8.964 7.376 16.34 16.34 16.34 8.964 0 16.34-7.376 16.34-16.34v-21.9c-.011-8.954-7.376-16.319-16.33-16.33z" fill="#ba9cdb" fill-rule="nonzero"/><path d="M488 607.39c-33.206-.027-60.526-27.334-60.57-60.54 0-10.884 8.956-19.84 19.84-19.84s19.84 8.956 19.84 19.84c0 11.443 9.417 20.86 20.86 20.86s20.86-9.417 20.86-20.86c0-10.884 8.956-19.84 19.84-19.84s19.84 8.956 19.84 19.84c.005 33.202-27.308 60.529-60.51 60.54zm-40.73-76.88c-8.96.011-16.329 7.38-16.34 16.34 0 31.291 25.749 57.04 57.04 57.04s57.04-25.749 57.04-57.04c0-8.964-7.376-16.34-16.34-16.34-8.964 0-16.34 7.376-16.34 16.34 0 13.364-10.996 24.36-24.36 24.36-13.364 0-24.36-10.996-24.36-24.36-.011-8.967-7.393-16.34-16.36-16.34h.02z" fill="#ff4cab" fill-rule="nonzero"/><path d="M1099.76 603.67a19.566 19.566 0 01-6.54-1.13c-23.82-8.455-39.841-31.114-39.87-56.39V506c0-10.758 8.852-19.61 19.61-19.61s19.61 8.852 19.61 19.61v40.18c.01 8.702 5.528 16.502 13.73 19.41 7.809 2.771 13.058 10.204 13.058 18.49 0 10.755-8.843 19.608-19.598 19.62v-.03zM1073 489.86h-.02c-8.849 0-16.13 7.281-16.13 16.13v40.19c.027 23.798 15.112 45.132 37.54 53.09 1.725.61 3.541.921 5.37.921 8.838 0 16.111-7.273 16.111-16.111 0-6.811-4.319-12.92-10.741-15.19-9.594-3.405-16.047-12.53-16.06-22.71V506c.006-8.83-7.24-16.107-16.07-16.14z" fill="#5ec2ee" fill-rule="nonzero"/><path d="M1113.13 605.94h-.1a59.4 59.4 0 01-19.86-3.4c-10.148-3.566-15.565-14.851-12-25 3.58-10.137 14.852-15.547 25-12 2.2.777 4.517 1.174 6.85 1.174 11.284 0 20.57-9.286 20.57-20.57V527.81c0-10.758 8.852-19.61 19.61-19.61s19.61 8.852 19.61 19.61v18.34c.005 32.783-26.957 59.768-59.74 59.79h.06zm-13.41-38h-.014c-8.838 0-16.11 7.272-16.11 16.11a16.142 16.142 0 0010.744 15.19 56.05 56.05 0 0018.69 3.2h.1c30.865-.016 56.251-25.425 56.24-56.29v-18.34c0-8.838-7.272-16.11-16.11-16.11s-16.11 7.272-16.11 16.11v18.35c-.028 13.207-10.903 24.059-24.11 24.059-2.718 0-5.416-.46-7.98-1.359a16.11 16.11 0 00-5.34-.92z" fill="#ff9a1b" fill-rule="nonzero"/><path d="M1153.26 545.44c-10.752-.016-19.594-8.858-19.61-19.61v-33.24a20.502 20.502 0 00-7.64-16 19.623 19.623 0 01-7.281-15.25c0-10.758 8.853-19.611 19.611-19.611 4.487 0 8.841 1.54 12.33 4.361a59.546 59.546 0 0122.2 46.52v33.23c-.022 10.748-8.862 19.584-19.61 19.6zm-14.89-100.22c-.578 0-1.155.03-1.73.09-8.154.863-14.414 7.821-14.414 16.02a16.12 16.12 0 005.984 12.53 23.932 23.932 0 018.94 18.73v33.24c0 8.838 7.272 16.11 16.11 16.11s16.11-7.272 16.11-16.11V492.6a56.034 56.034 0 00-20.9-43.8 16.004 16.004 0 00-10.1-3.58z" fill="#ba9cdb" fill-rule="nonzero"/><path d="M1072.9 525.58c-10.74-.016-19.577-8.84-19.61-19.58v-13.41c.038-32.785 27.005-59.752 59.79-59.79h.11a59.75 59.75 0 0137.49 13.29 19.623 19.623 0 017.377 15.327c0 10.757-8.852 19.61-19.61 19.61-4.539 0-8.94-1.576-12.447-4.457a20.582 20.582 0 00-12.91-4.553c-11.28 0-20.565 9.273-20.58 20.553V506c-.033 10.74-8.87 19.564-19.61 19.58zm40.18-89.28c-30.867.033-56.257 25.423-56.29 56.29V506c0 8.838 7.272 16.11 16.11 16.11s16.11-7.272 16.11-16.11v-13.41c.005-13.206 10.874-24.071 24.08-24.071 5.496 0 10.83 1.882 15.11 5.331a16.117 16.117 0 0010.668 4.038c8.838 0 16.11-7.272 16.11-16.11 0-5.09-2.413-9.891-6.498-12.928a56.243 56.243 0 00-35.29-12.51l-.11-.04zM687.76 84.8c-10.752-.016-19.594-8.858-19.61-19.61v-5.44C668.205 26.985 695.155.044 727.92 0h.08a59.754 59.754 0 0137.48 13.29 19.622 19.622 0 017.163 15.153c0 10.758-8.852 19.61-19.61 19.61-4.444 0-8.759-1.51-12.233-4.283a19.91 19.91 0 00-12.8-4.55c-11.282-.006-20.577 9.258-20.61 20.54v5.43c-.016 10.759-8.871 19.605-19.63 19.61zm40.16-81.3c-30.845.044-56.215 25.405-56.27 56.25v5.44c0 8.838 7.272 16.11 16.11 16.11s16.11-7.272 16.11-16.11v-5.43c.055-13.179 10.911-23.995 24.09-24A23.482 23.482 0 01743 41.05a16.11 16.11 0 009.612 3.182c8.838 0 16.11-7.273 16.11-16.11 0-4.616-1.984-9.016-5.442-12.072A56.232 56.232 0 00728 3.5h-.08zm280.3 171.86c-10.752-.016-19.594-8.858-19.61-19.61V60.29c0-.68 0-1.38-.1-2.08v-.19c0-.1 0-.21-.05-.31-.06-.52-.13-1-.23-1.55a.655.655 0 010-.14 20.572 20.572 0 00-15.82-15.84h-.18c-.52-.1-1.09-.18-1.62-.24h-.39c-.55-.06-1.16-.09-1.86-.1a1.765 1.765 0 00-.23 0c-11.286.005-20.574 9.284-20.59 20.57v10.2c0 10.758-8.852 19.61-19.61 19.61s-19.61-8.852-19.61-19.61V60.29c0-32.8 26.99-59.79 59.79-59.79s59.79 26.99 59.79 59.79v95.51c-.044 10.759-8.921 19.582-19.68 19.56zM968.05 36.22h.26c.83 0 1.54.05 2.19.11h.45c.59.07 1.27.16 1.95.3h.19a24.037 24.037 0 0118.49 18.67c.008.05.008.1 0 .15.13.61.2 1.18.28 1.82v.18c0 .14.05.27.06.41.08.82.12 1.64.12 2.43v95.46c0 8.838 7.272 16.11 16.11 16.11s16.11-7.272 16.11-16.11V60.3c0-30.88-25.41-56.29-56.29-56.29s-56.29 25.41-56.29 56.29v10.31c0 8.838 7.272 16.11 16.11 16.11s16.11-7.272 16.11-16.11V60.29c.016-13.21 10.89-24.07 24.1-24.07h.05z" fill="#ff4cab" fill-rule="nonzero"/><path d="M342.1 39.72h-33c-10.758 0-19.61-8.852-19.61-19.61S298.342.5 309.1.5h33c10.758 0 19.61 8.852 19.61 19.61s-8.852 19.61-19.61 19.61zM309.1 4c-8.838 0-16.11 7.272-16.11 16.11s7.272 16.11 16.11 16.11h33c8.838 0 16.11-7.272 16.11-16.11S350.938 4 342.1 4h-33z" fill="#ba9cdb" fill-rule="nonzero"/><path d="M342.1 173.64h-33c-10.758 0-19.61-8.852-19.61-19.61s8.852-19.61 19.61-19.61h33c10.758 0 19.61 8.852 19.61 19.61s-8.852 19.61-19.61 19.61zm-33-35.72c-8.838 0-16.11 7.272-16.11 16.11s7.272 16.11 16.11 16.11h33c8.838 0 16.11-7.272 16.11-16.11s-7.272-16.11-16.11-16.11h-33z" fill="#5ec2ee" fill-rule="nonzero"/><path d="M308.5 173.64c-32.785-.038-59.752-27.005-59.79-59.79V60.29C248.748 27.505 275.715.538 308.5.5c10.758 0 19.61 8.852 19.61 19.61s-8.852 19.61-19.61 19.61c-11.276.016-20.549 9.294-20.56 20.57v53.56c.011 11.276 9.284 20.554 20.56 20.57 10.758 0 19.61 8.852 19.61 19.61s-8.852 19.61-19.61 19.61zM308.5 4c-30.865.038-56.252 25.425-56.29 56.29v53.56c.038 30.865 25.425 56.252 56.29 56.29 8.838 0 16.11-7.272 16.11-16.11s-7.272-16.11-16.11-16.11c-13.196-.016-24.049-10.874-24.06-24.07V60.29c.011-13.196 10.864-24.054 24.06-24.07 8.838 0 16.11-7.272 16.11-16.11S317.338 4 308.5 4z" fill="#ff9a1b" fill-rule="nonzero"/><path d="M325.12 102.2h-37.69c-8.306 0-15.14-6.834-15.14-15.14 0-8.306 6.834-15.14 15.14-15.14h37.69c8.306 0 15.14 6.834 15.14 15.14 0 8.306-6.834 15.14-15.14 15.14zm-37.69-26.78c-6.386 0-11.64 5.254-11.64 11.64 0 6.386 5.254 11.64 11.64 11.64h37.69c6.386 0 11.64-5.254 11.64-11.64 0-6.386-5.254-11.64-11.64-11.64h-37.69z" fill="#ff4cab" fill-rule="nonzero"/><path d="M1155.37 39.72h-33c-10.758 0-19.61-8.852-19.61-19.61S1111.612.5 1122.37.5h33c10.758 0 19.61 8.852 19.61 19.61s-8.852 19.61-19.61 19.61zm-33-35.72c-8.838 0-16.11 7.272-16.11 16.11s7.272 16.11 16.11 16.11h33c8.838 0 16.11-7.272 16.11-16.11S1164.208 4 1155.37 4h-33z" fill="#ba9cdb" fill-rule="nonzero"/><path d="M1155.37 173.64h-33c-10.758 0-19.61-8.852-19.61-19.61s8.852-19.61 19.61-19.61h33c10.758 0 19.61 8.852 19.61 19.61s-8.852 19.61-19.61 19.61zm-33-35.72c-8.838 0-16.11 7.272-16.11 16.11s7.272 16.11 16.11 16.11h33c8.838 0 16.11-7.272 16.11-16.11s-7.272-16.11-16.11-16.11h-33z" fill="#5ec2ee" fill-rule="nonzero"/><path d="M1121.77 173.64c-32.778-.049-59.732-27.012-59.77-59.79V60.29c.038-32.778 26.992-59.741 59.77-59.79 10.758 0 19.61 8.852 19.61 19.61s-8.852 19.61-19.61 19.61c-11.278.016-20.554 9.292-20.57 20.57v53.56c.016 11.278 9.292 20.554 20.57 20.57 10.758 0 19.61 8.852 19.61 19.61s-8.852 19.61-19.61 19.61zm0-169.64c-30.867.033-56.257 25.423-56.29 56.29v53.56c.033 30.867 25.423 56.257 56.29 56.29 8.838 0 16.11-7.272 16.11-16.11s-7.272-16.11-16.11-16.11c-13.198-.016-24.054-10.872-24.07-24.07V60.29c.016-13.198 10.872-24.054 24.07-24.07 8.838 0 16.11-7.272 16.11-16.11S1130.608 4 1121.77 4z" fill="#ff9a1b" fill-rule="nonzero"/><path d="M1138.39 102.2h-37.7c-8.306 0-15.14-6.834-15.14-15.14 0-8.306 6.834-15.14 15.14-15.14h37.7c8.306 0 15.14 6.834 15.14 15.14 0 8.306-6.834 15.14-15.14 15.14zm-37.7-26.78c-6.386 0-11.64 5.254-11.64 11.64 0 6.386 5.254 11.64 11.64 11.64h37.7c6.386 0 11.64-5.254 11.64-11.64 0-6.386-5.254-11.64-11.64-11.64h-37.7z" fill="#ff4cab" fill-rule="nonzero"/><path d="M611.25 48.11c-10.675 0-19.46-8.785-19.46-19.46s8.785-19.46 19.46-19.46 19.46 8.785 19.46 19.46c-.011 10.671-8.789 19.449-19.46 19.46zm0-35.42c-8.777 0-16 7.223-16 16 0 8.777 7.223 16 16 16 8.777 0 16-7.223 16-16 0-8.777-7.223-16-16-16zm396.97 162.67c-10.752-.016-19.594-8.858-19.61-19.61v-24.5c0-10.758 8.852-19.61 19.61-19.61s19.61 8.852 19.61 19.61v24.5c-.016 10.752-8.858 19.594-19.61 19.61zm0-60.22c-8.834.011-16.099 7.276-16.11 16.11v24.5c0 8.838 7.272 16.11 16.11 16.11s16.11-7.272 16.11-16.11v-24.5c-.011-8.834-7.276-16.099-16.11-16.11z" fill="#ba9cdb" fill-rule="nonzero"/><path d="M262.91 827.92c-10.83-.011-19.739-8.92-19.75-19.75V676.75c0-10.835 8.915-19.75 19.75-19.75s19.75 8.915 19.75 19.75v131.42c-.011 10.83-8.92 19.739-19.75 19.75zm0-167.42c-8.91.011-16.239 7.34-16.25 16.25v131.42c0 8.914 7.336 16.25 16.25 16.25s16.25-7.336 16.25-16.25V676.75c-.011-8.91-7.34-16.239-16.25-16.25z" fill="#ff4cab" fill-rule="nonzero"/><path d="M226.47 732.59a19.62 19.62 0 01-14-5.78c-7.65-7.666-7.65-20.264 0-27.93l36.88-36.28a19.757 19.757 0 0114.06-5.88c10.835 0 19.75 8.916 19.75 19.75a19.758 19.758 0 01-5.89 14.07l-36.88 36.28a19.619 19.619 0 01-13.92 5.77zm36.88-72.25a16.187 16.187 0 00-11.49 4.75L215 701.37a16.264 16.264 0 1023 23l36.88-36.27a16.246 16.246 0 004.753-11.48c0-8.909-7.331-16.24-16.24-16.24h-.013l-.03-.04z" fill="#ff9a1b" fill-rule="nonzero"/><path d="M319.49 808.25c0-9.979-8.101-18.08-18.08-18.08h-76c-9.979 0-18.08 8.101-18.08 18.08v.02c0 9.979 8.101 18.08 18.08 18.08h76c9.979 0 18.08-8.101 18.08-18.08v-.02z" fill="none"/><path d="M301.41 828.1h-76c-10.884 0-19.84-8.956-19.84-19.84s8.956-19.84 19.84-19.84h76c10.884 0 19.84 8.956 19.84 19.84s-8.956 19.84-19.84 19.84zm-76-36.18c-8.964 0-16.34 7.376-16.34 16.34 0 8.964 7.376 16.34 16.34 16.34h76c8.964 0 16.34-7.376 16.34-16.34 0-8.964-7.376-16.34-16.34-16.34h-76z" fill="#5ec2ee" fill-rule="nonzero"/><path d="M301.51 828h-19.22c-10.835 0-19.75-8.915-19.75-19.75s8.915-19.75 19.75-19.75h19.22c10.835 0 19.75 8.915 19.75 19.75S312.345 828 301.51 828zm-19.24-36c-8.914 0-16.25 7.336-16.25 16.25s7.336 16.25 16.25 16.25h19.2c8.914 0 16.25-7.336 16.25-16.25S310.384 792 301.47 792h-19.2z" fill="#ba9cdb" fill-rule="nonzero"/></svg>